<?xml version="1.0" encoding="utf-8"?>
<!-- Generator: Adobe Illustrator 24.1.3, SVG Export Plug-In . SVG Version: 6.00 Build 0)  -->
<svg version="1.1" xmlns="http://www.w3.org/2000/svg" xmlns:xlink="http://www.w3.org/1999/xlink" viewBox="0 0 512 512">
	<path d="M85.33,273.07c0,62.13-18.53,103.08-56.68,125.2c-8.01,4.69-10.82,14.91-6.33,23.04l34.75,62.53
		c4.17,7.52,13.29,10.77,21.27,7.57c28.16-11.34,123.55-43.59,170.91,17.32c1.62,2.08,4.1,3.3,6.74,3.3s5.12-1.22,6.74-3.3
		c47.38-60.9,142.8-28.66,170.92-17.32c7.98,3.19,17.1-0.05,21.27-7.57l34.75-62.55c4.49-8.13,1.68-18.35-6.33-23.04
		c-38.14-22.1-56.68-63.05-56.68-125.18c0-67.75,46.08-119.47,60.23-133.73c6.21-6.23,6.63-16.18,0.96-22.91l-34.55-41.47
		c-3.76-4.5-9.55-6.75-15.36-5.97c-80.96,10.62-105.64-36.56-112.49-57.37C323.14,4.65,316.62-0.03,309.28,0H202.72
		c-7.33-0.03-13.86,4.65-16.17,11.61c-6.83,20.79-31.57,68-112.46,57.4c-5.81-0.78-11.6,1.48-15.36,5.97l-34.56,41.48
		c-5.67,6.73-5.25,16.68,0.96,22.91C39.25,153.6,85.33,205.31,85.33,273.07z M71.87,85.93c96.24,12.62,124.5-49.61,130.85-68.86
		l106.53-0.11c6.37,19.36,34.66,81.56,130.94,68.92l34.59,41.45c-15.29,15.41-65.18,71.5-65.18,145.74
		c0,68.74,21.33,114.53,65.16,139.95l-34.72,62.57c-29.69-11.95-127.84-44.94-184.04,14.8c-24.85-26.44-57.89-34.71-89.6-34.71
		c-32.41,0.85-64.4,7.57-94.41,19.85l-34.77-62.52c43.85-25.42,65.19-71.2,65.19-139.95c0-74.24-49.89-130.33-65.15-145.72
		L71.87,85.93z"/>
	<path d="M266.48,440c-3.58,1.91-7.08,3.99-10.48,6.2c-3.41-2.22-6.9-4.27-10.48-6.2c-2.69-1.43-5.94-1.32-8.53,0.29
		c-2.59,1.61-4.12,4.48-4.01,7.53c0.1,3.05,1.82,5.81,4.51,7.24c4.69,2.5,9.21,5.32,13.53,8.41c2.97,2.13,6.98,2.13,9.95,0
		c4.32-3.1,8.84-5.91,13.53-8.41c4.16-2.22,5.73-7.39,3.52-11.55S270.64,437.78,266.48,440L266.48,440z"/>
	<path d="M217.07,428.48c-9.77-2.81-19.76-4.75-29.87-5.8c-3.03-0.32-6,1-7.8,3.47s-2.13,5.7-0.9,8.49
		s3.87,4.7,6.9,5.02c9.11,0.94,18.11,2.69,26.91,5.21c0.78,0.23,1.58,0.35,2.39,0.35c4.25,0.01,7.86-3.12,8.46-7.34
		c0.6-4.21-2-8.22-6.09-9.4L217.07,428.48z"/>
	<path d="M157.01,421.79c-9.99,0.43-19.94,1.45-29.81,3.05c-4.38,0.71-7.49,4.67-7.14,9.09
		c0.35,4.43,4.04,7.84,8.48,7.86c0.46,0,0.91-0.03,1.37-0.1c9.2-1.49,18.49-2.44,27.8-2.85c3.05-0.12,5.8-1.87,7.22-4.57
		c1.42-2.7,1.28-5.96-0.35-8.53s-4.52-4.09-7.57-3.96V421.79z"/>
	<path d="M97.98,431.05c-3.49,0.92-6.85,1.87-10.08,2.83l-6.29-11.31c2.71-2.49,5.32-5.07,7.83-7.73
		c3.2-3.44,3.02-8.82-0.4-12.03c-3.43-3.22-8.81-3.06-12.04,0.35c-3.66,3.89-7.55,7.56-11.65,10.98c-3.15,2.62-3.99,7.12-2,10.7
		l13,23.38c1.51,2.71,4.36,4.39,7.46,4.39c0.89,0,1.77-0.14,2.61-0.41c4.91-1.58,10.24-3.16,15.91-4.66c3.03-0.7,5.43-3,6.28-5.99
		c0.85-2.99,0-6.2-2.21-8.39C104.18,430.98,100.96,430.17,97.98,431.05L97.98,431.05z"/>
	<path d="M118.61,345.98c-4.45-1.55-9.31,0.81-10.86,5.26c-3.32,9.62-7.56,18.9-12.68,27.7
		c-2.38,4.07-1.02,9.29,3.05,11.67c1.29,0.77,2.76,1.17,4.27,1.18c3.03,0,5.84-1.61,7.37-4.22c5.68-9.76,10.4-20.05,14.08-30.72
		C125.39,352.41,123.05,347.55,118.61,345.98L118.61,345.98z"/>
	<path d="M114.35,228.99c2.36,10.01,3.92,20.18,4.67,30.44c0.32,4.47,4.05,7.93,8.53,7.92h0.63
		c2.26-0.16,4.36-1.22,5.84-2.93c1.48-1.71,2.22-3.94,2.06-6.2c-0.82-11.15-2.52-22.22-5.08-33.11c-0.7-2.97-2.93-5.34-5.85-6.22
		s-6.09-0.13-8.31,1.95s-3.16,5.2-2.46,8.17L114.35,228.99z"/>
	<path d="M123.86,331.45c4.13-0.01,7.66-2.96,8.39-7.02c1.93-10.91,3.19-21.93,3.78-32.99
		c0.26-4.7-3.33-8.72-8.03-8.99c-4.69-0.21-8.69,3.36-9,8.05c-0.55,10.37-1.73,20.7-3.54,30.92c-0.4,2.23,0.1,4.52,1.4,6.38
		c1.29,1.86,3.27,3.13,5.5,3.53C122.85,331.41,123.36,331.45,123.86,331.45z"/>
	<path d="M112.95,204.91c2.83,0,5.47-1.4,7.06-3.74c1.59-2.34,1.92-5.32,0.87-7.94
		c-4.12-10.32-8.91-20.36-14.34-30.05c-2.33-4.06-7.49-5.48-11.57-3.2c-4.08,2.29-5.56,7.43-3.32,11.54
		c5.07,9.03,9.53,18.39,13.36,28.01C106.3,202.77,109.45,204.91,112.95,204.91z"/>
	<path d="M82.17,126.76l4.4-5.27c3.27,0.15,6.5,0.23,9.68,0.23h3.74c4.71-0.08,8.47-3.97,8.38-8.68
		c-0.08-4.71-3.97-8.47-8.68-8.38h-3.41c-4.22,0-8.53-0.15-12.93-0.44c-2.72-0.18-5.37,0.96-7.12,3.05l-11.66,13.96
		c-2.62,3.16-2.62,7.74,0,10.9c3.26,3.93,6.67,8.29,10.14,13.03c2.78,3.81,8.12,4.64,11.93,1.86s4.64-8.12,1.86-11.93
		C86.35,132.18,84.24,129.4,82.17,126.76z"/>
	<path d="M142.42,115.46c0.82,0,1.63-0.12,2.41-0.35c14.77-4.29,28.7-11.07,41.19-20.04
		c3.82-2.76,4.68-8.1,1.92-11.92s-8.1-4.68-11.92-1.92c-10.92,7.84-23.1,13.75-36.01,17.49c-4.08,1.19-6.66,5.2-6.06,9.41
		C134.56,112.35,138.17,115.47,142.42,115.46L142.42,115.46z"/>
	<path d="M210.91,65.83c2.82,0,5.46-1.39,7.05-3.71c2.41-3.51,4.67-7.17,6.77-10.92h11.95
		c4.71,0,8.53-3.82,8.53-8.53s-3.82-8.53-8.53-8.53h-17.07c-3.2,0-6.13,1.79-7.59,4.64c-2.42,4.74-5.14,9.32-8.14,13.71
		c-1.78,2.61-1.98,5.99-0.5,8.79S207.74,65.83,210.91,65.83L210.91,65.83z"/>
	<path d="M275.32,51.2h11.95c2.1,3.75,4.36,7.42,6.77,10.92c1.68,2.61,4.65,4.09,7.74,3.89
		c3.1-0.21,5.83-2.08,7.15-4.89c1.32-2.81,1-6.11-0.82-8.63c-3-4.39-5.72-8.97-8.14-13.71c-1.46-2.85-4.39-4.64-7.59-4.64h-17.07
		c-4.71,0-8.53,3.82-8.53,8.53S270.61,51.2,275.32,51.2L275.32,51.2z"/>
	<path d="M367.13,115.11c0.78,0.24,1.6,0.36,2.41,0.36c4.25,0.01,7.86-3.11,8.46-7.32
		c0.61-4.21-1.98-8.22-6.06-9.41c-12.9-3.75-25.08-9.67-35.99-17.5c-2.46-1.94-5.79-2.37-8.66-1.13c-2.87,1.24-4.84,3.96-5.11,7.08
		c-0.28,3.12,1.18,6.14,3.79,7.87C338.45,104.04,352.37,110.81,367.13,115.11L367.13,115.11z"/>
	<path d="M412.01,121.69h3.74c3.17,0,6.41-0.08,9.69-0.23l4.39,5.27c-2.07,2.63-4.18,5.4-6.31,8.32
		c-2.78,3.81-1.94,9.15,1.86,11.93c3.81,2.78,9.15,1.94,11.93-1.86c3.46-4.74,6.88-9.09,10.14-13.02c2.63-3.16,2.63-7.74,0-10.91
		l-11.65-13.92c-1.76-2.09-4.4-3.23-7.13-3.05c-4.39,0.3-8.71,0.44-12.92,0.44h-3.41h-0.18c-4.71-0.04-8.57,3.75-8.61,8.46
		c-0.04,4.71,3.75,8.57,8.46,8.61L412.01,121.69z"/>
	<path d="M388.1,331.26c0.51,0,1.01-0.04,1.51-0.13c2.23-0.4,4.21-1.66,5.5-3.52c1.29-1.86,1.8-4.15,1.4-6.38
		c-1.79-10.23-2.97-20.56-3.52-30.92c-0.26-4.71-4.29-8.32-9-8.06s-8.32,4.29-8.06,9c0.58,11.06,1.84,22.07,3.75,32.98
		C380.42,328.3,383.97,331.26,388.1,331.26L388.1,331.26z"/>
	<path d="M393.39,345.79c-4.45,1.54-6.81,6.4-5.27,10.85c3.66,10.67,8.37,20.96,14.04,30.72
		c1.52,2.68,4.36,4.33,7.44,4.33c3.08,0,5.92-1.66,7.43-4.35c1.51-2.68,1.46-5.97-0.13-8.6c-5.1-8.8-9.34-18.08-12.65-27.71
		C402.69,346.59,397.83,344.24,393.39,345.79L393.39,345.79z"/>
	<path d="M395.95,204.11c1,0.41,2.07,0.61,3.15,0.61c3.5,0,6.65-2.14,7.94-5.39c3.84-9.61,8.31-18.96,13.38-27.99
		c2.18-4.1,0.69-9.18-3.36-11.45c-4.05-2.27-9.16-0.89-11.52,3.1c-5.45,9.68-10.24,19.72-14.36,30.04
		C389.43,197.41,391.57,202.37,395.95,204.11L395.95,204.11z"/>
	<path d="M383.91,267.09h0.63c4.48,0.01,8.21-3.45,8.53-7.92c0.76-10.25,2.33-20.43,4.69-30.43
		c0.79-3-0.12-6.18-2.36-8.33s-5.46-2.9-8.42-1.99c-2.96,0.92-5.19,3.36-5.83,6.4c-2.58,10.88-4.29,21.95-5.12,33.11
		c-0.17,2.26,0.56,4.49,2.04,6.21C379.55,265.86,381.65,266.92,383.91,267.09L383.91,267.09z"/>
	<path d="M430.39,422.58l-6.28,11.31c-3.23-0.96-6.58-1.91-10.08-2.83c-2.98-0.88-6.2-0.07-8.42,2.11
		c-2.21,2.18-3.06,5.4-2.21,8.39c0.85,2.99,3.25,5.29,6.28,5.99c5.67,1.5,11.01,3.08,15.91,4.66c0.84,0.27,1.72,0.41,2.61,0.41
		c3.1,0,5.95-1.68,7.46-4.39l13-23.39c1.99-3.58,1.15-8.07-2-10.69c-4.1-3.43-7.99-7.09-11.65-10.98c-2.08-2.24-5.2-3.19-8.18-2.5
		c-2.98,0.69-5.36,2.93-6.24,5.86c-0.88,2.93-0.13,6.1,1.98,8.32C425.07,417.5,427.67,420.08,430.39,422.58L430.39,422.58z"/>
	<path d="M384.85,424.85c-9.86-1.6-19.81-2.62-29.8-3.05c-4.66-0.06-8.55,3.53-8.87,8.17
		c-0.19,4.71,3.47,8.68,8.17,8.87c9.31,0.41,18.6,1.36,27.8,2.85c0.45,0.07,0.9,0.11,1.36,0.11c4.44-0.02,8.13-3.43,8.48-7.86
		C392.34,429.52,389.24,425.56,384.85,424.85L384.85,424.85z"/>
	<path d="M324.88,422.67c-10.11,1.05-20.1,2.98-29.87,5.79c-2.93,0.85-5.18,3.2-5.91,6.16s0.18,6.09,2.39,8.2
		c2.2,2.11,5.36,2.88,8.29,2.03c8.8-2.53,17.81-4.27,26.92-5.21c4.69-0.49,8.09-4.7,7.59-9.38c-0.49-4.69-4.7-8.09-9.38-7.59
		L324.88,422.67z"/>
	<path d="M230.4,93.87c0,14.14,11.46,25.6,25.6,25.6c14.14,0,25.6-11.46,25.6-25.6s-11.46-25.6-25.6-25.6
		C241.86,68.27,230.4,79.73,230.4,93.87z M256,85.33c4.71,0,8.53,3.82,8.53,8.53c0,4.71-3.82,8.53-8.53,8.53s-8.53-3.82-8.53-8.53
		C247.47,89.15,251.29,85.33,256,85.33z"/>
</svg>
