<?xml version="1.0" encoding="utf-8"?>
<!-- Generator: Adobe Illustrator 24.1.3, SVG Export Plug-In . SVG Version: 6.00 Build 0)  -->
<svg version="1.1" xmlns="http://www.w3.org/2000/svg" xmlns:xlink="http://www.w3.org/1999/xlink" viewBox="0 0 512 512">
<g transform="translate(0 -1)">
	<path d="M484.41,392.05c4.39-12.13,0.95-25.71-8.67-34.3c-3.5-2.85-5.54-7.12-5.55-11.63
		c-0.01-4.51,2.01-8.79,5.5-11.66c6.8-6.04,10.7-14.7,10.71-23.8s-3.87-17.77-10.66-23.82c-3.49-2.84-5.53-7.09-5.55-11.59
		c-0.02-4.5,1.98-8.77,5.45-11.64c6.73-6.12,10.62-14.75,10.76-23.84c-0.16-9.09-4.02-17.73-10.71-23.89
		c-3.32-2.94-5.3-7.09-5.5-11.52c0.21-4.43,2.18-8.59,5.45-11.57c6.83-6.06,10.74-14.75,10.75-23.88
		c0.01-9.13-3.88-17.83-10.7-23.9c-3.33-2.94-5.31-7.12-5.5-11.55c0.18-4.44,2.15-8.61,5.45-11.57
		c6.83-6.04,10.75-14.73,10.76-23.85c0.01-9.12-3.89-17.82-10.71-23.87c-3.31-2.98-5.29-7.16-5.5-11.61
		c0.18-4.44,2.15-8.62,5.46-11.58c9.71-8.7,13.18-22.43,8.76-34.7C482.02,10,477.04,5.09,470.75,2.8
		c-12.34-4.37-26.09-1.02-35.04,8.53c-3.11,3.36-7.45,5.31-12.02,5.41c-4.56-0.11-8.87-2.07-11.95-5.44
		c-6.35-6.45-15.03-10.08-24.08-10.08s-17.73,3.63-24.08,10.08c-3.12,3.33-7.47,5.21-12.03,5.21c-4.56,0-8.91-1.89-12.03-5.21
		C333.16,4.84,324.48,1.2,315.41,1.2c-9.07,0-17.75,3.64-24.11,10.11c-3.09,3.35-7.44,5.25-11.99,5.25c-4.55,0-8.9-1.9-11.99-5.25
		c-6.34-6.46-15-10.1-24.05-10.11c-9.05-0.01-17.72,3.61-24.07,10.04c-3.08,3.4-7.44,5.34-12.02,5.35s-8.96-1.91-12.05-5.3
		c-6.35-6.43-15.01-10.06-24.04-10.07s-17.7,3.6-24.07,10.02c-3.1,3.36-7.46,5.28-12.04,5.3c-4.57,0.02-8.95-1.87-12.08-5.2
		C116.55,4.87,107.87,1.22,98.8,1.22S81.05,4.87,74.69,11.33c-3.09,3.35-7.44,5.26-12,5.26s-8.91-1.91-12-5.26
		C41.85,1.81,28.21-1.58,15.94,2.71C9.52,4.94,4.41,9.9,2,16.26c-4.49,12.25-1.03,26.01,8.74,34.67c3.36,2.94,5.34,7.14,5.48,11.6
		c-0.13,4.44-2.08,8.63-5.41,11.57C3.97,80.14,0.05,88.82,0.04,97.95c-0.01,9.12,3.89,17.82,10.71,23.87
		c3.32,2.97,5.29,7.16,5.46,11.61c-0.2,4.43-2.19,8.6-5.51,11.54C4.02,151.14,0.16,159.76,0,168.85
		c0.12,9.07,3.97,17.7,10.66,23.83c3.33,2.99,5.33,7.19,5.56,11.67c-0.2,4.43-2.19,8.59-5.5,11.54
		C4.03,222.05,0.16,230.68,0,239.76c0.13,9.05,3.99,17.64,10.66,23.75c3.34,2.99,5.34,7.19,5.56,11.67
		c-0.22,4.45-2.2,8.63-5.5,11.62c-6.8,6.04-10.7,14.7-10.71,23.8c-0.01,9.1,3.87,17.77,10.66,23.82c3.36,2.97,5.36,7.18,5.56,11.67
		c-0.17,4.45-2.14,8.63-5.45,11.61C4.04,363.81,0.15,372.42,0,381.5c0.16,9.14,4.04,17.82,10.76,24.02
		c3.32,2.92,5.29,7.07,5.45,11.48c-0.21,4.41-2.16,8.55-5.42,11.52c-9.15,8.12-12.85,20.77-9.51,32.55
		c2.33,8.48,9.09,15.02,17.65,17.07c2.06,0.49,4.18,0.73,6.3,0.73c9.15-0.38,17.89-3.89,24.75-9.95c6.73-6.9,17.74-7.16,24.79-0.59
		c6.36,6.45,15.04,10.08,24.1,10.06s17.73-3.68,24.06-10.16c3.09-3.37,7.45-5.29,12.02-5.29c4.57,0,8.94,1.92,12.02,5.29
		c0.37,0.37,0.79,0.7,1.19,1.07c8.03,26.12,32.24,43.89,59.56,43.71h241.61c23.51,0.03,45.04-13.14,55.72-34.08
		c10.69-20.94,8.72-46.1-5.09-65.12L484.41,392.05z M110.79,456.19c-3.08,3.35-7.43,5.26-11.98,5.27c-4.55,0.01-8.9-1.88-12-5.22
		c-12.9-13.11-31.53-13.4-47.48-0.71c-4.39,4.36-10.49,6.55-16.65,5.97c-2.48-0.72-4.39-2.71-5.02-5.22
		c-1.49-5.67,0.45-11.68,4.96-15.42c6.63-6.19,10.47-14.8,10.66-23.87c-0.14-9.07-4.01-17.67-10.7-23.79
		c-3.5-2.85-5.53-7.13-5.53-11.64c0-4.52,2.03-8.79,5.53-11.64c6.64-6.17,10.5-14.77,10.7-23.83c-0.2-9.08-4.06-17.7-10.7-23.89
		c-3.5-2.83-5.54-7.1-5.54-11.6c0-4.5,2.03-8.77,5.54-11.6c6.67-6.14,10.54-14.75,10.7-23.82c-0.22-9.09-4.09-17.7-10.75-23.89
		c-3.35-2.91-5.33-7.09-5.46-11.52c0.16-4.47,2.15-8.67,5.51-11.61c6.66-6.15,10.52-14.74,10.7-23.8
		c-0.17-9.1-4.05-17.73-10.75-23.89c-3.47-2.86-5.47-7.11-5.46-11.6c0.01-4.49,2.03-8.74,5.51-11.58
		c6.67-6.15,10.54-14.76,10.7-23.83c-0.18-9.1-4.06-17.73-10.75-23.89c-3.34-2.95-5.31-7.15-5.46-11.61
		c0.15-4.43,2.14-8.6,5.49-11.51c6.7-6.16,10.58-14.8,10.73-23.9c-0.13-9.09-3.98-17.73-10.67-23.89
		c-4.78-3.97-6.62-10.48-4.61-16.37c0.67-1.64,2.03-2.91,3.71-3.46c6.06-2.05,12.76-0.25,16.96,4.57
		c6.35,6.44,15.02,10.06,24.07,10.05c9.05-0.01,17.71-3.65,24.05-10.1C89.87,19.93,94.24,18,98.82,18s8.94,1.93,12.01,5.33
		c6.36,6.49,15.06,10.14,24.15,10.14c9.08,0,17.79-3.65,24.15-10.14c3.07-3.38,7.43-5.3,11.99-5.3c4.56,0,8.92,1.92,11.99,5.3
		c6.34,6.49,15.03,10.14,24.11,10.14s17.76-3.66,24.11-10.14c3.06-3.4,7.42-5.34,11.99-5.32c4.57,0.02,8.92,1.99,11.95,5.42
		c6.35,6.44,15.02,10.05,24.07,10.04s17.71-3.65,24.04-10.1c3.07-3.42,7.45-5.37,12.05-5.36c4.6,0.01,8.97,1.98,12.03,5.41
		c6.37,6.45,15.07,10.07,24.14,10.06c9.07-0.02,17.75-3.67,24.1-10.15c3.08-3.34,7.42-5.24,11.97-5.24s8.89,1.9,11.97,5.24
		c6.27,6.56,14.92,10.33,24,10.44h0.06c9.13-0.11,17.83-3.88,24.14-10.47c4.27-4.86,11.07-6.62,17.16-4.43
		c1.56,0.62,2.8,1.85,3.41,3.41c2.04,5.89,0.19,12.42-4.62,16.38c-6.66,6.17-10.52,14.79-10.67,23.87
		c0.18,9.1,4.06,17.73,10.75,23.89c3.35,2.91,5.33,7.09,5.46,11.52c-0.16,4.47-2.15,8.67-5.51,11.61
		c-6.81,6.05-10.7,14.73-10.7,23.84c0,9.11,3.9,17.78,10.7,23.84c3.5,2.86,5.52,7.14,5.51,11.65s-2.05,8.79-5.55,11.63
		c-6.79,6.06-10.67,14.72-10.66,23.82c0.01,9.1,3.9,17.76,10.7,23.8c3.35,2.95,5.35,7.16,5.51,11.62
		c-0.16,4.47-2.17,8.66-5.56,11.58c-6.62,6.18-10.46,14.78-10.66,23.83c0.14,9.09,4.01,17.73,10.7,23.89
		c3.5,2.84,5.52,7.11,5.51,11.61c-0.01,4.5-2.05,8.76-5.56,11.59c-6.61,6.18-10.46,14.77-10.66,23.82c0,0.85,0.2,1.71,0.28,2.62
		l-53.95-75.41c-4.25-5.84-6.54-12.87-6.54-20.1V144.36c9.99-3.71,16.64-13.23,16.68-23.89v-8.53c0-14.14-11.46-25.6-25.6-25.6
		H273.07c-14.14,0-25.6,11.46-25.6,25.6v8.53c0.04,10.81,6.87,20.43,17.07,24.03V253.2c0,7.23-2.29,14.28-6.55,20.12L157.13,413.74
		c-7.24,9.96-11.36,21.83-11.84,34.13C133.14,443.87,119.78,447.1,110.79,456.19L110.79,456.19z M392.53,120.47
		c0,4.71-3.82,8.53-8.53,8.53H273.07c-4.71,0-8.53-3.82-8.53-8.53v-8.53c0-4.71,3.82-8.53,8.53-8.53H384
		c4.71,0,8.53,3.82,8.53,8.53V120.47z M281.6,253.2V146.07h94.25V253.2c-0.02,10.8,3.39,21.33,9.75,30.06l27.87,38.96
		c-29.46,13.1-62.97,13.74-92.91,1.77c-22.59-8.49-46.77-11.89-70.83-9.97l22.07-30.72C278.17,274.57,281.6,264.03,281.6,253.2
		L281.6,253.2z M489.9,471.08c-7.63,15.38-23.39,25.04-40.56,24.85H207.73c-17.11,0.02-32.77-9.57-40.53-24.81
		s-6.3-33.55,3.77-47.37l65.14-90.71c26.31-4.9,53.47-2.49,78.51,6.96c16.37,6.23,33.73,9.48,51.25,9.58
		c19.98-0.02,39.7-4.54,57.69-13.23l43.93,61.44c0.11,0.16,0.21,0.31,0.33,0.46l18.3,25.6C496.33,437.58,497.8,455.92,489.9,471.08
		L489.9,471.08z"/>
	<path d="M315.73,419.13c-14.14,0-25.6,11.46-25.6,25.6c0,14.14,11.46,25.6,25.6,25.6c14.14,0,25.6-11.46,25.6-25.6
		C341.33,430.59,329.87,419.13,315.73,419.13z M315.73,453.27c-4.71,0-8.53-3.82-8.53-8.53c0-4.71,3.82-8.53,8.53-8.53
		c4.71,0,8.53,3.82,8.53,8.53C324.27,449.45,320.45,453.27,315.73,453.27z"/>
	<path d="M256,359.4c-14.14,0-25.6,11.46-25.6,25.6c0,14.14,11.46,25.6,25.6,25.6c14.14,0,25.6-11.46,25.6-25.6
		C281.6,370.86,270.14,359.4,256,359.4z M256,393.53c-4.71,0-8.53-3.82-8.53-8.53s3.82-8.53,8.53-8.53c4.71,0,8.53,3.82,8.53,8.53
		S260.71,393.53,256,393.53z"/>
	<path d="M426.67,393.53c-14.14,0-25.6,11.46-25.6,25.6c0,14.14,11.46,25.6,25.6,25.6s25.6-11.46,25.6-25.6
		C452.27,404.99,440.81,393.53,426.67,393.53z M426.67,427.67c-4.71,0-8.53-3.82-8.53-8.53s3.82-8.53,8.53-8.53
		s8.53,3.82,8.53,8.53S431.38,427.67,426.67,427.67z"/>
	<circle cx="341.33" cy="393.53" r="8.53"/>
	<circle cx="230.4" cy="444.73" r="8.53"/>
	<circle cx="392.53" cy="461.8" r="8.53"/>
	<path d="M93.87,86.33c4.71,0,8.53-3.82,8.53-8.53v-8.53c0-4.71-3.82-8.53-8.53-8.53c-4.71,0-8.53,3.82-8.53,8.53
		v8.53C85.33,82.51,89.15,86.33,93.87,86.33z"/>
	<path d="M68.27,103.4h8.53c4.71,0,8.53-3.82,8.53-8.53c0-4.71-3.82-8.53-8.53-8.53h-8.53
		c-4.71,0-8.53,3.82-8.53,8.53C59.73,99.58,63.55,103.4,68.27,103.4z"/>
	<path d="M110.93,103.4h8.53c4.71,0,8.53-3.82,8.53-8.53c0-4.71-3.82-8.53-8.53-8.53h-8.53
		c-4.71,0-8.53,3.82-8.53,8.53C102.4,99.58,106.22,103.4,110.93,103.4z"/>
	<path d="M93.87,129c4.71,0,8.53-3.82,8.53-8.53v-8.53c0-4.71-3.82-8.53-8.53-8.53c-4.71,0-8.53,3.82-8.53,8.53v8.53
		C85.33,125.18,89.15,129,93.87,129z"/>
	<path d="M145.07,154.6c4.71,0,8.53-3.82,8.53-8.53v-8.53c0-4.71-3.82-8.53-8.53-8.53c-4.71,0-8.53,3.82-8.53,8.53
		v8.53C136.53,150.78,140.35,154.6,145.07,154.6z"/>
	<path d="M119.47,154.6c-4.71,0-8.53,3.82-8.53,8.53c0,4.71,3.82,8.53,8.53,8.53H128c4.71,0,8.53-3.82,8.53-8.53
		c0-4.71-3.82-8.53-8.53-8.53H119.47z"/>
	<path d="M162.13,171.67h8.53c4.71,0,8.53-3.82,8.53-8.53c0-4.71-3.82-8.53-8.53-8.53h-8.53
		c-4.71,0-8.53,3.82-8.53,8.53C153.6,167.85,157.42,171.67,162.13,171.67z"/>
	<path d="M145.07,197.27c4.71,0,8.53-3.82,8.53-8.53v-8.53c0-4.71-3.82-8.53-8.53-8.53c-4.71,0-8.53,3.82-8.53,8.53
		v8.53C136.53,193.45,140.35,197.27,145.07,197.27z"/>
	<path d="M196.27,86.33c4.71,0,8.53-3.82,8.53-8.53v-8.53c0-4.71-3.82-8.53-8.53-8.53s-8.53,3.82-8.53,8.53v8.53
		C187.73,82.51,191.55,86.33,196.27,86.33z"/>
	<path d="M170.67,103.4h8.53c4.71,0,8.53-3.82,8.53-8.53c0-4.71-3.82-8.53-8.53-8.53h-8.53
		c-4.71,0-8.53,3.82-8.53,8.53C162.13,99.58,165.95,103.4,170.67,103.4z"/>
	<path d="M213.33,103.4h8.53c4.71,0,8.53-3.82,8.53-8.53c0-4.71-3.82-8.53-8.53-8.53h-8.53
		c-4.71,0-8.53,3.82-8.53,8.53C204.8,99.58,208.62,103.4,213.33,103.4z"/>
	<path d="M196.27,129c4.71,0,8.53-3.82,8.53-8.53v-8.53c0-4.71-3.82-8.53-8.53-8.53s-8.53,3.82-8.53,8.53v8.53
		C187.73,125.18,191.55,129,196.27,129z"/>
	<path d="M102.4,214.33c0-4.71-3.82-8.53-8.53-8.53c-4.71,0-8.53,3.82-8.53,8.53v8.53c0,4.71,3.82,8.53,8.53,8.53
		c4.71,0,8.53-3.82,8.53-8.53V214.33z"/>
	<path d="M68.27,248.47h8.53c4.71,0,8.53-3.82,8.53-8.53c0-4.71-3.82-8.53-8.53-8.53h-8.53
		c-4.71,0-8.53,3.82-8.53,8.53C59.73,244.65,63.55,248.47,68.27,248.47z"/>
	<path d="M110.93,248.47h8.53c4.71,0,8.53-3.82,8.53-8.53c0-4.71-3.82-8.53-8.53-8.53h-8.53
		c-4.71,0-8.53,3.82-8.53,8.53C102.4,244.65,106.22,248.47,110.93,248.47z"/>
	<path d="M102.4,257c0-4.71-3.82-8.53-8.53-8.53c-4.71,0-8.53,3.82-8.53,8.53v8.53c0,4.71,3.82,8.53,8.53,8.53
		c4.71,0,8.53-3.82,8.53-8.53V257z"/>
	<path d="M93.87,350.87c-4.71,0-8.53,3.82-8.53,8.53v8.53c0,4.71,3.82,8.53,8.53,8.53c4.71,0,8.53-3.82,8.53-8.53
		v-8.53C102.4,354.69,98.58,350.87,93.87,350.87z"/>
	<path d="M76.8,376.47h-8.53c-4.71,0-8.53,3.82-8.53,8.53s3.82,8.53,8.53,8.53h8.53c4.71,0,8.53-3.82,8.53-8.53
		S81.51,376.47,76.8,376.47z"/>
	<path d="M119.47,376.47h-8.53c-4.71,0-8.53,3.82-8.53,8.53s3.82,8.53,8.53,8.53h8.53c4.71,0,8.53-3.82,8.53-8.53
		S124.18,376.47,119.47,376.47z"/>
	<path d="M93.87,393.53c-4.71,0-8.53,3.82-8.53,8.53v8.53c0,4.71,3.82,8.53,8.53,8.53c4.71,0,8.53-3.82,8.53-8.53
		v-8.53C102.4,397.35,98.58,393.53,93.87,393.53z"/>
	<path d="M136.53,299.67c0,4.71,3.82,8.53,8.53,8.53c4.71,0,8.53-3.82,8.53-8.53v-8.53c0-4.71-3.82-8.53-8.53-8.53
		c-4.71,0-8.53,3.82-8.53,8.53V299.67z"/>
	<path d="M128,308.2h-8.53c-4.71,0-8.53,3.82-8.53,8.53c0,4.71,3.82,8.53,8.53,8.53H128c4.71,0,8.53-3.82,8.53-8.53
		C136.53,312.02,132.71,308.2,128,308.2z"/>
	<path d="M170.67,308.2h-8.53c-4.71,0-8.53,3.82-8.53,8.53c0,4.71,3.82,8.53,8.53,8.53h8.53
		c4.71,0,8.53-3.82,8.53-8.53C179.2,312.02,175.38,308.2,170.67,308.2z"/>
	<path d="M153.6,342.33v-8.53c0-4.71-3.82-8.53-8.53-8.53c-4.71,0-8.53,3.82-8.53,8.53v8.53
		c0,4.71,3.82,8.53,8.53,8.53C149.78,350.87,153.6,347.05,153.6,342.33z"/>
	<path d="M187.73,222.87c0,4.71,3.82,8.53,8.53,8.53s8.53-3.82,8.53-8.53v-8.53c0-4.71-3.82-8.53-8.53-8.53
		s-8.53,3.82-8.53,8.53V222.87z"/>
	<path d="M179.2,231.4h-8.53c-4.71,0-8.53,3.82-8.53,8.53c0,4.71,3.82,8.53,8.53,8.53h8.53
		c4.71,0,8.53-3.82,8.53-8.53C187.73,235.22,183.91,231.4,179.2,231.4z"/>
	<path d="M221.87,231.4h-8.53c-4.71,0-8.53,3.82-8.53,8.53c0,4.71,3.82,8.53,8.53,8.53h8.53
		c4.71,0,8.53-3.82,8.53-8.53C230.4,235.22,226.58,231.4,221.87,231.4z"/>
	<path d="M196.27,248.47c-4.71,0-8.53,3.82-8.53,8.53v8.53c0,4.71,3.82,8.53,8.53,8.53s8.53-3.82,8.53-8.53V257
		C204.8,252.29,200.98,248.47,196.27,248.47z"/>
</g>
</svg>
