<?xml version="1.0" encoding="utf-8"?>
<!-- Generator: Adobe Illustrator 24.1.3, SVG Export Plug-In . SVG Version: 6.00 Build 0)  -->
<svg version="1.1" xmlns="http://www.w3.org/2000/svg" xmlns:xlink="http://www.w3.org/1999/xlink" viewBox="0 0 512 512">
<g transform="translate(-1)">
	<path d="M513,103.68c-0.15-9.54-4.15-18.62-11.09-25.17c-3.66-3.31-5.82-7.96-5.97-12.89
		c0.18-4.93,2.33-9.59,5.97-12.92c10.03-9.27,13.58-23.62,9.01-36.49c-2.46-6.52-7.61-11.67-14.13-14.12
		c-12.87-4.56-27.21-1.02-36.48,9c-3.32,3.68-8,5.84-12.95,5.97c-4.94-0.13-9.6-2.29-12.89-5.97c-6.56-6.84-15.63-10.7-25.11-10.7
		s-18.54,3.87-25.11,10.7c-3.3,3.71-8.03,5.83-13,5.83c-4.97,0-9.7-2.12-13-5.83c-6.56-6.84-15.63-10.71-25.11-10.71
		c-9.48,0-18.55,3.87-25.11,10.71c-3.28,3.71-8,5.84-12.95,5.84s-9.67-2.13-12.95-5.84c-6.56-6.84-15.63-10.71-25.11-10.71
		c-9.48,0-18.55,3.87-25.11,10.71c-3.28,3.71-8,5.84-12.95,5.84s-9.67-2.13-12.95-5.84c-6.56-6.84-15.63-10.71-25.11-10.71
		c-9.48,0-18.55,3.87-25.11,10.71c-3.3,3.69-8.02,5.8-12.98,5.8c-4.95,0-9.68-2.11-12.98-5.8c-6.56-6.9-15.66-10.8-25.17-10.8
		s-18.62,3.9-25.17,10.8c-3.29,3.66-7.99,5.76-12.92,5.76c-4.93,0-9.62-2.09-12.92-5.76C44.42,1.07,30.08-2.49,17.21,2.07
		C10.68,4.54,5.52,9.71,3.06,16.26c-4.54,12.86-0.98,27.19,9.04,36.44c3.7,3.33,5.86,8.04,5.97,13.01
		c-0.13,4.94-2.29,9.6-5.97,12.89C5.04,85.04,1.02,94.15,1.02,103.71s4.02,18.67,11.08,25.11c3.68,3.35,5.83,8.04,5.97,13.01
		c-0.17,4.94-2.33,9.61-5.97,12.95c-7.06,6.44-11.08,15.55-11.08,25.11s4.02,18.67,11.08,25.11c3.67,3.33,5.82,8,5.97,12.95
		c-0.17,4.94-2.33,9.61-5.97,12.95C5.04,237.33,1.02,246.45,1.02,256c0,9.55,4.02,18.67,11.08,25.11c3.65,3.34,5.8,8.01,5.97,12.95
		c-0.15,4.95-2.31,9.63-5.97,12.95c-7.06,6.44-11.08,15.55-11.08,25.11s4.02,18.67,11.08,25.11c3.65,3.34,5.8,8.01,5.97,12.95
		c-0.15,4.96-2.3,9.64-5.97,12.97c-7.1,6.44-11.15,15.59-11.15,25.17c0,9.59,4.05,18.73,11.15,25.17
		c3.66,3.31,5.82,7.96,5.97,12.89c-0.18,4.93-2.33,9.59-5.97,12.92c-9.39,8.65-13.17,21.82-9.79,34.13
		c2.39,8.89,9.4,15.79,18.32,18.03c2.11,0.49,4.26,0.73,6.43,0.73c9.62-0.4,18.78-4.16,25.91-10.63c3.44-3.63,8.18-5.74,13.17-5.86
		c5-0.12,9.83,1.75,13.44,5.21c6.56,6.84,15.63,10.7,25.11,10.7s18.54-3.86,25.11-10.7c3.3-3.71,8.03-5.84,13-5.84
		c4.97,0,9.7,2.13,13,5.84c6.56,6.84,15.63,10.71,25.11,10.71c9.48,0,18.55-3.87,25.11-10.71c3.28-3.71,8-5.83,12.95-5.83
		s9.67,2.12,12.95,5.83c6.56,6.84,15.63,10.71,25.11,10.71c9.48,0,18.55-3.87,25.11-10.71c3.28-3.71,8-5.83,12.95-5.83
		c4.95,0,9.67,2.12,12.95,5.83c6.56,6.84,15.63,10.71,25.11,10.71s18.55-3.87,25.11-10.71c3.3-3.69,8.01-5.79,12.96-5.79
		s9.66,2.11,12.96,5.79c6.56,6.89,15.66,10.79,25.17,10.79s18.61-3.9,25.17-10.79c3.29-3.66,7.99-5.76,12.92-5.76
		c4.93,0,9.62,2.09,12.92,5.76c9.26,10.03,23.6,13.58,36.46,9.03c6.53-2.47,11.68-7.62,14.16-14.15
		c4.54-12.86,0.98-27.19-9.05-36.44c-3.77-3.24-5.94-7.97-5.94-12.94c0-4.97,2.17-9.7,5.94-12.94
		c7.06-6.44,11.08-15.55,11.08-25.11c0-9.55-4.02-18.67-11.08-25.11c-3.81-3.24-6-7.99-6-13s2.2-9.75,6-13
		c7.06-6.44,11.08-15.55,11.08-25.11s-4.02-18.67-11.08-25.11c-3.68-3.34-5.83-8.03-5.96-13c0.17-4.94,2.33-9.61,5.97-12.95
		c7.06-6.44,11.08-15.55,11.08-25.11s-4.02-18.67-11.08-25.11c-3.65-3.34-5.8-8.01-5.97-12.95c0.15-4.95,2.31-9.63,5.97-12.95
		c7.06-6.44,11.08-15.55,11.08-25.11s-4.02-18.67-11.08-25.11c-3.65-3.34-5.8-8.01-5.97-12.95c0.14-4.96,2.3-9.65,5.97-12.99
		C508.88,122.32,512.89,113.23,513,103.68L513,103.68z M489.96,116.63c-7.06,6.47-11.08,15.6-11.08,25.17
		c0,9.57,4.02,18.71,11.08,25.17c3.66,3.31,5.82,7.97,5.97,12.91c-0.17,4.94-2.33,9.61-5.97,12.95
		c-7.06,6.44-11.08,15.55-11.08,25.11c0,9.55,4.02,18.67,11.08,25.11c3.8,3.23,5.99,7.97,5.99,12.95c0,4.99-2.19,9.72-5.99,12.95
		c-7.06,6.44-11.08,15.55-11.08,25.11s4.02,18.67,11.08,25.11c3.65,3.34,5.8,8.01,5.97,12.95c-0.15,4.95-2.31,9.63-5.97,12.95
		c-7.05,6.47-11.07,15.61-11.06,25.18s4.04,18.7,11.11,25.16c3.64,3.32,5.78,7.98,5.92,12.9c-0.18,4.93-2.33,9.58-5.97,12.9
		c-7.07,6.45-11.1,15.57-11.1,25.14s4.03,18.7,11.1,25.14c5.25,4.51,7.22,11.77,4.97,18.31c-0.72,1.89-2.22,3.39-4.1,4.11
		c-6.56,2.25-13.83,0.27-18.35-4.99c-6.56-6.84-15.63-10.7-25.11-10.7s-18.54,3.87-25.11,10.7c-3.29,3.69-8,5.81-12.95,5.81
		s-9.66-2.11-12.95-5.81c-6.57-6.85-15.66-10.72-25.15-10.72c-9.49,0-18.58,3.87-25.15,10.72c-3.28,3.71-8,5.84-12.95,5.84
		s-9.67-2.13-12.95-5.84c-6.56-6.84-15.63-10.71-25.11-10.71s-18.55,3.87-25.11,10.71c-3.29,3.69-8.01,5.8-12.95,5.8
		c-4.95,0-9.66-2.11-12.95-5.8c-6.56-6.84-15.63-10.71-25.11-10.71c-9.48,0-18.55,3.87-25.11,10.71c-3.28,3.71-8,5.84-12.95,5.84
		c-4.95,0-9.67-2.13-12.95-5.84c-6.58-6.86-15.68-10.73-25.18-10.72s-18.6,3.9-25.16,10.78c-3.3,3.65-7.98,5.73-12.9,5.73
		c-4.92,0-9.61-2.08-12.9-5.73c-13.5-13.92-32.96-14.18-49.57-0.68c-4.63,4.73-11.13,7.13-17.72,6.53
		c-2.88-0.86-5.08-3.2-5.77-6.13c-1.64-6.29,0.43-12.96,5.32-17.23c6.93-6.53,10.93-15.58,11.09-25.11
		c-0.12-9.53-4.13-18.6-11.09-25.11c-3.65-3.34-5.8-8.01-5.97-12.95c0.14-4.95,2.3-9.62,5.97-12.95
		c6.94-6.56,10.94-15.65,11.09-25.2c-0.16-9.52-4.16-18.57-11.09-25.11c-3.67-3.33-5.82-8-5.97-12.95
		c0.17-4.95,2.32-9.62,5.97-12.97c6.93-6.53,10.93-15.57,11.09-25.09c-0.16-9.52-4.16-18.57-11.09-25.11
		c-3.8-3.23-5.99-7.97-5.99-12.95c0-4.99,2.19-9.72,5.99-12.95c6.93-6.53,10.93-15.58,11.09-25.11
		c-0.17-9.52-4.17-18.56-11.09-25.09c-3.65-3.35-5.8-8.02-5.97-12.97c0.15-4.95,2.3-9.62,5.97-12.95
		c6.93-6.53,10.93-15.59,11.09-25.11c-0.14-9.57-4.14-18.67-11.09-25.24c-3.66-3.31-5.82-7.97-5.97-12.9
		c0.18-4.93,2.33-9.58,5.97-12.9c6.95-6.5,10.96-15.55,11.09-25.07c-0.11-9.56-4.12-18.67-11.09-25.22
		c-5.25-4.51-7.22-11.76-4.97-18.3c0.73-1.9,2.22-3.4,4.12-4.12c1.73-0.65,3.57-0.99,5.42-1c4.94,0.15,9.6,2.31,12.91,5.97
		c6.56,6.84,15.63,10.71,25.11,10.71s18.55-3.87,25.11-10.71c3.29-3.69,8-5.81,12.95-5.81s9.66,2.11,12.95,5.81
		c6.58,6.86,15.67,10.73,25.17,10.73c9.5,0,18.59-3.88,25.17-10.73c3.28-3.71,8-5.83,12.95-5.83s9.67,2.12,12.95,5.83
		c6.56,6.84,15.63,10.71,25.11,10.71c9.48,0,18.55-3.87,25.11-10.71c3.29-3.69,8.01-5.8,12.95-5.8c4.95,0,9.66,2.11,12.95,5.8
		c6.56,6.84,15.63,10.71,25.11,10.71c9.48,0,18.55-3.87,25.11-10.71c3.28-3.71,8-5.83,12.95-5.83s9.67,2.12,12.95,5.83
		c6.58,6.86,15.68,10.73,25.18,10.72c9.51-0.01,18.6-3.9,25.16-10.78c3.29-3.65,7.98-5.74,12.9-5.74s9.61,2.09,12.9,5.74
		c6.48,6.96,15.52,10.99,25.04,11.14h0.07c9.55-0.13,18.63-4.13,25.16-11.09c4.5-5.25,11.75-7.21,18.29-4.95
		c1.87,0.72,3.35,2.19,4.06,4.06c2.3,6.55,0.35,13.84-4.92,18.36c-6.93,6.53-10.93,15.58-11.09,25.11
		c0.12,9.53,4.13,18.6,11.09,25.11c3.65,3.34,5.8,8.01,5.97,12.95C495.79,108.63,493.63,113.3,489.96,116.63L489.96,116.63z"/>
	<path d="M103.4,93.87c4.71,0,8.53-3.82,8.53-8.53V68.27c0-4.71-3.82-8.53-8.53-8.53c-4.71,0-8.53,3.82-8.53,8.53
		v17.07C94.87,90.05,98.69,93.87,103.4,93.87z"/>
	<path d="M120.47,110.93h17.07c4.71,0,8.53-3.82,8.53-8.53c0-4.71-3.82-8.53-8.53-8.53h-17.07
		c-4.71,0-8.53,3.82-8.53,8.53C111.93,107.11,115.75,110.93,120.47,110.93z"/>
	<path d="M103.4,145.07c4.71,0,8.53-3.82,8.53-8.53v-17.07c0-4.71-3.82-8.53-8.53-8.53c-4.71,0-8.53,3.82-8.53,8.53
		v17.07C94.87,141.25,98.69,145.07,103.4,145.07z"/>
	<path d="M69.27,110.93h17.07c4.71,0,8.53-3.82,8.53-8.53c0-4.71-3.82-8.53-8.53-8.53H69.27
		c-4.71,0-8.53,3.82-8.53,8.53C60.73,107.11,64.55,110.93,69.27,110.93z"/>
	<path d="M257,93.87c4.71,0,8.53-3.82,8.53-8.53V68.27c0-4.71-3.82-8.53-8.53-8.53c-4.71,0-8.53,3.82-8.53,8.53
		v17.07C248.47,90.05,252.29,93.87,257,93.87z"/>
	<path d="M274.07,110.93h17.07c4.71,0,8.53-3.82,8.53-8.53c0-4.71-3.82-8.53-8.53-8.53h-17.07
		c-4.71,0-8.53,3.82-8.53,8.53C265.53,107.11,269.35,110.93,274.07,110.93z"/>
	<path d="M257,145.07c4.71,0,8.53-3.82,8.53-8.53v-17.07c0-4.71-3.82-8.53-8.53-8.53c-4.71,0-8.53,3.82-8.53,8.53
		v17.07C248.47,141.25,252.29,145.07,257,145.07z"/>
	<path d="M222.87,110.93h17.07c4.71,0,8.53-3.82,8.53-8.53c0-4.71-3.82-8.53-8.53-8.53h-17.07
		c-4.71,0-8.53,3.82-8.53,8.53C214.33,107.11,218.15,110.93,222.87,110.93z"/>
	<path d="M410.6,93.87c4.71,0,8.53-3.82,8.53-8.53V68.27c0-4.71-3.82-8.53-8.53-8.53c-4.71,0-8.53,3.82-8.53,8.53
		v17.07C402.07,90.05,405.89,93.87,410.6,93.87z"/>
	<path d="M444.73,93.87h-17.07c-4.71,0-8.53,3.82-8.53,8.53c0,4.71,3.82,8.53,8.53,8.53h17.07
		c4.71,0,8.53-3.82,8.53-8.53C453.27,97.69,449.45,93.87,444.73,93.87z"/>
	<path d="M419.13,119.47c0-4.71-3.82-8.53-8.53-8.53c-4.71,0-8.53,3.82-8.53,8.53v17.07c0,4.71,3.82,8.53,8.53,8.53
		c4.71,0,8.53-3.82,8.53-8.53V119.47z"/>
	<path d="M376.47,110.93h17.07c4.71,0,8.53-3.82,8.53-8.53c0-4.71-3.82-8.53-8.53-8.53h-17.07
		c-4.71,0-8.53,3.82-8.53,8.53C367.93,107.11,371.75,110.93,376.47,110.93z"/>
	<path d="M111.93,221.87c0-4.71-3.82-8.53-8.53-8.53c-4.71,0-8.53,3.82-8.53,8.53v17.07c0,4.71,3.82,8.53,8.53,8.53
		c4.71,0,8.53-3.82,8.53-8.53V221.87z"/>
	<path d="M120.47,264.53h17.07c4.71,0,8.53-3.82,8.53-8.53c0-4.71-3.82-8.53-8.53-8.53h-17.07
		c-4.71,0-8.53,3.82-8.53,8.53C111.93,260.71,115.75,264.53,120.47,264.53z"/>
	<path d="M111.93,273.07c0-4.71-3.82-8.53-8.53-8.53c-4.71,0-8.53,3.82-8.53,8.53v17.07c0,4.71,3.82,8.53,8.53,8.53
		c4.71,0,8.53-3.82,8.53-8.53V273.07z"/>
	<path d="M69.27,264.53h17.07c4.71,0,8.53-3.82,8.53-8.53c0-4.71-3.82-8.53-8.53-8.53H69.27
		c-4.71,0-8.53,3.82-8.53,8.53C60.73,260.71,64.55,264.53,69.27,264.53z"/>
	<path d="M265.53,221.87c0-4.71-3.82-8.53-8.53-8.53c-4.71,0-8.53,3.82-8.53,8.53v17.07c0,4.71,3.82,8.53,8.53,8.53
		c4.71,0,8.53-3.82,8.53-8.53V221.87z"/>
	<path d="M274.07,264.53h17.07c4.71,0,8.53-3.82,8.53-8.53c0-4.71-3.82-8.53-8.53-8.53h-17.07
		c-4.71,0-8.53,3.82-8.53,8.53C265.53,260.71,269.35,264.53,274.07,264.53z"/>
	<path d="M265.53,273.07c0-4.71-3.82-8.53-8.53-8.53c-4.71,0-8.53,3.82-8.53,8.53v17.07c0,4.71,3.82,8.53,8.53,8.53
		c4.71,0,8.53-3.82,8.53-8.53V273.07z"/>
	<path d="M239.93,247.47h-17.07c-4.71,0-8.53,3.82-8.53,8.53c0,4.71,3.82,8.53,8.53,8.53h17.07
		c4.71,0,8.53-3.82,8.53-8.53C248.47,251.29,244.65,247.47,239.93,247.47z"/>
	<path d="M419.13,221.87c0-4.71-3.82-8.53-8.53-8.53c-4.71,0-8.53,3.82-8.53,8.53v17.07c0,4.71,3.82,8.53,8.53,8.53
		c4.71,0,8.53-3.82,8.53-8.53V221.87z"/>
	<path d="M444.73,247.47h-17.07c-4.71,0-8.53,3.82-8.53,8.53c0,4.71,3.82,8.53,8.53,8.53h17.07
		c4.71,0,8.53-3.82,8.53-8.53C453.27,251.29,449.45,247.47,444.73,247.47z"/>
	<path d="M419.13,273.07c0-4.71-3.82-8.53-8.53-8.53c-4.71,0-8.53,3.82-8.53,8.53v17.07c0,4.71,3.82,8.53,8.53,8.53
		c4.71,0,8.53-3.82,8.53-8.53V273.07z"/>
	<path d="M393.53,247.47h-17.07c-4.71,0-8.53,3.82-8.53,8.53c0,4.71,3.82,8.53,8.53,8.53h17.07
		c4.71,0,8.53-3.82,8.53-8.53C402.07,251.29,398.25,247.47,393.53,247.47z"/>
	<path d="M103.4,366.93c-4.71,0-8.53,3.82-8.53,8.53v17.07c0,4.71,3.82,8.53,8.53,8.53c4.71,0,8.53-3.82,8.53-8.53
		v-17.07C111.93,370.75,108.11,366.93,103.4,366.93z"/>
	<path d="M137.53,401.07h-17.07c-4.71,0-8.53,3.82-8.53,8.53c0,4.71,3.82,8.53,8.53,8.53h17.07
		c4.71,0,8.53-3.82,8.53-8.53C146.07,404.89,142.25,401.07,137.53,401.07z"/>
	<path d="M103.4,418.13c-4.71,0-8.53,3.82-8.53,8.53v17.07c0,4.71,3.82,8.53,8.53,8.53c4.71,0,8.53-3.82,8.53-8.53
		v-17.07C111.93,421.95,108.11,418.13,103.4,418.13z"/>
	<path d="M86.33,401.07H69.27c-4.71,0-8.53,3.82-8.53,8.53c0,4.71,3.82,8.53,8.53,8.53h17.07
		c4.71,0,8.53-3.82,8.53-8.53C94.87,404.89,91.05,401.07,86.33,401.07z"/>
	<path d="M257,401.07c4.71,0,8.53-3.82,8.53-8.53v-17.07c0-4.71-3.82-8.53-8.53-8.53c-4.71,0-8.53,3.82-8.53,8.53
		v17.07C248.47,397.25,252.29,401.07,257,401.07z"/>
	<path d="M291.13,401.07h-17.07c-4.71,0-8.53,3.82-8.53,8.53c0,4.71,3.82,8.53,8.53,8.53h17.07
		c4.71,0,8.53-3.82,8.53-8.53C299.67,404.89,295.85,401.07,291.13,401.07z"/>
	<path d="M257,418.13c-4.71,0-8.53,3.82-8.53,8.53v17.07c0,4.71,3.82,8.53,8.53,8.53c4.71,0,8.53-3.82,8.53-8.53
		v-17.07C265.53,421.95,261.71,418.13,257,418.13z"/>
	<path d="M239.93,401.07h-17.07c-4.71,0-8.53,3.82-8.53,8.53c0,4.71,3.82,8.53,8.53,8.53h17.07
		c4.71,0,8.53-3.82,8.53-8.53C248.47,404.89,244.65,401.07,239.93,401.07z"/>
	<path d="M180.2,290.13c-4.71,0-8.53,3.82-8.53,8.53v17.07c0,4.71,3.82,8.53,8.53,8.53s8.53-3.82,8.53-8.53v-17.07
		C188.73,293.95,184.91,290.13,180.2,290.13z"/>
	<path d="M222.87,332.8c0-4.71-3.82-8.53-8.53-8.53h-17.07c-4.71,0-8.53,3.82-8.53,8.53s3.82,8.53,8.53,8.53h17.07
		C219.05,341.33,222.87,337.51,222.87,332.8z"/>
	<path d="M180.2,341.33c-4.71,0-8.53,3.82-8.53,8.53v17.07c0,4.71,3.82,8.53,8.53,8.53s8.53-3.82,8.53-8.53v-17.07
		C188.73,345.15,184.91,341.33,180.2,341.33z"/>
	<path d="M163.13,324.27h-17.07c-4.71,0-8.53,3.82-8.53,8.53s3.82,8.53,8.53,8.53h17.07c4.71,0,8.53-3.82,8.53-8.53
		S167.85,324.27,163.13,324.27z"/>
	<path d="M333.8,290.13c-4.71,0-8.53,3.82-8.53,8.53v17.07c0,4.71,3.82,8.53,8.53,8.53s8.53-3.82,8.53-8.53v-17.07
		C342.33,293.95,338.51,290.13,333.8,290.13z"/>
	<path d="M376.47,332.8c0-4.71-3.82-8.53-8.53-8.53h-17.07c-4.71,0-8.53,3.82-8.53,8.53s3.82,8.53,8.53,8.53h17.07
		C372.65,341.33,376.47,337.51,376.47,332.8z"/>
	<path d="M333.8,341.33c-4.71,0-8.53,3.82-8.53,8.53v17.07c0,4.71,3.82,8.53,8.53,8.53s8.53-3.82,8.53-8.53v-17.07
		C342.33,345.15,338.51,341.33,333.8,341.33z"/>
	<path d="M316.73,324.27h-17.07c-4.71,0-8.53,3.82-8.53,8.53s3.82,8.53,8.53,8.53h17.07c4.71,0,8.53-3.82,8.53-8.53
		S321.45,324.27,316.73,324.27z"/>
	<path d="M180.2,170.67c4.71,0,8.53-3.82,8.53-8.53v-17.07c0-4.71-3.82-8.53-8.53-8.53s-8.53,3.82-8.53,8.53v17.07
		C171.67,166.85,175.49,170.67,180.2,170.67z"/>
	<path d="M197.27,187.73h17.07c4.71,0,8.53-3.82,8.53-8.53s-3.82-8.53-8.53-8.53h-17.07
		c-4.71,0-8.53,3.82-8.53,8.53S192.55,187.73,197.27,187.73z"/>
	<path d="M188.73,196.27c0-4.71-3.82-8.53-8.53-8.53s-8.53,3.82-8.53,8.53v17.07c0,4.71,3.82,8.53,8.53,8.53
		s8.53-3.82,8.53-8.53V196.27z"/>
	<path d="M137.53,179.2c0,4.71,3.82,8.53,8.53,8.53h17.07c4.71,0,8.53-3.82,8.53-8.53s-3.82-8.53-8.53-8.53h-17.07
		C141.35,170.67,137.53,174.49,137.53,179.2z"/>
	<path d="M333.8,170.67c4.71,0,8.53-3.82,8.53-8.53v-17.07c0-4.71-3.82-8.53-8.53-8.53s-8.53,3.82-8.53,8.53v17.07
		C325.27,166.85,329.09,170.67,333.8,170.67z"/>
	<path d="M350.87,187.73h17.07c4.71,0,8.53-3.82,8.53-8.53s-3.82-8.53-8.53-8.53h-17.07
		c-4.71,0-8.53,3.82-8.53,8.53S346.15,187.73,350.87,187.73z"/>
	<path d="M342.33,196.27c0-4.71-3.82-8.53-8.53-8.53s-8.53,3.82-8.53,8.53v17.07c0,4.71,3.82,8.53,8.53,8.53
		s8.53-3.82,8.53-8.53V196.27z"/>
	<path d="M291.13,179.2c0,4.71,3.82,8.53,8.53,8.53h17.07c4.71,0,8.53-3.82,8.53-8.53s-3.82-8.53-8.53-8.53h-17.07
		C294.95,170.67,291.13,174.49,291.13,179.2z"/>
	<path d="M410.6,401.07c4.71,0,8.53-3.82,8.53-8.53v-17.07c0-4.71-3.82-8.53-8.53-8.53c-4.71,0-8.53,3.82-8.53,8.53
		v17.07C402.07,397.25,405.89,401.07,410.6,401.07z"/>
	<path d="M444.73,401.07h-17.07c-4.71,0-8.53,3.82-8.53,8.53c0,4.71,3.82,8.53,8.53,8.53h17.07
		c4.71,0,8.53-3.82,8.53-8.53C453.27,404.89,449.45,401.07,444.73,401.07z"/>
	<path d="M410.6,418.13c-4.71,0-8.53,3.82-8.53,8.53v17.07c0,4.71,3.82,8.53,8.53,8.53c4.71,0,8.53-3.82,8.53-8.53
		v-17.07C419.13,421.95,415.31,418.13,410.6,418.13z"/>
	<path d="M393.53,401.07h-17.07c-4.71,0-8.53,3.82-8.53,8.53c0,4.71,3.82,8.53,8.53,8.53h17.07
		c4.71,0,8.53-3.82,8.53-8.53C402.07,404.89,398.25,401.07,393.53,401.07z"/>
</g>
</svg>
