<?xml version="1.0" encoding="utf-8"?>
<!-- Generator: Adobe Illustrator 23.0.1, SVG Export Plug-In . SVG Version: 6.00 Build 0)  -->
<svg version="1.1" id="Capa_1" xmlns="http://www.w3.org/2000/svg" xmlns:xlink="http://www.w3.org/1999/xlink" x="0px" y="0px"
	 viewBox="0 0 512 512" style="enable-background:new 0 0 512 512;" xml:space="preserve">
<path d="M101.1,363.6H44.7c0,0-28.7,0-28.7,43.7c1.4,28.2,23.4,32.8,27.4,32.8s114.8,0,114.8,0s28.8,0,30-34.5
	c0.1-1.3,0.2,0,0.2-1.4c0.1-5.1,0-31.4,0-31.4c0.1-3.8,2.9-8,6.7-8h89.9c1.3,0,2.4,1,2.6,2.3l21.3,48.1c8,19.7,23.3,34,49.1,24.8
	c24.4-8.8,25.6-28.1,21.4-41.6l-52.9-160.1c-8-18.9-27.9-30-53.1-30h-53.8h-70.1c-67,0-123.3,78.1-47.2,153.2
	C103.1,362.7,102.4,363.6,101.1,363.6z"/>
<circle cx="412.8" cy="177.9" r="83.2"/>
</svg>
