<?xml version="1.0" encoding="utf-8"?>
<!-- Generator: Adobe Illustrator 23.0.1, SVG Export Plug-In . SVG Version: 6.00 Build 0)  -->
<svg version="1.1" id="Capa_1" xmlns="http://www.w3.org/2000/svg" xmlns:xlink="http://www.w3.org/1999/xlink" x="0px" y="0px"
	 viewBox="0 0 1024 1024" style="enable-background:new 0 0 1024 1024;" xml:space="preserve">
	<path d="M363.7,991.5v-42.7h55.9c18,0,32.5-14.5,32.5-32.5v-43.4c0-18-14.5-32.5-32.5-32.5h-55.9v-68.5
		c39.5-7.2,76.9-22.1,110.3-44.3c-39.4-15.4-75.6-38.3-107.1-68.2c-18.9,6-39.1,9.1-60,8.8c-103.3-1.3-187.5-85.4-188.9-188.7
		c-1.4-100.9,75.8-184.4,174.2-193.2c16.3-36.7,39.4-70.4,68.6-99.7c1.5-1.5,3-2.9,4.4-4.3c-18.2-3.5-37-5.2-56-5.2
		c-80.1,0-155.4,31.1-212,87.8C41.8,320.5,10.8,394.1,9.7,472.6c-1.1,80.3,30.2,158,86.6,215c43.8,44.3,98.9,73.2,158.9,84.2v68.5
		h-55.9c-18,0-32.5,14.5-32.5,32.5v43.4c0,18,14.5,32.5,32.5,32.5h55.9v42.7c0,18,14.5,32.5,32.5,32.5h43.4
		C349.1,1024,363.7,1009.5,363.7,991.5z"/>
	<path d="M491.2,317.1c-12.8,12.8-22.9,27.6-30.1,43.5c24.7,32.2,39.5,72.6,39.5,116.3c0,16.9-2.3,33.4-6.4,49
		c27.1,25.6,62.4,39.7,99.9,39.7c0.5,0,1.2,0,1.7,0c8.8-28.3,13.3-58.1,13.3-88.7c0-70.9-24.5-138.2-69.5-191.9
		C521.8,292.2,505.3,303,491.2,317.1z"/>
	<path d="M791.2,108.5h37.9l-70.2,70.2c-48.2-33-105-50.8-164.6-50.8c-68.2,0-133,23.2-185.1,66.1c-7.4,6.1-14.6,12.6-21.5,19.5
		c-21.9,21.9-39.9,46.8-53.7,73.7c-20.8,40.7-31.9,85.9-31.9,132.9c0,78,30.4,151.3,85.6,206.6c5.6,5.6,11.4,11,17.4,15.9
		c30.9,26.4,66.6,45.8,104.9,57.3c27,8.1,55.3,12.3,84.3,12.3c78,0,151.3-30.4,206.6-85.6c55.1-55.1,85.6-128.6,85.6-206.6
		c0-59.6-17.8-116.5-50.8-164.6l70.2-70.2V223c0,18,14.5,32.5,32.5,32.5h43.4c18,0,32.5-14.5,32.5-32.5V54.2v-0.1
		c0-14.1-5.7-28.1-15.7-38.2C988.6,6,974.7,0,960.5,0c-0.1,0-0.2,0-0.3,0h-169c-18,0-32.5,14.5-32.5,32.5v43.4
		C758.7,93.9,773.2,108.5,791.2,108.5z M724.1,549.8c-34.7,34.7-80.8,53.8-129.9,53.8c-4.2,0-8.5-0.1-12.7-0.4
		c-37.3-2.5-72.5-16.3-101.5-39.5c-5.4-4.3-10.5-8.9-15.5-13.9c-59.1-59.1-69.4-148.7-30.9-218.5c8.1-14.8,18.4-28.6,30.9-41.1
		c14.1-14.1,30.2-25.7,47.5-34.4c25.2-12.7,53.3-19.4,82.2-19.4c49,0,95.1,19.1,129.9,53.8C795.7,361.8,795.7,478.3,724.1,549.8z"/>
</svg>
