<?xml version="1.0" encoding="utf-8"?>
<!-- Generator: Adobe Illustrator 23.0.1, SVG Export Plug-In . SVG Version: 6.00 Build 0)  -->
<svg version="1.1" id="Layer_1" xmlns="http://www.w3.org/2000/svg" xmlns:xlink="http://www.w3.org/1999/xlink" x="0px" y="0px"
	 viewBox="0 0 512 512" style="enable-background:new 0 0 512 512;" xml:space="preserve">
<path id="XMLID_491_" d="M439.8,183.8C439.8,82.5,357.4,0,256,0S72.2,82.5,72.2,183.8c0,92.4,68.5,169.1,157.4,181.9l0,34.4H197
	c-14.6,0-26.4,11.8-26.4,26.4c0,14.6,11.8,26.4,26.4,26.4h32.6l0,32.6c0,14.6,11.8,26.4,26.4,26.4c14.6,0,26.4-11.8,26.4-26.4
	l0-32.6H315c14.6,0,26.4-11.8,26.4-26.4c0-14.6-11.8-26.4-26.4-26.4h-32.6l0-34.4C371.3,352.9,439.8,276.2,439.8,183.8z M125,183.8
	c0-72.2,58.7-131,131-131s131,58.7,131,131c0,72.2-58.7,131-131,131S125,256,125,183.8z"/>
</svg>
