<?xml version="1.0" encoding="utf-8"?>
<!-- Generator: Adobe Illustrator 23.0.1, SVG Export Plug-In . SVG Version: 6.00 Build 0)  -->
<svg version="1.1" id="Layer_1" xmlns="http://www.w3.org/2000/svg" xmlns:xlink="http://www.w3.org/1999/xlink" x="0px" y="0px"
	 viewBox="0 0 256 256" style="enable-background:new 0 0 256 256;" xml:space="preserve">
<path id="XMLID_488_" d="M248,34.1c0-0.2-0.1-0.4-0.1-0.6c0-0.2-0.1-0.5-0.1-0.7c0-0.2-0.1-0.4-0.2-0.7c-0.1-0.2-0.1-0.4-0.2-0.6
	c-0.1-0.2-0.1-0.4-0.2-0.6c-0.1-0.2-0.1-0.4-0.2-0.6c-0.1-0.2-0.2-0.4-0.3-0.6c-0.1-0.2-0.2-0.4-0.3-0.6c-0.1-0.2-0.2-0.4-0.3-0.6
	c-0.1-0.2-0.2-0.4-0.3-0.6c-0.1-0.2-0.3-0.4-0.4-0.6c-0.1-0.1-0.2-0.3-0.3-0.4c-0.6-0.7-1.2-1.3-1.9-1.9c-0.1-0.1-0.3-0.2-0.4-0.3
	c-0.2-0.2-0.4-0.3-0.6-0.5c-0.2-0.1-0.4-0.2-0.5-0.3c-0.2-0.1-0.4-0.2-0.6-0.3c-0.2-0.1-0.4-0.2-0.6-0.3c-0.2-0.1-0.4-0.2-0.6-0.3
	c-0.2-0.1-0.4-0.1-0.5-0.2c-0.2-0.1-0.4-0.2-0.7-0.2c-0.2-0.1-0.4-0.1-0.5-0.1c-0.2-0.1-0.5-0.1-0.7-0.2c-0.2,0-0.4-0.1-0.6-0.1
	c-0.2,0-0.4-0.1-0.7-0.1c-0.3,0-0.7,0-1-0.1c-0.1,0-0.2,0-0.3,0h-41.7c-7.3,0-13.2,5.9-13.2,13.2s5.9,13.2,13.2,13.2h9.8l-19.9,19.9
	c-15.4-11.6-34.5-18.4-55.1-18.4c-50.7,0-91.9,41.2-91.9,91.9s41.2,91.9,91.9,91.9c50.7,0,91.9-41.2,91.9-91.9
	c0-20.5-6.7-39.4-18.1-54.7l20-20v9.8c0,7.3,5.9,13.2,13.2,13.2s13.2-5.9,13.2-13.2V35.4C248.1,35,248.1,34.5,248,34.1z M128,207.4
	c-36.1,0-65.4-29.4-65.4-65.4S91.9,76.5,128,76.5c36.1,0,65.4,29.4,65.4,65.4S164,207.4,128,207.4z"/>
</svg>
