<?xml version="1.0" encoding="utf-8"?>
<!-- Generator: Adobe Illustrator 23.0.1, SVG Export Plug-In . SVG Version: 6.00 Build 0)  -->
<svg version="1.1" id="Ballet_falts" xmlns="http://www.w3.org/2000/svg" xmlns:xlink="http://www.w3.org/1999/xlink" x="0px"
	 y="0px" viewBox="0 0 100 100" style="enable-background:new 0 0 100 100;" xml:space="preserve">
<g>
	<path d="M30.95,62.42c-0.02,0.52-0.05,1.01-0.07,1.57c-5.56,0-11.08,0-16.58,0c-0.04-0.09-0.1-0.15-0.09-0.21
		c0.23-1.83-0.4-3.2-1.4-4.59c-2.42-3.37-2.76-7.38-1.96-11.53c0.51-2.64,1.32-5.2,1.93-7.82c0.25-1.06,0.74-0.94,1.39-0.65
		c3.56,1.57,7.11,3.2,10.7,4.68c6.75,2.78,13.5,5.61,20.54,7.22c3.42,0.78,6.91,1.13,10.38,1.62c0.27,0.04,0.68-0.27,0.86-0.56
		c1.94-3.2,3.21-6.72,3.5-10.75c1.56-0.41,3.04-0.35,4.42,0.55c0.26,0.17,0.48,0.65,0.53,1.02c0.46,3.29,0.05,6.48-0.98,9.58
		c3.82,0.38,6.98-1,8.32-4.78c0.09-0.25,0.54-0.55,0.74-0.49c5.53,1.72,11.08,3.42,16.31,6.21c1.47,0.78,1.94,2.83,1.03,4.38
		c-0.12,0.2-0.35,0.32-0.56,0.42c-10.19,5.04-20.79,7.14-31.82,6.14c-7.54-0.68-15.09-1.37-22.63-2.01
		C34.05,62.32,32.55,62.42,30.95,62.42z"/>
</g>
</svg>
