<?xml version="1.0" encoding="utf-8"?>
<!-- Generator: Adobe Illustrator 23.0.1, SVG Export Plug-In . SVG Version: 6.00 Build 0)  -->
<svg version="1.1" id="Boots" xmlns="http://www.w3.org/2000/svg" xmlns:xlink="http://www.w3.org/1999/xlink" x="0px" y="0px"
	 viewBox="0 0 100 100" style="enable-background:new 0 0 100 100;" xml:space="preserve">
<g>
	<path d="M20.07,24.22c4.08,0,8.15,0,12.23,0c0.29,0,0.58-0.02,0.86,0.03c0.68,0.12,1.1,0.54,1.12,1.24
		c0.03,0.75-0.39,1.2-1.12,1.34c-0.31,0.06-0.64,0.04-0.96,0.04c-4.04,0-8.09,0-12.13,0.01c-0.37,0-0.74,0.05-1.14,0.07
		c0,5.1,0,10.1,0,15.26c0.49,0,0.9-0.01,1.31,0c8.94,0.31,15.63,4.35,19.76,12.29c1.23,2.36,1.87,5.04,2.72,7.59
		c0.25,0.75,0.59,1.26,1.3,1.64c2.25,1.22,4.45,2.54,6.7,3.79c0.4,0.22,0.9,0.35,1.35,0.35c3.02,0.03,6.03,0.02,9.05,0.02
		c1.64,0,1.34,0.05,1.37-1.31c0.07-3.1,2.12-5.62,5.12-6.27c0.59-0.13,1.21-0.11,1.82-0.19c2.39-0.35,3.82-2.6,3.22-4.76
		c-2.39-0.34-4.73-0.51-7-1.03c-10.51-2.41-18.27-11.97-18.53-22.75c-0.09-3.5-0.03-6.99-0.04-10.49c-0.01-1.61-0.31-1.91-1.92-1.91
		c-8.05,0-16.11,0-24.16,0c-0.32,0-0.71-0.1-0.95,0.04c-0.42,0.26-1.03,0.64-1.07,1.02c-0.13,1.29-0.05,2.6-0.05,3.99
		C19.37,24.22,19.72,24.22,20.07,24.22z"/>
	<path d="M84.49,65.41c-3.99,1.59-7.97,3.19-11.97,4.76c-0.49,0.19-1.05,0.31-1.58,0.31c-6.48,0.02-12.96,0.03-19.44-0.01
		c-0.57,0-1.21-0.19-1.71-0.47c-2.5-1.38-4.96-2.83-7.45-4.21c-0.45-0.25-1.02-0.41-1.53-0.41c-7.73-0.03-15.46-0.02-23.19-0.01
		c-0.4,0-0.8,0.04-1.25,0.07c0,3.03-0.02,5.95,0.01,8.86c0.01,0.92,0.61,1.28,1.47,1.28c6.67,0,13.34,0.01,20.02,0
		c1.07,0,1.5-0.46,1.52-1.54c0.02-0.86,0-1.72,0-2.77c0.49,0.22,0.81,0.35,1.12,0.51c2.24,1.11,4.46,2.26,6.72,3.33
		c0.58,0.28,1.27,0.46,1.92,0.46c7.96,0.03,15.91-0.03,23.87,0.04c3.67,0.03,6.68-1.36,9.28-3.78c1.91-1.79,2.95-4.05,3.21-6.79
		C85.08,65.19,84.79,65.3,84.49,65.41z"/>
	<path d="M39.13,59.37c-0.82-2.84-2.09-5.45-4.04-7.68c-4.32-4.92-9.83-7.1-16.33-6.83c-0.32,0.01-0.81,0.42-0.91,0.74
		c-0.71,2.32-1.5,4.63-1.95,7.01c-0.64,3.32-0.5,6.69,0.16,10.05c8.08,0,16.04,0,24.09,0C39.79,61.5,39.44,60.44,39.13,59.37z"/>
	<path d="M65.2,67.88c1.51,0,3.05,0.06,4.57-0.02c0.91-0.05,1.85-0.19,2.69-0.51c4.01-1.55,7.97-3.2,11.98-4.74
		c0.87-0.33,0.92-0.71,0.65-1.49c-1.41-3.98-5.32-6.43-9.73-5.94c0,0.49,0.02,0.99,0,1.5c-0.16,3.28-2.79,5.93-6.06,6.11
		C66.27,62.95,64.83,64.68,65.2,67.88z"/>
</g>
</svg>
