<?xml version="1.0" encoding="utf-8"?>
<!-- Generator: Adobe Illustrator 23.0.1, SVG Export Plug-In . SVG Version: 6.00 Build 0)  -->
<svg version="1.1" id="Flip_flops" xmlns="http://www.w3.org/2000/svg" xmlns:xlink="http://www.w3.org/1999/xlink" x="0px" y="0px"
	 viewBox="0 0 100 100" style="enable-background:new 0 0 100 100;" xml:space="preserve">
<style type="text/css">
	.st0{display:none;}
	.st1{display:inline;}
	.st2{display:inline;fill:#BEBEBE;}
</style>
<g class="st0">
	<path class="st1" d="M90.96,55.12c-5.39,0.9-10.74,2.1-16.15,2.6c-5.89,0.53-11.84,0.58-17.76,0.52
		c-14.66-0.14-29.32-0.45-43.97-0.7c-0.33-0.01-0.67-0.01-1.04-0.02c-4.32-8.06-4.66-16.23-1-24.75
		c11.86,4.32,23.62,8.86,36.62,9.02c-1.28,2.88-2.48,5.55-3.71,8.31c0.9,0.41,1.76,0.79,2.69,1.21c1.91-4.26,3.79-8.45,5.67-12.64
		c0.7-1.57,1.41-3.13,2.11-4.7c0.41-0.93,0.98-1.09,1.79-0.43c8.34,6.68,17.84,10.15,28.52,10.45c3.86,0.11,6.34,2.85,6.29,6.71
		C91.01,52.06,90.99,53.41,90.96,55.12z"/>
	<path class="st1" d="M12.58,65.44c0.02-1.02,0.03-1.93,0.05-2.95c0.35,0.01,0.68,0.01,1,0.02c16.99,0.27,33.97,0.6,50.96,0.79
		c8.73,0.1,17.31-1.17,25.77-3.3c0.14-0.04,0.29-0.06,0.46-0.09c0.01,0.19,0.02,0.35,0.02,0.5c-0.01,0.74-0.02,1.47-0.04,2.48
		c-4.03,0.77-8.05,1.87-12.14,2.25c-6.47,0.61-12.98,1.05-19.47,1.02c-15.17-0.06-30.35-0.44-45.52-0.7
		C13.34,65.45,13.01,65.45,12.58,65.44z"/>
	<path class="st1" d="M12.65,63.45c0.02-1.02,0.03-1.93,0.05-2.95c0.35,0.01,0.68,0.01,1,0.02c16.99,0.27,33.97,0.6,50.96,0.79
		c8.73,0.1,17.31-1.17,25.77-3.3c0.14-0.04,0.29-0.06,0.46-0.09c0.01,0.19,0.02,0.35,0.02,0.5c-0.01,0.74-0.02,1.47-0.04,2.48
		c-4.03,0.77-8.05,1.87-12.14,2.25c-6.47,0.61-12.98,1.05-19.47,1.02c-15.17-0.06-30.35-0.44-45.52-0.7
		C13.4,63.46,13.07,63.46,12.65,63.45z"/>
</g>
<g class="st0">
	<path d="M35.29,64.84c-5.73,0.22-11.39,0.49-17.06,0.61c-1.87,0.04-3.75-0.25-5.61-0.51c-0.68-0.1-1.35-0.49-1.96-0.85
		c-1.08-0.63-1.72-1.53-1.62-2.89c0.08-0.98,0.03-1.97-0.01-2.95c-0.06-1.54,0.25-2.3,1.74-2.78c1.78-0.57,3.65-0.98,5.51-1.2
		c6.24-0.76,12.52-0.77,18.8-0.75c0.53,0,1.24-0.25,1.58-0.63c4.21-4.75,9.66-7.16,15.73-8.38c3.94-0.79,7.93-1.2,11.95-0.91
		c3.33,0.24,6.42,1.14,9.03,3.46c1.1,0.98,2.05,1.99,2.68,3.28c0.34,0.69,0.87,0.68,1.5,0.74c3.83,0.35,7.66,0.71,11.48,1.13
		c0.69,0.08,1.38,0.4,2.03,0.68c1.39,0.6,2.14,1.61,1.97,3.21c-0.08,0.75-0.04,1.51-0.02,2.27c0.04,1.98-0.88,3.46-2.69,4.05
		c-2.79,0.91-5.62,1.78-8.51,2.27c-7.57,1.27-15.22,1.08-22.86,0.93C51.04,65.46,43.14,65.11,35.29,64.84z M91.61,57.76
		c-1.5,0.54-2.88,1.15-4.33,1.53c-5.63,1.49-11.43,1.77-17.2,1.76c-8.12,0-16.24-0.51-24.37-0.6c-7.41-0.08-14.81,0.15-22.22,0.14
		c-3.47,0-6.94-0.2-10.41-0.4c-0.9-0.05-1.77-0.47-2.67-0.73c-0.45,2.72,0.06,3.6,2.59,4.3c1.01,0.28,2.08,0.48,3.12,0.46
		c3.51-0.08,7.02-0.43,10.53-0.39c11.27,0.13,22.53,0.39,33.79,0.6c7,0.13,14,0.17,20.92-0.94c2.92-0.47,5.78-1.39,8.6-2.32
		C91.57,60.65,91.96,59.5,91.61,57.76z M42.37,58.58c0.01,0.15,0.02,0.31,0.03,0.46c1.15,0,2.3-0.04,3.45,0.01
		c6.53,0.27,13.06,0.73,19.6,0.78c5.36,0.04,10.73-0.25,16.07-0.67c2.53-0.2,5.03-0.95,7.49-1.65c0.91-0.26,1.73-1.04,2.45-1.72
		c0.53-0.5,0.35-1.13-0.32-1.49c-0.36-0.2-0.75-0.36-1.14-0.48c-3.97-1.3-8.11-1.24-12.21-1.47c-0.17-0.01-0.35,0.09-0.63,0.18
		c0.12,0.44,0.31,0.82,0.32,1.21c0.01,0.39-0.15,0.78-0.23,1.17c-0.31-0.26-0.84-0.47-0.9-0.78c-0.33-1.68-1.41-2.05-2.91-1.85
		c-0.41,0.05-0.83,0.01-1.25,0.01c-3.36,0.04-6.73,0.01-9.59,2.24c-0.32,0.25-0.75,0.36-1.13,0.52c-4.33,1.85-8.85,2.74-13.54,2.91
		C46.07,58.03,44.22,58.37,42.37,58.58z M41.03,55.32c-0.01-0.1-0.02-0.19-0.03-0.29c-1.84-0.09-3.68-0.29-5.52-0.24
		c-6.26,0.17-12.53,0.38-18.79,0.71c-1.82,0.1-3.63,0.63-5.43,1.03c-0.34,0.08-0.83,0.47-0.84,0.75c-0.02,0.29,0.38,0.75,0.7,0.9
		c0.74,0.35,1.53,0.75,2.33,0.81c2.63,0.2,5.28,0.38,7.91,0.36c4.31-0.03,8.61-0.23,12.92-0.31c0.78-0.02,1.28-0.29,1.84-0.84
		c0.76-0.75,1.7-1.35,2.64-1.9C39.46,55.87,40.27,55.64,41.03,55.32z M43.18,53.42c0.02,0.09,0.03,0.19,0.05,0.28
		c0.34,0.03,0.69,0.12,1.03,0.09c1.88-0.14,3.76-0.26,5.64-0.47c3.16-0.35,6.24-0.93,9.15-2.37c3.44-1.7,6.98-3.2,10.5-4.79
		c-0.22-0.11-0.56-0.34-0.93-0.46c-3.19-1.03-6.46-1.23-9.73-0.54c-4.94,1.05-9.18,3.61-13.27,6.43
		C44.78,52.18,43.99,52.81,43.18,53.42z M72.14,48.19c-1.66-0.77-3.02-0.46-4.31,0.11c-2.66,1.17-5.3,2.39-7.93,3.64
		c-4.16,1.97-8.45,3.31-13.11,3.61c-2.51,0.16-4.98,1.1-7.45,1.79c-0.71,0.2-1.31,0.76-1.97,1.16c0.22,0.22,0.34,0.27,0.42,0.24
		c3.71-1.63,7.68-1.92,11.62-2.15c5.31-0.32,10.23-1.72,14.84-4.37c2.13-1.22,4.36-2.25,6.55-3.37
		C71.16,48.65,71.53,48.48,72.14,48.19z M38,53.36c1.58,0.5,2.7,0.38,3.97-0.54c3.1-2.22,6.37-4.19,9.57-6.26
		c0.29-0.19,0.59-0.34,0.89-0.52C46.87,46.95,41.95,49.04,38,53.36z M74.62,51c0.09-0.13,0.19-0.26,0.28-0.39
		c-0.49-0.48-1.08-1.44-1.44-1.36c-1.3,0.3-2.51,0.94-3.76,1.46c0.04,0.1,0.08,0.2,0.11,0.29C71.42,51,73.02,51,74.62,51z"/>
	<path class="st2" d="M91.61,57.76c0.34,1.74-0.05,2.89-1.63,3.41c-2.82,0.93-5.68,1.85-8.6,2.32c-6.92,1.11-13.93,1.07-20.92,0.94
		c-11.26-0.21-22.53-0.47-33.79-0.6c-3.51-0.04-7.02,0.32-10.53,0.39c-1.04,0.02-2.11-0.18-3.12-0.46c-2.54-0.7-3.04-1.58-2.59-4.3
		c0.89,0.25,1.77,0.67,2.67,0.73c3.47,0.2,6.94,0.4,10.41,0.4c7.41,0.01,14.82-0.23,22.22-0.14c8.12,0.09,16.25,0.6,24.37,0.6
		c5.77,0,11.56-0.27,17.2-1.76C88.73,58.91,90.12,58.3,91.61,57.76z"/>
	<path class="st2" d="M42.37,58.58c1.85-0.22,3.69-0.55,5.55-0.62c4.7-0.17,9.22-1.06,13.54-2.91c0.38-0.16,0.81-0.28,1.13-0.52
		c2.85-2.23,6.23-2.2,9.59-2.24c0.42,0,0.84,0.04,1.25-0.01c1.5-0.2,2.57,0.17,2.91,1.85c0.06,0.31,0.59,0.52,0.9,0.78
		c0.09-0.39,0.25-0.79,0.23-1.17c-0.01-0.39-0.2-0.77-0.32-1.21c0.28-0.08,0.46-0.19,0.63-0.18c4.1,0.23,8.24,0.17,12.21,1.47
		c0.39,0.13,0.78,0.29,1.14,0.48c0.67,0.36,0.85,1,0.32,1.49c-0.73,0.68-1.54,1.46-2.45,1.72c-2.46,0.71-4.96,1.46-7.49,1.65
		c-5.34,0.42-10.72,0.71-16.07,0.67c-6.53-0.05-13.06-0.51-19.6-0.78c-1.15-0.05-2.3-0.01-3.45-0.01
		C42.39,58.89,42.38,58.74,42.37,58.58z"/>
	<path class="st2" d="M41.03,55.32c-0.76,0.32-1.57,0.55-2.27,0.97c-0.93,0.55-1.87,1.15-2.64,1.9c-0.56,0.55-1.06,0.83-1.84,0.84
		c-4.31,0.08-8.61,0.28-12.92,0.31c-2.64,0.02-5.28-0.16-7.91-0.36c-0.8-0.06-1.59-0.46-2.33-0.81c-0.32-0.16-0.72-0.61-0.7-0.9
		c0.02-0.27,0.5-0.67,0.84-0.75c1.8-0.4,3.61-0.94,5.43-1.03c6.26-0.33,12.52-0.53,18.79-0.71c1.84-0.05,3.68,0.15,5.52,0.24
		C41.01,55.13,41.02,55.22,41.03,55.32z"/>
	<path class="st2" d="M72.14,48.19c-0.61,0.3-0.98,0.47-1.33,0.65c-2.19,1.11-4.43,2.14-6.55,3.37c-4.61,2.65-9.53,4.05-14.84,4.37
		c-3.94,0.23-7.92,0.52-11.62,2.15c-0.08,0.04-0.21-0.01-0.42-0.24c0.65-0.4,1.26-0.96,1.97-1.16c2.46-0.69,4.93-1.63,7.45-1.79
		c4.67-0.29,8.95-1.64,13.11-3.61c2.63-1.25,5.27-2.47,7.93-3.64C69.12,47.73,70.48,47.41,72.14,48.19z"/>
	<path class="st2" d="M38,53.36c3.95-4.32,8.87-6.41,14.43-7.31c-0.3,0.17-0.6,0.33-0.89,0.52c-3.2,2.07-6.47,4.05-9.57,6.26
		C40.7,53.74,39.59,53.86,38,53.36z"/>
</g>
<path d="M90.72,54.31c0.01-0.74-0.18-1.06-0.57-1.1c-0.96-0.1-1.91-0.28-2.88-0.27c-3.27,0.04-6.53,0.3-9.8,0.18
	c-0.31-1.87-0.56-3.77-1.02-5.56c-0.07-0.27-0.15-0.54-0.22-0.81c-0.26-1.38-0.72-2.61-1.04-3.94c0.22-0.83,0.3-1.65-0.12-2.38
	c-0.27-0.79-0.66-1.33-1.17-1.58c-0.69-0.74-1.48-0.84-2.26-0.92c-0.57-0.06-1.15-0.01-1.72-0.01c-0.13-0.15-0.28-0.18-0.43-0.15
	c-0.6-0.13-1.21-0.4-1.79,0.16c-0.03-0.02-0.06-0.02-0.09,0c-0.04-0.18-0.07-0.35-0.11-0.53c-0.61-0.6-1.27-0.4-1.91-0.23
	c-0.67,0.17-1.34,0.09-2,0.23c-0.29,0.06-0.6-0.11-0.83,0.35c-0.62-0.25-1.25-0.13-1.87-0.16c-1.27-0.05-2.54-0.02-3.81-0.02
	c-0.21,0-0.42-0.01-0.62,0.17c-0.15,0.06-0.3,0.11-0.45,0.17c-0.75,0.05-1.48,0.32-2.19,0.74c-0.69,0.21-1.35,0.59-2,1.04
	c-1.17,0.58-2.29,1.39-3.37,2.38c0,0,0,0,0-0.01c0,0,0,0,0,0l0,0c0,0,0,0,0,0c-0.34,0.15-0.66,0.35-0.92,0.77
	c-0.07,0.06-0.15,0.11-0.22,0.17c-0.53,0.21-0.99,0.7-1.48,1.1c-1.41,1.17-2.81,2.39-4.21,3.58c-0.52,0.42-1.05,0.84-1.57,1.27
	c-0.58,0.35-1.14,0.76-1.69,1.26c-0.49,0.36-0.97,0.72-1.46,1.08c0,0,0,0,0,0l0,0c-1.37,0.64-2.65,1.6-3.91,2.71
	c-0.23,0.14-0.47,0.27-0.7,0.41c-5.28,0-10.56-0.08-15.84,0.03c-2.09,0.05-4.19,0.16-6.25,0.95c-0.22,0.08-0.45,0.13-0.61,0.46h0
	c0,2.59-0.01,5.18,0,7.77c0,0.92,0.22,1.25,0.72,1.02c0.33-0.15,0.58,0.07,0.85,0.24c0.14,0.12,0.28,0.12,0.41,0.01
	c0.57,0.24,1.14,0.38,1.7-0.13c0.16-0.14,0.32-0.21,0.5-0.18c0,0,0,0,0,0c0.1,0.12,0.19,0.34,0.3,0.35c0.88,0.1,1.77,0.3,2.65-0.07
	c0.18-0.18,0.35-0.35,0.59-0.19c1.04,0.68,2.09,0.41,3.13,0.02c0.21-0.08,0.37,0.03,0.56,0.1c0.58,0.22,1.17,0.48,1.72-0.14
	c0.18-0.2,0.34-0.07,0.5,0.05c0.43,0.3,0.85,0.31,1.27-0.05c0.21-0.18,0.4-0.12,0.6,0.02c0.45,0.3,0.9,0.44,1.35-0.08
	c0.19-0.23,0.4-0.11,0.6,0.05c0.35,0.28,0.7,0.41,1.03-0.1c0.01-0.02,0.03-0.05,0.04-0.04c0.62,0.48,1.26-0.19,1.88,0.14
	c0.1,0.05,0.22,0.23,0.29,0.18c0.57-0.39,1.18,0.07,1.76-0.23c0.03-0.02,0.08-0.07,0.1-0.05c0.69,0.56,1.42,0.04,2.13,0.21
	c0.52,0.13,1.04,0.3,1.54-0.08c0.12-0.09,0.23-0.11,0.35-0.03c0.95,0.61,1.9,0.63,2.86,0.11c0.18-0.1,0.33,0.03,0.5,0.15
	c0.45,0.31,0.9,0.47,1.36,0.01c0.05-0.05,0.12-0.14,0.14-0.11c0.67,0.78,1.43-0.17,2.12,0.31c0.22,0.15,0.47,0.23,0.67,0.09
	c0.41-0.28,0.79-0.65,1.2-0.03c0.5-0.85,1.15,0.69,1.66-0.3c0.03-0.07,0.19-0.05,0.25,0.02c0.41,0.48,0.81,0.64,1.25,0.06
	c0.15-0.2,0.33,0.03,0.49,0.16c0.33,0.27,0.67,0.37,1-0.01c0.24-0.28,0.44-0.19,0.68,0.05c0.34,0.34,0.69,0.4,1.03-0.02
	c0.03-0.04,0.06-0.11,0.09-0.1c0.63,0.34,1.28-0.09,1.91,0.15c0.13,0.05,0.3,0.29,0.39,0.21c0.64-0.57,1.24,0.01,1.86,0.06
	c0.26,0.02,0.53,0.01,0.76-0.25c0.14-0.15,0.31-0.22,0.45-0.07c0.32,0.33,0.61,0.39,0.93-0.01c0.12-0.15,0.27-0.02,0.4,0.1
	c0.11,0.1,0.24,0.28,0.33,0.25c0.78-0.32,1.59,0.1,2.36-0.26c0.14-0.07,0.25-0.11,0.4,0c0.83,0.62,1.67,0.67,2.51,0.02
	c0.14-0.1,0.26-0.1,0.4,0c0.98,0.71,1.96,0.55,2.95,0.08c0.16-0.07,0.3-0.15,0.46-0.06c1.08,0.62,2.16,0.54,3.22-0.11
	c0.15-0.09,0.27-0.05,0.4,0.07c0.3,0.3,0.63,0.35,0.96,0.21c0.75-0.03,1.52,0.31,2.23-0.44c0.25-0.26,0.45,0.2,0.68,0.27
	c0.08,0.08,0.17,0.07,0.25,0.08c0.11,0,0.21,0.01,0.29,0c0.79,0.1,1.57,0.08,2.31-0.51c0.38-0.3,0.62,0.33,0.95,0.22
	c0.44,0.03,0.88,0.11,1.26-0.37c0.03-0.04,0.08-0.09,0.09-0.07c0.7,0.82,1.43-0.39,2.15,0.12c0.27,0.2,0.62,0.08,0.91-0.2
	c0.21-0.26,0.4-0.38,0.66-0.12c0.45,0.44,0.83-0.14,1.22-0.4l0,0c0.2,0.28,0.4,0.32,0.67,0.19c0.42-0.2,0.86-0.26,1.29-0.3
	c0.18-0.02,0.34-0.03,0.47-0.27c0.37,0.09,0.74,0.34,1.08-0.21c0.13-0.21,0.3-0.02,0.44,0.05c0.2,0.1,0.4,0.24,0.6,0.02c0,0,0,0,0,0
	c0.76-0.46,1.03-1.09,1.03-2.4c0-0.36,0-0.72-0.01-1.08C90.71,58.1,90.69,56.21,90.72,54.31z M12.5,60.8
	c-0.04,0.04-0.08,0.06-0.14,0.01c0.04-0.17,0.12-0.3,0.19-0.43C12.54,60.51,12.52,60.65,12.5,60.8z M26.55,55.33
	c0-0.01,0-0.03,0-0.04c0.21,0.02,0.41,0.03,0.62,0.04C26.96,55.33,26.76,55.33,26.55,55.33z M64.06,53.26
	c-2.73,0.11-5.46,0.33-8.19,0.33c-0.52,0-1.05,0.02-1.51,0.57c-0.03,0.09-0.04,0.17-0.05,0.23c-0.98-0.13-1.97-0.17-2.95-0.18
	c-0.91-0.13-1.82-0.23-2.73-0.09c-0.9,0.14-1.77-0.46-2.66-0.29c-0.69,0.16-1.38,0.12-2.07,0.28c-0.21,0.05-0.41-0.01-0.6-0.1
	c0.08-0.03,0.16-0.06,0.23-0.1c0.07,0.07,0.15,0.14,0.23,0.19c0.18,0.03,0.36-0.03,0.53-0.13c0.06-0.13,0.11-0.27,0.17-0.4
	c0.46-0.15,0.92-0.3,1.37-0.45c1.04,0.04,2.06-0.23,3.06-0.71c1.65-0.53,3.19-1.6,4.71-2.76c1.16-0.75,2.27-1.68,3.37-2.68
	c0.17,0.01,0.3-0.14,0.43-0.32c0.38-0.34,0.76-0.68,1.14-1.02c0.04-0.04,0.08-0.07,0.11-0.11c0.44-0.28,0.86-0.65,1.27-1.07
	c1.61-1.23,3.21-2.52,4.93-3.27c0.98-0.29,1.96-0.59,2.94-0.88c0,0,0,0,0,0c0.84,0,1.68-0.01,2.52-0.01
	c0.43,0.12,0.83,0.35,1.15,0.86c-0.01,0.04-0.02,0.08-0.03,0.12c-0.07,0.45,0.12,0.73,0.23,1.05c0.9,2.5,1.77,5.02,2.37,7.79
	c0.18,0.83,0.34,1.68,0.44,2.55c-0.51,0.18-1.03,0.18-1.56,0.21C69.97,53.02,67.02,53.14,64.06,53.26z M75.48,58.34
	c0-0.01,0-0.02,0-0.03C75.48,58.32,75.48,58.32,75.48,58.34C75.48,58.33,75.48,58.33,75.48,58.34z"/>
</svg>
