<?xml version="1.0" encoding="utf-8"?>
<!-- Generator: Adobe Illustrator 23.0.1, SVG Export Plug-In . SVG Version: 6.00 Build 0)  -->
<svg version="1.1" id="Layer_1" xmlns="http://www.w3.org/2000/svg" xmlns:xlink="http://www.w3.org/1999/xlink" x="0px" y="0px"
	 viewBox="0 0 100 100" style="enable-background:new 0 0 100 100;" xml:space="preserve">
<g>
	<path d="M10,34.1c0.4-1.5,0.7-3,1.1-4.5c0.6-2.5,1.1-5,1.6-7.5c0.3-1.3,0.6-2.5,0.8-3.8c0.2-1.3,1.7-1.4,2.2-0.7
		c1.2,1.2,2.4,2.6,3.6,3.8c0.8,0.9,1.6,1.7,2.4,2.5c1.2,1.2,2.4,2.5,3.5,3.7c2.4,2.5,4.7,5,7.1,7.6c1.2,1.3,2.4,2.7,3.7,4
		c2.4,2.6,4.8,5.1,7.2,7.7c1.4,1.5,2.8,3,4.2,4.5c1.4,1.5,2.8,3.1,4.3,4.6c1,1,2.3,1.4,3.7,1.7c2.1,0.5,4-0.4,6-0.9
		c1.2-0.3,2.4-0.7,3.6-1.1c1.1-0.4,2.1,0,3.2,0.4c4.5,1.8,8.9,3.5,13.4,5.2c3.4,1.3,5.8,3.6,7.2,6.9c0.6,1.3,0.9,2.7,0.9,4.2
		c0,1,0,1.9,0,2.9c0,0.7-0.5,1.2-1.2,1.2c-12.5,0-24.9,0-37.4,0c-1.9,0-3.7-0.9-5.2-2.1c-1.3-1-2.5-2.2-3.7-3.3
		c-2.1-2.1-4.3-4.2-6.4-6.2c-2.5-2.4-4.9-4.7-7.4-7.1c-1.2-1.1-2.3-2.2-3.5-3.3c-0.3-0.3-0.6-0.5-1-0.8c-0.8,1.1-1.2,2.2-1.2,3.5
		c0,5.9,0,11.8,0,17.8c0,1.2-0.4,1.6-1.6,1.6c-1.7,0-3.4-0.1-5.1,0c-0.9,0.1-1.5-0.8-1.6-1.5c-0.1-1.8-0.2-3.6-0.3-5.4
		c-0.2-2.8-0.4-5.7-0.6-8.5c-0.2-2-0.3-4.1-0.5-6.1c-0.2-2.3-0.4-4.6-0.6-7c-0.1-1.7-0.2-3.4-0.3-5.2c0-0.2,0-0.6-0.2-0.7
		c-1.1-1.4-1.7-3-2.2-4.7C10,36.3,10,35.2,10,34.1z"/>
</g>
</svg>
