<?xml version="1.0" encoding="utf-8"?>
<!-- Generator: Adobe Illustrator 23.0.1, SVG Export Plug-In . SVG Version: 6.00 Build 0)  -->
<svg version="1.1" id="Moccasins" xmlns="http://www.w3.org/2000/svg" xmlns:xlink="http://www.w3.org/1999/xlink" x="0px" y="0px"
	 viewBox="0 0 100 100" style="enable-background:new 0 0 100 100;" xml:space="preserve">
<g>
	<path d="M90.5,53.39c-0.1-0.18-0.19-0.25-0.36-0.14c-0.17,0.12-0.36,0.21-0.54,0.3c-0.15,0.08-0.3,0.06-0.36-0.16
		c-0.07-0.23,0.04-0.35,0.18-0.44c0.15-0.09,0.33-0.13,0.47-0.3c-0.16-0.26-0.31-0.28-0.53-0.16c-1.99,1.05-4.05,1.57-6.19,1.53
		c-1.99-0.04-3.94-0.46-5.89-0.92c-3.49-0.83-7-1.42-10.54-1.69c-2.13-0.16-4.25-0.55-6.3-1.39c-1.49-0.62-3-1.16-4.53-1.61
		c-1.13-0.33-2.27-0.61-3.37-1.11c-0.88-0.4-1.57-1.09-1.99-2.2c-0.03-0.09-0.04-0.22-0.16-0.22c-0.08,0.17-0.23,0.34-0.19,0.54
		c0.08,0.45-0.09,0.58-0.4,0.57c0.12,0.33,0.21,0.63,0.41,0.85c0.16-0.45,0.28-0.49,0.53-0.18c0.17,0.2,0.36,0.36,0.57,0.5
		c0.29,0.2,0.3,0.3,0.12,0.66c-0.35,0.02-0.59-0.27-0.87-0.49c-0.02,0.6-0.15,0.75-0.6,0.67c-4.89-0.8-9.73-1.97-14.56-3.26
		c-1.29-0.34-2.57-0.7-3.86-1.04c-0.06-0.03-0.11-0.06-0.17-0.07c-2.54-0.75-5.08-1.48-7.61-2.24c-3.08-0.93-6.15-1.88-9.23-2.84
		c-0.26-0.08-0.36-0.02-0.4,0.35c-0.23,2.08-0.48,4.16-0.73,6.24c-0.08,0.69-0.08,0.69-0.61,0.73c-0.35,0.04-0.76,0.09-0.98,0.42
		c-0.24,0.36-0.55,0.66-0.75,1.04c-0.56,1.08-0.61,2.32-0.42,3.58c0.11,0.73,0.24,1.47,0.58,2.09c0.28,1,0.76,1.83,1.29,2.61
		c0.19,0.28,0.37,0.59,0.65,0.74c0,0,0,0,0,0c0,0,0,0,0,0c0.75,1.02,1.73,1.46,2.72,1.87c1.78,0.74,3.61,0.93,5.46,0.99
		c1.42,0.05,2.84,0.08,4.25,0.12c0,0,0,0,0,0c0.47,0.13,0.95,0.04,1.42,0.08c1.58,0.14,3.16,0.27,4.74,0.46
		c2.19,0.25,4.37,0.59,6.55,0.88c1.3,0.17,2.6,0.35,3.9,0.44c0.3-0.01,0.58,0.14,0.88,0.08c0,0,0,0,0,0c0,0,0,0,0,0
		c0.56,0.03,1.12,0.05,1.68,0.08c1.81,0.12,3.62,0.22,5.43,0.37c3.59,0.3,7.18,0.55,10.78,0.61c1.8,0.03,3.6,0.04,5.41,0.05
		c0.07,0.01,0.13,0.01,0.2,0.01c0.44,0,0.89,0,1.33-0.01c0.9,0,1.8,0.01,2.7,0.01c1.11,0.01,2.22,0.01,3.33,0.01
		c1.72,0.04,3.44,0.08,5.16,0.04c3.18-0.08,6.31-0.59,9.38-1.72c0.87-0.32,1.42-0.93,1.81-1.94c0.31-0.81,0.53-1.65,0.7-2.52
		c0-0.44,0-0.88,0-1.31C90.88,54.41,90.76,53.86,90.5,53.39z M10.92,49.38c-0.05-0.2-0.03-0.4-0.04-0.7
		c0.02-0.17,0.04-0.42,0.06-0.68c0.02-0.2,0.12-0.28,0.26-0.26c0.14,0.02,0.21,0.13,0.21,0.3c-0.01,0.44-0.03,0.87-0.05,1.31
		c-0.01,0.15-0.08,0.25-0.2,0.27C11.04,49.63,10.96,49.54,10.92,49.38z M11.66,52.16c-0.16,0.1-0.26-0.03-0.32-0.2
		c-0.15-0.38-0.24-0.78-0.28-1.2c-0.02-0.21,0.02-0.39,0.13-0.39c0.23-0.01,0.29,0.1,0.33,0.26c0.09,0.36,0.17,0.73,0.26,1.09
		C11.83,51.9,11.82,52.07,11.66,52.16z M12.68,54.43c-0.09,0.06-0.19,0.03-0.26-0.06c-0.25-0.35-0.44-0.76-0.6-1.19
		c-0.04-0.11-0.01-0.24,0.06-0.34c0.07-0.08,0.16-0.13,0.22-0.05c0.32,0.36,0.49,0.87,0.69,1.26
		C12.81,54.27,12.77,54.37,12.68,54.43z M14.01,56.41c-0.09,0.11-0.2,0.09-0.28,0c-0.27-0.29-0.5-0.64-0.7-1.02
		c-0.12-0.23,0-0.51,0.2-0.51c0.02,0.01,0.05,0,0.08,0.03c0.31,0.32,0.55,0.72,0.78,1.14C14.15,56.16,14.1,56.31,14.01,56.41z
		 M53.42,48.48c-0.04,0.18-0.15,0.25-0.34,0.22c-0.27-0.12-0.6-0.25-0.92-0.4c-0.13-0.06-0.2-0.21-0.15-0.39
		c0.05-0.19,0.16-0.28,0.32-0.22c0.3,0.13,0.61,0.25,0.91,0.39C53.39,48.14,53.47,48.28,53.42,48.48z M55.35,49.13
		c-0.04,0.19-0.16,0.23-0.28,0.23c-0.34-0.11-0.66-0.2-0.98-0.32c-0.16-0.05-0.21-0.21-0.17-0.41c0.04-0.18,0.14-0.26,0.29-0.22
		c0.32,0.1,0.64,0.2,0.96,0.3C55.34,48.77,55.39,48.93,55.35,49.13z M57.3,49.69c-0.03,0.17-0.12,0.24-0.28,0.24
		c-0.32-0.1-0.66-0.2-1-0.31c-0.14-0.05-0.2-0.19-0.16-0.38c0.04-0.18,0.14-0.27,0.28-0.23c0.32,0.09,0.64,0.18,0.96,0.29
		C57.27,49.34,57.34,49.48,57.3,49.69z M59.22,50.4c-0.04,0.17-0.14,0.23-0.33,0.2c-0.27-0.1-0.61-0.22-0.94-0.36
		c-0.11-0.05-0.18-0.18-0.15-0.36c0.04-0.17,0.13-0.3,0.27-0.25c0.34,0.11,0.67,0.24,1.01,0.38C59.22,50.06,59.26,50.22,59.22,50.4z
		 M61.14,51.12c-0.03,0.17-0.12,0.24-0.34,0.22c-0.26-0.1-0.61-0.23-0.95-0.38c-0.12-0.05-0.17-0.2-0.13-0.37
		c0.04-0.16,0.13-0.28,0.25-0.23c0.35,0.12,0.69,0.25,1.04,0.39C61.14,50.8,61.17,50.96,61.14,51.12z M63.08,51.72
		c-0.02,0.2-0.13,0.26-0.28,0.27c-0.31-0.1-0.64-0.2-0.97-0.3c-0.14-0.05-0.21-0.19-0.18-0.37c0.03-0.21,0.15-0.29,0.3-0.25
		c0.32,0.09,0.64,0.18,0.96,0.28C63.04,51.39,63.1,51.53,63.08,51.72z M65.06,52.1c-0.02,0.24-0.16,0.3-0.32,0.27
		c-0.3-0.04-0.59-0.1-0.89-0.15c-0.16-0.03-0.28-0.14-0.26-0.38c0.02-0.24,0.15-0.3,0.32-0.27c0.3,0.05,0.59,0.11,0.89,0.16
		C64.97,51.76,65.08,51.87,65.06,52.1z M66.66,52.6c-0.06-0.01-0.12-0.01-0.19-0.02c0,0,0,0.01,0,0.01
		c-0.22-0.03-0.43-0.05-0.65-0.08c-0.15-0.02-0.26-0.12-0.25-0.33c0.01-0.23,0.13-0.33,0.3-0.32c0.28,0.03,0.56,0.06,0.84,0.09
		c0.17,0.02,0.35,0.06,0.33,0.36C67.02,52.61,66.84,52.62,66.66,52.6z M68.75,52.78c-0.14,0-0.29-0.03-0.43-0.04c0,0,0,0.01,0,0.01
		c-0.18-0.02-0.35-0.03-0.53-0.05c-0.14-0.02-0.23-0.13-0.23-0.32c0.01-0.21,0.1-0.32,0.27-0.31c0.32,0.02,0.64,0.04,0.96,0.07
		c0.15,0.02,0.25,0.12,0.24,0.35C69.02,52.71,68.9,52.79,68.75,52.78z M70.74,52.98c-0.3-0.02-0.6-0.05-0.9-0.09
		c-0.15-0.02-0.3-0.1-0.29-0.34c0.01-0.26,0.15-0.33,0.33-0.31c0.07,0.01,0.14,0.01,0.24,0.01c0.21,0.03,0.43,0.05,0.66,0.08
		c0.16,0.02,0.26,0.14,0.25,0.35C71.01,52.89,70.9,52.99,70.74,52.98z M73,53c-0.02,0.21-0.13,0.31-0.29,0.29
		c-0.31-0.04-0.62-0.09-0.92-0.16c-0.16-0.03-0.29-0.14-0.25-0.38c0.03-0.23,0.17-0.29,0.33-0.27c0.3,0.05,0.59,0.11,0.89,0.16
		C72.92,52.67,73.02,52.79,73,53z M74.97,53.45c-0.03,0.21-0.17,0.26-0.36,0.23c-0.25-0.05-0.55-0.12-0.84-0.18
		c-0.17-0.04-0.28-0.14-0.24-0.38c0.03-0.23,0.16-0.3,0.33-0.26c0.3,0.07,0.59,0.13,0.89,0.2C74.91,53.09,75,53.22,74.97,53.45z
		 M76.65,54.13c-0.32-0.07-0.63-0.14-0.95-0.22c-0.16-0.04-0.24-0.17-0.21-0.38c0.03-0.21,0.15-0.28,0.3-0.26
		c0.31,0.07,0.63,0.14,0.94,0.22c0.14,0.04,0.22,0.17,0.2,0.35C76.92,54.07,76.81,54.16,76.65,54.13z M78.9,54.33
		c-0.03,0.22-0.14,0.29-0.3,0.26c-0.31-0.07-0.61-0.14-0.92-0.21c-0.15-0.04-0.26-0.15-0.23-0.36c0.03-0.23,0.15-0.31,0.32-0.28
		c0.31,0.07,0.61,0.14,0.92,0.22C78.85,53.99,78.93,54.12,78.9,54.33z M80.87,54.69c-0.03,0.31-0.21,0.29-0.43,0.27
		c-0.22-0.04-0.49-0.1-0.77-0.15c-0.17-0.03-0.27-0.15-0.24-0.38c0.03-0.24,0.17-0.29,0.33-0.26c0.27,0.05,0.53,0.09,0.8,0.14
		C80.73,54.34,80.9,54.38,80.87,54.69z M82.58,55.18c-0.14,0-0.29-0.02-0.43-0.02c0,0,0,0,0-0.01c-0.17-0.01-0.35-0.02-0.52-0.04
		c-0.14-0.02-0.23-0.13-0.23-0.33c0.01-0.21,0.1-0.33,0.26-0.32c0.32,0.02,0.64,0.04,0.96,0.07c0.15,0.02,0.25,0.12,0.24,0.34
		C82.85,55.1,82.73,55.18,82.58,55.18z M84.61,55.13c-0.32,0.03-0.64,0.05-0.95,0.07c-0.15,0.01-0.26-0.1-0.26-0.32
		c0-0.22,0.1-0.32,0.25-0.33c0.16-0.01,0.33,0,0.49,0c0-0.01,0-0.01,0-0.02c0.14-0.01,0.29-0.04,0.43-0.04
		c0.15,0,0.26,0.08,0.28,0.3C84.87,55,84.76,55.11,84.61,55.13z M86.62,54.77c-0.31,0.08-0.63,0.15-0.94,0.22
		c-0.15,0-0.27-0.06-0.29-0.29c-0.02-0.22,0.07-0.33,0.22-0.36c0.3-0.07,0.61-0.14,0.91-0.2c0.15-0.03,0.27,0.04,0.31,0.25
		C86.86,54.6,86.77,54.73,86.62,54.77z M88.63,54.02c-0.34,0.17-0.68,0.31-0.98,0.44c-0.18,0-0.28-0.07-0.31-0.23
		c-0.04-0.19,0.01-0.33,0.15-0.39c0.31-0.14,0.63-0.27,0.95-0.39c0.14-0.06,0.25,0.04,0.3,0.2C88.79,53.8,88.75,53.96,88.63,54.02z"
		/>
	<path d="M50.35,42.04c0.14,0.97,0.28,1.93,0.66,2.8c0.32,0.74,0.74,1.35,1.35,1.68c0.38,0.2,0.78,0.36,1.18,0.49
		c0.13,0.05,0.26,0.09,0.38,0.14c0.12,0.03,0.24,0.07,0.36,0.1c0.15,0.05,0.3,0.1,0.45,0.14c1.46,0.43,2.92,0.81,4.34,1.42
		c2.86,1.23,5.78,1.88,8.78,2.06c1.89,0.12,3.78,0.41,5.66,0.76c2.51,0.47,5,1.17,7.52,1.55c2.17,0.33,4.32,0.26,6.44-0.54
		c0.48-0.18,0.96-0.35,1.48-0.67c-0.15-0.08-0.24-0.13-0.34-0.17c-0.56-0.24-1.15-0.37-1.73-0.47c-3.69-0.61-7.37-1.25-11.03-2.14
		c-4.02-0.98-7.93-2.36-11.49-5.17c-1.98-1.56-3.92-3.17-5.66-5.18c-1.78-2.06-3.38-4.35-5.03-6.59c-0.57-0.77-1.09-1.61-1.73-2.28
		c-0.12,0-0.25,0-0.37,0c-0.17,0.13-0.31,0.31-0.45,0.49c-1.21,1.59-1.8,3.45-1.56,5.74C49.76,38.18,50.07,40.11,50.35,42.04z"/>
	<path d="M79.1,63.11c-1.98,0.04-3.96-0.04-5.93-0.04c-0.02-0.01-0.04-0.02-0.06-0.02c-0.03,0-0.06,0-0.1,0
		c-0.38-0.05-0.76-0.03-1.15-0.03C67.93,63,64,63.09,60.07,62.96c-2.18-0.07-4.35-0.16-6.52-0.31c-0.68-0.05-0.68-0.06-0.67,0.84
		c0.01,0.46,0.12,0.83,0.47,1c0,0.02,0,0.05,0,0.07c4.09,0,8.18,0,12.27,0c0-0.03-0.01-0.05-0.01-0.08c0.1-0.15,0.06-0.34,0.06-0.51
		c0-0.22,0.02-0.36,0.23-0.35c0.19,0.01,0.32,0.04,0.3,0.36c-0.01,0.2-0.02,0.41,0.09,0.58c0.59,0,1.18,0,1.76,0
		c0.03-0.1,0.08-0.2,0.06-0.32c0.01-0.11,0.02-0.22,0.02-0.32c-0.02-0.31,0.13-0.29,0.3-0.3c0.19-0.01,0.26,0.08,0.25,0.33
		c-0.01,0.18-0.05,0.38,0.07,0.54c1.11,0,2.22-0.02,3.32,0c1.11,0.03,2.22-0.07,3.32-0.01c0.55,0.03,1.1,0.01,1.65,0.01
		c1.3,0,2.61,0.01,3.91,0.01c0.68,0.02,1.34-0.1,2.01-0.22c0.35-0.06,0.51-0.24,0.45-0.7c-0.05-0.4,0.18-0.4,0.37-0.42
		c0.26-0.03,0.13,0.24,0.14,0.37c0.03,0.43,0.06,0.48,0.37,0.39c0.19-0.06,0.38-0.12,0.57-0.18c0.56-0.19,0.57-0.19,0.62-0.95
		c0.03-0.37,0.26-0.32,0.42-0.36c0.19-0.04,0.1,0.2,0.11,0.33c0.02,0.43,0.07,0.5,0.37,0.35c0.61-0.29,1.19-0.64,1.72-1.12
		c0.21-0.19,0.44-0.36,0.62-0.67c-0.07,0.02-0.1,0.02-0.13,0.03C85.5,62.54,82.32,63.03,79.1,63.11z"/>
	<path d="M14.64,37.9c4.01,1.22,8.01,2.45,12.02,3.67c1.33,0.4,2.67,0.77,4.01,1.15c0.07,0.03,0.14,0.06,0.21,0.08
		c2.89,0.83,5.79,1.62,8.71,2.34c3.29,0.81,6.59,1.54,9.91,2.11c0.09,0.02,0.2,0.11,0.3-0.04c-0.2-0.37-0.4-0.74-0.47-1.18
		c-0.05-0.31-0.19-0.41-0.41-0.44c-1.49-0.23-2.98-0.54-4.46-0.86c-2.99-0.65-5.98-1.38-8.95-2.19c-2.07-0.57-4.13-1.14-6.2-1.71
		c-0.09-0.04-0.18-0.08-0.27-0.11c-3.12-0.94-6.24-1.88-9.36-2.82c-1.41-0.43-2.82-0.87-4.24-1.3c-0.5-0.15-0.9,0.09-1.06,0.62
		C14.23,37.69,14.27,37.79,14.64,37.9z"/>
	<path d="M32.9,60.63c-2.11-0.27-4.22-0.51-6.34-0.59c0,0,0,0,0,0c-0.26-0.02-0.51-0.05-0.77-0.06c-1.81-0.06-3.62-0.11-5.43-0.18
		c-1.2-0.05-2.39-0.24-3.57-0.59c-0.81-0.24-1.59-0.59-2.37-0.98c0,0,0,0,0,0c-0.3-0.22-0.6-0.42-0.89-0.66
		c-1.02-0.85-1.79-2-2.4-3.35c-0.47-1.05-0.81-2.17-1.01-3.36c0,0.49,0,0.99,0,1.48c0.09,0.56,0.05,1.15,0.16,1.71
		c0.18,0.87,0.45,1.7,0.75,2.52c0.55,1.54,1.18,3.04,1.69,4.61c0.16,0.5,0.25,1.05,0.55,1.46c0.48,0.67,1.05,1.14,1.7,1.47
		c0.66,0.34,1.36,0.36,2.06,0.45c0.83,0,1.66,0,2.49,0c0.12,0.01,0.25,0.01,0.37,0.01c3.22,0,6.44,0.01,9.66,0
		c1.04,0,2.07-0.01,3.11-0.02c0-0.02,0-0.03,0-0.05c0.32-0.15,0.48-0.45,0.48-0.9c0-0.87,0-1.75,0-2.62
		C33.15,60.73,33.07,60.65,32.9,60.63z"/>
	<path d="M49.86,62.58c0-0.2-0.08-0.25-0.21-0.26c-1.53-0.13-3.07-0.25-4.61-0.29c-1.91-0.1-3.82-0.24-5.73-0.51
		c-1.38-0.19-2.76-0.37-4.14-0.58c-0.29-0.04-0.41,0.02-0.39,0.45c0.03,0.64,0.02,1.28,0,1.93c-0.01,0.56,0.12,0.99,0.53,1.22
		c0.11,0.01,0.23,0.02,0.34,0.02c2.22,0,4.44,0,6.65,0c2.34,0,4.68-0.01,7.03-0.02c0-0.02,0-0.04,0-0.06
		c0.32-0.08,0.48-0.37,0.51-0.77C49.87,63.35,49.85,62.96,49.86,62.58z"/>
</g>
</svg>
