<?xml version="1.0" encoding="utf-8"?>
<!-- Generator: Adobe Illustrator 23.0.1, SVG Export Plug-In . SVG Version: 6.00 Build 0)  -->
<svg version="1.1" id="Sandals" xmlns="http://www.w3.org/2000/svg" xmlns:xlink="http://www.w3.org/1999/xlink" x="0px" y="0px"
	 viewBox="0 0 100 100" style="enable-background:new 0 0 100 100;" xml:space="preserve">
<g>
	<path d="M24.74,57.2c-0.1-1.55-0.07-2.98-0.31-4.35c-0.13-0.74-0.63-1.5-1.15-2.07c-2.45-2.65-4.98-5.23-7.47-7.84
		c-0.92-0.96-0.97-1.62-0.2-2.67c1.43-1.96,2.87-3.91,4.32-5.87c0.79-1.07,1.37-1.14,2.44-0.3c3.41,2.65,6.81,5.31,10.21,7.96
		c1.31,1.02,1.9,1.04,3.25,0.1c4.06-2.84,8.13-5.68,12.19-8.51c1.29-0.9,1.85-0.89,3.08,0.06c0.51,0.39,1.01,0.79,1.51,1.18
		c1.18,0.92,1.26,1.43,0.37,2.6c-2.71,3.53-5.39,7.08-8.15,10.58c-0.94,1.2-1.22,2.38-0.77,3.85c0.46,1.48,0.78,3,1.12,4.51
		c0.13,0.61,0.41,0.81,1.03,0.79c1.52-0.04,3.04-0.05,4.55,0c0.72,0.02,1.18-0.22,1.62-0.77c3.25-4.05,6.52-8.08,9.79-12.12
		c1.2-1.48,1.58-1.58,3.37-0.83c0.93,0.39,1.87,0.78,2.8,1.16c1,0.41,1.55,1.15,1.66,2.22c0.34,3.15,0.71,6.3,1.01,9.45
		c0.07,0.71,0.32,0.89,0.99,0.88c4.45-0.02,8.9-0.02,13.36,0c2.25,0.01,3.91,1.38,4.13,3.36c0.28,2.51-1.45,4.42-4.07,4.43
		c-5.9,0.02-11.81,0.01-17.71,0.01c-17.54,0-35.08,0-52.62,0c-2.41,0-3.88-0.96-4.43-2.9c-0.6-2.11,0.73-4.36,2.89-4.77
		c0.79-0.15,1.61-0.13,2.42-0.13C18.82,57.19,21.68,57.2,24.74,57.2z"/>
</g>
</svg>
