<?xml version="1.0" encoding="utf-8"?>
<!-- Generator: Adobe Illustrator 23.0.1, SVG Export Plug-In . SVG Version: 6.00 Build 0)  -->
<svg version="1.1" id="Slippers" xmlns="http://www.w3.org/2000/svg" xmlns:xlink="http://www.w3.org/1999/xlink" x="0px" y="0px"
	 viewBox="0 0 100 100" style="enable-background:new 0 0 100 100;" xml:space="preserve">
<path d="M91.1,63.05c-0.14-2.21-1.81-2.31-3.25-2.71c-1.24-1.81-3.04-2.99-4.56-4.48c-3.32-3.28-7.21-5.74-11.33-7.76
	c-5.48-2.69-11.14-4.68-17.11-5.65c-0.64-0.16-1.28-0.31-1.92-0.47c-0.76-0.11-1.52-0.22-2.28-0.33c-0.08-0.01-0.15-0.02-0.23-0.03
	c-0.76-0.11-1.51-0.22-2.27-0.33c-0.75-0.07-1.51-0.14-2.26-0.21c-0.92-0.24-1.29,0.09-1.46,1.15c-0.41,2.68-0.76,5.38-1.5,7.99h0
	c-1.41,3.71-3.3,7.13-5.42,10.42c0,0,0,0,0,0h0c0,0,0,0,0,0c0,0,0,0,0,0l0.05,0c-8.97,0.02-17.93,0.04-26.9,0.07
	c-1.33,0.4-1.94,1.2-1.3,2.7c0.27,0.78,0.88,1.01,1.57,1.11c0.59-0.02,1.17-0.07,1.76-0.07c25.11,0,50.23,0,75.34,0
	c0.48,0,0.96,0.03,1.44,0.05c0,0,0,0,0,0c0,0,0,0,0,0c0.09-0.04,0.17-0.07,0.26-0.11c0,0,0,0,0,0c0,0,0,0,0,0
	C90.4,64.19,90.72,63.58,91.1,63.05z M37.37,60.75c0.07-0.03,0.14-0.07,0.21-0.12h0C37.51,60.68,37.44,60.72,37.37,60.75z"/>
</svg>
