<?xml version="1.0" encoding="utf-8"?>
<!-- Generator: Adobe Illustrator 23.0.1, SVG Export Plug-In . SVG Version: 6.00 Build 0)  -->
<svg version="1.1" id="Layer_1" xmlns="http://www.w3.org/2000/svg" xmlns:xlink="http://www.w3.org/1999/xlink" x="0px" y="0px"
	 viewBox="0 0 100 100" style="enable-background:new 0 0 100 100;" xml:space="preserve">
<g>
	<path d="M72.2,44c4.4,1.4,8.6,2.7,12.8,4.1c3.1,1.1,5.1,4.5,5,7.8c0,1.1-0.4,1.4-1.4,1.4c-2.5,0-5,0-7.5,0c-23.1,0-46.2,0-69.4,0
		c-0.9,0-1.8,0.3-1.9-1.3c0-7.1,0.1-14.2,1.1-21.2c0.1-0.7-0.3-1.8,0.9-2c1-0.2,1.1,0.8,1.5,1.4c4.8,7.2,16.7,7.4,21.8,0.5
		c1-1.3,1.7-2.8,1.8-4.4c0.1-1.1,0.5-1.1,1.2-0.6c2.9,1.9,6.1,3.4,9.3,4.8c0.8,0.4,1.1,0.8,1,1.6c-0.1,1.4-0.1,2.8,0,4.2
		c0,1.1,0.5,1.9,1.6,1.9c1.2,0.1,1.8-0.7,2-1.9c0-0.3,0-0.5,0-0.8c0.1-3.1,0.1-3.1,2.9-2c1.2,0.5,2.8,0.6,3.4,1.5
		c0.6,0.7,0,2.3,0,3.5c0,0.8-0.1,1.6,0.1,2.4c0.2,1,0.8,1.7,2,1.6c1-0.1,1.6-0.7,1.6-1.7c0-0.2,0-0.4,0-0.6c0.1-3.9,0.1-3.8,3.8-2.7
		c1.9,0.6,3.7,0.9,2.7,3.7c-0.4,1.1-0.1,2.5,0,3.8c0.1,1.2,0.8,1.9,1.9,1.9c1,0,1.7-0.8,1.7-1.9C72.2,47.6,72.2,45.9,72.2,44z"/>
	<path d="M50.1,60.2c12.6,0,25.2,0,37.8,0c1.5,0,2.1,0.3,2,2C89.8,66,89.9,66,86,66c-24.4,0-48.8,0-73.1,0.1c-1.9,0-2.4-0.6-2.6-2.3
		c-0.4-3.6-0.5-3.6,3-3.6C25.6,60.2,37.9,60.2,50.1,60.2z"/>
</g>
</svg>
