<?xml version="1.0" encoding="utf-8"?>
<!-- Generator: Adobe Illustrator 23.0.1, SVG Export Plug-In . SVG Version: 6.00 Build 0)  -->
<svg version="1.1" id="Ballet_falts" xmlns="http://www.w3.org/2000/svg" xmlns:xlink="http://www.w3.org/1999/xlink" x="0px"
	 y="0px" viewBox="0 0 100 31.9" style="enable-background:new 0 0 100 31.9;" xml:space="preserve">
<g>
	<path d="M25.4,29.1c0,0.6-0.1,1.3-0.1,1.9c-6.9,0-13.8,0-20.6,0c0-0.1-0.1-0.2-0.1-0.3c0.3-2.3-0.5-4-1.7-5.7
		c-3-4.2-3.4-9.2-2.4-14.3c0.6-3.3,1.6-6.5,2.4-9.7c0.3-1.3,0.9-1.2,1.7-0.8c4.4,1.9,8.8,4,13.3,5.8c8.4,3.5,16.8,7,25.5,9
		c4.2,1,8.6,1.4,12.9,2c0.3,0,0.8-0.3,1.1-0.7c2.4-4,4-8.3,4.3-13.4c1.9-0.5,3.8-0.4,5.5,0.7c0.3,0.2,0.6,0.8,0.7,1.3
		c0.6,4.1,0.1,8-1.2,11.9c4.7,0.5,8.7-1.2,10.3-5.9c0.1-0.3,0.7-0.7,0.9-0.6c6.9,2.1,13.8,4.2,20.3,7.7c1.8,1,2.4,3.5,1.3,5.4
		c-0.1,0.2-0.4,0.4-0.7,0.5c-12.7,6.3-25.8,8.9-39.5,7.6c-9.4-0.8-18.7-1.7-28.1-2.5C29.3,29,27.4,29.1,25.4,29.1z"/>
</g>
</svg>
