<?xml version="1.0" encoding="utf-8"?>
<!-- Generator: Adobe Illustrator 23.0.1, SVG Export Plug-In . SVG Version: 6.00 Build 0)  -->
<svg version="1.1" id="Boots" xmlns="http://www.w3.org/2000/svg" xmlns:xlink="http://www.w3.org/1999/xlink" x="0px" y="0px"
	 viewBox="0 0 100 80.6" style="enable-background:new 0 0 100 80.6;" xml:space="preserve">
<g>
	<path d="M6.5,7.2c5.8,0,11.6,0,17.5,0c0.4,0,0.8,0,1.2,0c1,0.2,1.6,0.8,1.6,1.8c0,1.1-0.6,1.7-1.6,1.9c-0.4,0.1-0.9,0.1-1.4,0.1
		c-5.8,0-11.6,0-17.3,0c-0.5,0-1.1,0.1-1.6,0.1c0,7.3,0,14.4,0,21.8c0.7,0,1.3,0,1.9,0c12.8,0.4,22.3,6.2,28.2,17.6
		c1.8,3.4,2.7,7.2,3.9,10.8c0.4,1.1,0.8,1.8,1.9,2.3c3.2,1.7,6.4,3.6,9.6,5.4c0.6,0.3,1.3,0.5,1.9,0.5c4.3,0,8.6,0,12.9,0
		c2.3,0,1.9,0.1,2-1.9c0.1-4.4,3-8,7.3-9c0.8-0.2,1.7-0.2,2.6-0.3c3.4-0.5,5.5-3.7,4.6-6.8c-3.4-0.5-6.8-0.7-10-1.5
		c-15-3.4-26.1-17.1-26.5-32.5c-0.1-5,0-10-0.1-15c0-2.3-0.4-2.7-2.7-2.7c-11.5,0-23,0-34.5,0c-0.5,0-1-0.1-1.4,0.1
		C5.9,0.5,5,1,5,1.6C4.8,3.4,4.9,5.3,4.9,7.3C5.5,7.2,6,7.2,6.5,7.2z"/>
	<path d="M98.5,66.1c-5.7,2.3-11.4,4.6-17.1,6.8c-0.7,0.3-1.5,0.4-2.3,0.4c-9.3,0-18.5,0-27.8,0c-0.8,0-1.7-0.3-2.4-0.7
		c-3.6-2-7.1-4-10.6-6c-0.6-0.4-1.5-0.6-2.2-0.6c-11,0-22.1,0-33.1,0c-0.6,0-1.1,0.1-1.8,0.1c0,4.3,0,8.5,0,12.7
		c0,1.3,0.9,1.8,2.1,1.8c9.5,0,19.1,0,28.6,0c1.5,0,2.1-0.7,2.2-2.2c0-1.2,0-2.5,0-4c0.7,0.3,1.2,0.5,1.6,0.7
		c3.2,1.6,6.4,3.2,9.6,4.8c0.8,0.4,1.8,0.7,2.7,0.7c11.4,0,22.7,0,34.1,0.1c5.2,0,9.5-1.9,13.3-5.4c2.7-2.6,4.2-5.8,4.6-9.7
		C99.4,65.8,99,65.9,98.5,66.1z"/>
	<path d="M33.8,57.4c-1.2-4.1-3-7.8-5.8-11c-6.2-7-14-10.1-23.3-9.8c-0.5,0-1.2,0.6-1.3,1.1c-1,3.3-2.1,6.6-2.8,10
		c-0.9,4.7-0.7,9.6,0.2,14.4c11.5,0,22.9,0,34.4,0C34.7,60.5,34.2,59,33.8,57.4z"/>
	<path d="M71,69.6c2.2,0,4.4,0.1,6.5,0c1.3-0.1,2.6-0.3,3.8-0.7c5.7-2.2,11.4-4.6,17.1-6.8c1.2-0.5,1.3-1,0.9-2.1
		c-2-5.7-7.6-9.2-13.9-8.5c0,0.7,0,1.4,0,2.1c-0.2,4.7-4,8.5-8.7,8.7C72.5,62.6,70.5,65,71,69.6z"/>
</g>
</svg>
