<?xml version="1.0" encoding="utf-8"?>
<!-- Generator: Adobe Illustrator 23.0.1, SVG Export Plug-In . SVG Version: 6.00 Build 0)  -->
<svg version="1.1" id="Espadrilles" xmlns="http://www.w3.org/2000/svg" xmlns:xlink="http://www.w3.org/1999/xlink" x="0px"
	 y="0px" viewBox="0 0 100 40.5" style="enable-background:new 0 0 100 40.5;" xml:space="preserve">
<g>
	<path d="M99.9,27.1c-6.5,1.1-13,2.5-19.6,3.2c-7.1,0.6-14.4,0.7-21.5,0.6C41,30.7,23.3,30.3,5.5,30c-0.4,0-0.8,0-1.3,0
		C-1,20.2-1.4,10.3,3,0c14.4,5.2,28.6,10.7,44.4,10.9c-1.6,3.5-3,6.7-4.5,10.1c1.1,0.5,2.1,1,3.3,1.5c2.3-5.2,4.6-10.2,6.9-15.3
		c0.8-1.9,1.7-3.8,2.6-5.7c0.5-1.1,1.2-1.3,2.2-0.5C67.9,9,79.4,13.2,92.4,13.6c4.7,0.1,7.7,3.5,7.6,8.1C100,23.4,100,25,99.9,27.1z
		"/>
	<path d="M4.9,39.6c0-1.2,0-2.3,0.1-3.6c0.4,0,0.8,0,1.2,0c20.6,0.3,41.2,0.7,61.8,1c10.6,0.1,21-1.4,31.2-4c0.2,0,0.4-0.1,0.6-0.1
		c0,0.2,0,0.4,0,0.6c0,0.9,0,1.8,0,3c-4.9,0.9-9.8,2.3-14.7,2.7c-7.8,0.7-15.7,1.3-23.6,1.2C43,40.4,24.6,39.9,6.2,39.6
		C5.8,39.6,5.4,39.6,4.9,39.6z"/>
	<path d="M5,37.2c0-1.2,0-2.3,0.1-3.6c0.4,0,0.8,0,1.2,0c20.6,0.3,41.2,0.7,61.8,1c10.6,0.1,21-1.4,31.2-4c0.2,0,0.4-0.1,0.6-0.1
		c0,0.2,0,0.4,0,0.6c0,0.9,0,1.8,0,3c-4.9,0.9-9.8,2.3-14.7,2.7c-7.8,0.7-15.7,1.3-23.6,1.2C43.1,38,24.7,37.5,6.3,37.2
		C5.9,37.2,5.5,37.2,5,37.2z"/>
</g>
</svg>
