<?xml version="1.0" encoding="utf-8"?>
<!-- Generator: Adobe Illustrator 23.0.1, SVG Export Plug-In . SVG Version: 6.00 Build 0)  -->
<svg version="1.1" id="Flip_flops" xmlns="http://www.w3.org/2000/svg" xmlns:xlink="http://www.w3.org/1999/xlink" x="0px" y="0px"
	 viewBox="0 0 100 35.4" style="enable-background:new 0 0 100 35.4;" xml:space="preserve">
<style type="text/css">
	.st0{display:none;}
	.st1{display:inline;}
	.st2{display:inline;fill:#BEBEBE;}
</style>
<g class="st0">
	<path class="st1" d="M91,55.1c-5.4,0.9-10.7,2.1-16.2,2.6C68.9,58.2,63,58.3,57,58.2c-14.7-0.1-29.3-0.5-44-0.7c-0.3,0-0.7,0-1,0
		c-4.3-8.1-4.7-16.2-1-24.8c11.9,4.3,23.6,8.9,36.6,9c-1.3,2.9-2.5,5.5-3.7,8.3c0.9,0.4,1.8,0.8,2.7,1.2c1.9-4.3,3.8-8.5,5.7-12.6
		c0.7-1.6,1.4-3.1,2.1-4.7c0.4-0.9,1-1.1,1.8-0.4C64.5,40.2,74,43.7,84.7,44c3.9,0.1,6.3,2.8,6.3,6.7C91,52.1,91,53.4,91,55.1z"/>
	<path class="st1" d="M12.6,65.4c0-1,0-1.9,0.1-3c0.4,0,0.7,0,1,0c17,0.3,34,0.6,51,0.8c8.7,0.1,17.3-1.2,25.8-3.3
		c0.1,0,0.3-0.1,0.5-0.1c0,0.2,0,0.3,0,0.5c0,0.7,0,1.5,0,2.5c-4,0.8-8.1,1.9-12.1,2.2c-6.5,0.6-13,1.1-19.5,1
		c-15.2-0.1-30.4-0.4-45.5-0.7C13.3,65.4,13,65.4,12.6,65.4z"/>
	<path class="st1" d="M12.6,63.5c0-1,0-1.9,0.1-3c0.4,0,0.7,0,1,0c17,0.3,34,0.6,51,0.8c8.7,0.1,17.3-1.2,25.8-3.3
		c0.1,0,0.3-0.1,0.5-0.1c0,0.2,0,0.3,0,0.5c0,0.7,0,1.5,0,2.5c-4,0.8-8.1,1.9-12.1,2.3c-6.5,0.6-13,1.1-19.5,1
		c-15.2-0.1-30.4-0.4-45.5-0.7C13.4,63.5,13.1,63.5,12.6,63.5z"/>
</g>
<g class="st0">
	<path class="st1" d="M35.3,64.8c-5.7,0.2-11.4,0.5-17.1,0.6c-1.9,0-3.8-0.3-5.6-0.5c-0.7-0.1-1.4-0.5-2-0.8
		c-1.1-0.6-1.7-1.5-1.6-2.9c0.1-1,0-2,0-3c-0.1-1.5,0.3-2.3,1.7-2.8c1.8-0.6,3.6-1,5.5-1.2c6.2-0.8,12.5-0.8,18.8-0.8
		c0.5,0,1.2-0.3,1.6-0.6c4.2-4.8,9.7-7.2,15.7-8.4c3.9-0.8,7.9-1.2,12-0.9c3.3,0.2,6.4,1.1,9,3.5c1.1,1,2.1,2,2.7,3.3
		c0.3,0.7,0.9,0.7,1.5,0.7c3.8,0.3,7.7,0.7,11.5,1.1c0.7,0.1,1.4,0.4,2,0.7c1.4,0.6,2.1,1.6,2,3.2c-0.1,0.8,0,1.5,0,2.3
		c0,2-0.9,3.5-2.7,4c-2.8,0.9-5.6,1.8-8.5,2.3c-7.6,1.3-15.2,1.1-22.9,0.9C51,65.5,43.1,65.1,35.3,64.8z M91.6,57.8
		c-1.5,0.5-2.9,1.2-4.3,1.5c-5.6,1.5-11.4,1.8-17.2,1.8c-8.1,0-16.2-0.5-24.4-0.6c-7.4-0.1-14.8,0.2-22.2,0.1
		c-3.5,0-6.9-0.2-10.4-0.4c-0.9,0-1.8-0.5-2.7-0.7c-0.4,2.7,0.1,3.6,2.6,4.3c1,0.3,2.1,0.5,3.1,0.5c3.5-0.1,7-0.4,10.5-0.4
		c11.3,0.1,22.5,0.4,33.8,0.6c7,0.1,14,0.2,20.9-0.9c2.9-0.5,5.8-1.4,8.6-2.3C91.6,60.7,92,59.5,91.6,57.8z M42.4,58.6
		c0,0.2,0,0.3,0,0.5c1.2,0,2.3,0,3.5,0c6.5,0.3,13.1,0.7,19.6,0.8c5.4,0,10.7-0.3,16.1-0.7c2.5-0.2,5-1,7.5-1.7
		c0.9-0.3,1.7-1,2.4-1.7c0.5-0.5,0.3-1.1-0.3-1.5c-0.4-0.2-0.8-0.4-1.1-0.5c-4-1.3-8.1-1.2-12.2-1.5c-0.2,0-0.3,0.1-0.6,0.2
		c0.1,0.4,0.3,0.8,0.3,1.2s-0.2,0.8-0.2,1.2c-0.3-0.3-0.8-0.5-0.9-0.8c-0.3-1.7-1.4-2-2.9-1.8c-0.4,0-0.8,0-1.3,0
		c-3.4,0-6.7,0-9.6,2.2c-0.3,0.3-0.8,0.4-1.1,0.5c-4.3,1.8-8.8,2.7-13.5,2.9C46.1,58,44.2,58.4,42.4,58.6z M41,55.3
		c0-0.1,0-0.2,0-0.3c-1.8-0.1-3.7-0.3-5.5-0.2C29.2,55,23,55.2,16.7,55.5c-1.8,0.1-3.6,0.6-5.4,1c-0.3,0.1-0.8,0.5-0.8,0.8
		c0,0.3,0.4,0.8,0.7,0.9c0.7,0.3,1.5,0.8,2.3,0.8c2.6,0.2,5.3,0.4,7.9,0.4c4.3,0,8.6-0.2,12.9-0.3c0.8,0,1.3-0.3,1.8-0.8
		c0.8-0.8,1.7-1.3,2.6-1.9C39.5,55.9,40.3,55.6,41,55.3z M43.2,53.4c0,0.1,0,0.2,0,0.3c0.3,0,0.7,0.1,1,0.1c1.9-0.1,3.8-0.3,5.6-0.5
		c3.2-0.3,6.2-0.9,9.1-2.4c3.4-1.7,7-3.2,10.5-4.8c-0.2-0.1-0.6-0.3-0.9-0.5c-3.2-1-6.5-1.2-9.7-0.5c-4.9,1-9.2,3.6-13.3,6.4
		C44.8,52.2,44,52.8,43.2,53.4z M72.1,48.2c-1.7-0.8-3-0.5-4.3,0.1c-2.7,1.2-5.3,2.4-7.9,3.6c-4.2,2-8.5,3.3-13.1,3.6
		c-2.5,0.2-5,1.1-7.5,1.8c-0.7,0.2-1.3,0.8-2,1.2c0.2,0.2,0.3,0.3,0.4,0.2c3.7-1.6,7.7-1.9,11.6-2.2c5.3-0.3,10.2-1.7,14.8-4.4
		c2.1-1.2,4.4-2.3,6.6-3.4C71.2,48.7,71.5,48.5,72.1,48.2z M38,53.4c1.6,0.5,2.7,0.4,4-0.5c3.1-2.2,6.4-4.2,9.6-6.3
		c0.3-0.2,0.6-0.3,0.9-0.5C46.9,47,42,49,38,53.4z M74.6,51c0.1-0.1,0.2-0.3,0.3-0.4c-0.5-0.5-1.1-1.4-1.4-1.4
		c-1.3,0.3-2.5,0.9-3.8,1.5c0,0.1,0.1,0.2,0.1,0.3C71.4,51,73,51,74.6,51z"/>
	<path class="st2" d="M91.6,57.8c0.3,1.7-0.1,2.9-1.6,3.4c-2.8,0.9-5.7,1.8-8.6,2.3c-6.9,1.1-13.9,1.1-20.9,0.9
		c-11.3-0.2-22.5-0.5-33.8-0.6c-3.5,0-7,0.3-10.5,0.4c-1,0-2.1-0.2-3.1-0.5c-2.5-0.7-3-1.6-2.6-4.3c0.9,0.3,1.8,0.7,2.7,0.7
		c3.5,0.2,6.9,0.4,10.4,0.4c7.4,0,14.8-0.2,22.2-0.1c8.1,0.1,16.3,0.6,24.4,0.6c5.8,0,11.6-0.3,17.2-1.8
		C88.7,58.9,90.1,58.3,91.6,57.8z"/>
	<path class="st2" d="M42.4,58.6c1.8-0.2,3.7-0.5,5.5-0.6c4.7-0.2,9.2-1.1,13.5-2.9c0.4-0.2,0.8-0.3,1.1-0.5
		c2.9-2.2,6.2-2.2,9.6-2.2c0.4,0,0.8,0,1.3,0c1.5-0.2,2.6,0.2,2.9,1.8c0.1,0.3,0.6,0.5,0.9,0.8c0.1-0.4,0.3-0.8,0.2-1.2
		c0-0.4-0.2-0.8-0.3-1.2c0.3-0.1,0.5-0.2,0.6-0.2c4.1,0.2,8.2,0.2,12.2,1.5c0.4,0.1,0.8,0.3,1.1,0.5c0.7,0.4,0.8,1,0.3,1.5
		c-0.7,0.7-1.5,1.5-2.4,1.7c-2.5,0.7-5,1.5-7.5,1.7c-5.3,0.4-10.7,0.7-16.1,0.7c-6.5,0-13.1-0.5-19.6-0.8c-1.2,0-2.3,0-3.5,0
		C42.4,58.9,42.4,58.7,42.4,58.6z"/>
	<path class="st2" d="M41,55.3c-0.8,0.3-1.6,0.5-2.3,1c-0.9,0.5-1.9,1.2-2.6,1.9c-0.6,0.5-1.1,0.8-1.8,0.8
		c-4.3,0.1-8.6,0.3-12.9,0.3c-2.6,0-5.3-0.2-7.9-0.4c-0.8-0.1-1.6-0.5-2.3-0.8c-0.3-0.2-0.7-0.6-0.7-0.9c0-0.3,0.5-0.7,0.8-0.8
		c1.8-0.4,3.6-0.9,5.4-1c6.3-0.3,12.5-0.5,18.8-0.7c1.8,0,3.7,0.2,5.5,0.2C41,55.1,41,55.2,41,55.3z"/>
	<path class="st2" d="M72.1,48.2c-0.6,0.3-1,0.5-1.3,0.7c-2.2,1.1-4.4,2.1-6.6,3.4c-4.6,2.7-9.5,4-14.8,4.4
		c-3.9,0.2-7.9,0.5-11.6,2.2c-0.1,0-0.2,0-0.4-0.2c0.7-0.4,1.3-1,2-1.2c2.5-0.7,4.9-1.6,7.5-1.8c4.7-0.3,9-1.6,13.1-3.6
		c2.6-1.3,5.3-2.5,7.9-3.6C69.1,47.7,70.5,47.4,72.1,48.2z"/>
	<path class="st2" d="M38,53.4C42,49,46.9,47,52.4,46c-0.3,0.2-0.6,0.3-0.9,0.5c-3.2,2.1-6.5,4-9.6,6.3C40.7,53.7,39.6,53.9,38,53.4
		z"/>
</g>
<path d="M100,21.3c0-0.9-0.2-1.3-0.7-1.4c-1.2-0.1-2.4-0.3-3.5-0.3c-4,0-8,0.4-12.1,0.2c-0.4-2.3-0.7-4.6-1.3-6.9
	c-0.1-0.3-0.2-0.7-0.3-1c-0.3-1.7-0.9-3.2-1.3-4.9c0.3-1,0.4-2-0.1-2.9c-0.3-1-0.8-1.6-1.4-1.9c-0.9-0.9-1.8-1-2.8-1.1
	c-0.7-0.1-1.4,0-2.1,0C74.2,1,74,0.9,73.8,1c-0.7-0.2-1.5-0.5-2.2,0.2c0,0-0.1,0-0.1,0c0-0.2-0.1-0.4-0.1-0.7
	C70.6-0.2,69.8,0,69,0.2c-0.8,0.2-1.7,0.1-2.5,0.3c-0.4,0.1-0.7-0.1-1,0.4c-0.8-0.3-1.5-0.2-2.3-0.2c-1.6-0.1-3.1,0-4.7,0
	c-0.3,0-0.5,0-0.8,0.2c-0.2,0.1-0.4,0.1-0.6,0.2c-0.9,0.1-1.8,0.4-2.7,0.9c-0.9,0.3-1.7,0.7-2.5,1.3C50.6,4,49.2,5,47.9,6.3
	c0,0,0,0,0,0l0,0l0,0l0,0c-0.4,0.2-0.8,0.4-1.1,0.9c-0.1,0.1-0.2,0.1-0.3,0.2c-0.7,0.3-1.2,0.9-1.8,1.4c-1.7,1.4-3.5,2.9-5.2,4.4
	c-0.6,0.5-1.3,1-1.9,1.6c-0.7,0.4-1.4,0.9-2.1,1.6c-0.6,0.4-1.2,0.9-1.8,1.3l0,0l0,0c-1.7,0.8-3.3,2-4.8,3.3
	c-0.3,0.2-0.6,0.3-0.9,0.5c-6.5,0-13-0.1-19.5,0c-2.6,0.1-5.2,0.2-7.7,1.2c-0.3,0.1-0.6,0.2-0.8,0.6l0,0c0,3.2,0,6.4,0,9.6
	c0,1.1,0.3,1.5,0.9,1.3c0.4-0.2,0.7,0.1,1,0.3c0.2,0.1,0.3,0.1,0.5,0c0.7,0.3,1.4,0.5,2.1-0.2C4.7,34,4.9,34,5.2,34l0,0
	c0.1,0.1,0.2,0.4,0.4,0.4c1.1,0.1,2.2,0.4,3.3-0.1c0.2-0.2,0.4-0.4,0.7-0.2c1.3,0.8,2.6,0.5,3.9,0c0.3-0.1,0.5,0,0.7,0.1
	c0.7,0.3,1.4,0.6,2.1-0.2c0.2-0.2,0.4-0.1,0.6,0.1c0.5,0.4,1,0.4,1.6-0.1c0.3-0.2,0.5-0.1,0.7,0c0.6,0.4,1.1,0.5,1.7-0.1
	c0.2-0.3,0.5-0.1,0.7,0.1c0.4,0.3,0.9,0.5,1.3-0.1c0,0,0-0.1,0,0c0.8,0.6,1.6-0.2,2.3,0.2c0.1,0.1,0.3,0.3,0.4,0.2
	c0.7-0.5,1.5,0.1,2.2-0.3c0,0,0.1-0.1,0.1-0.1c0.9,0.7,1.7,0,2.6,0.3c0.6,0.2,1.3,0.4,1.9-0.1c0.1-0.1,0.3-0.1,0.4,0
	c1.2,0.8,2.3,0.8,3.5,0.1c0.2-0.1,0.4,0,0.6,0.2c0.6,0.4,1.1,0.6,1.7,0c0.1-0.1,0.1-0.2,0.2-0.1c0.8,1,1.8-0.2,2.6,0.4
	c0.3,0.2,0.6,0.3,0.8,0.1c0.5-0.3,1-0.8,1.5,0c0.6-1,1.4,0.9,2-0.4c0-0.1,0.2-0.1,0.3,0c0.5,0.6,1,0.8,1.5,0.1
	c0.2-0.2,0.4,0,0.6,0.2c0.4,0.3,0.8,0.5,1.2,0c0.3-0.3,0.5-0.2,0.8,0.1c0.4,0.4,0.9,0.5,1.3,0c0,0,0.1-0.1,0.1-0.1
	c0.8,0.4,1.6-0.1,2.4,0.2c0.2,0.1,0.4,0.4,0.5,0.3c0.8-0.7,1.5,0,2.3,0.1c0.3,0,0.7,0,0.9-0.3c0.2-0.2,0.4-0.3,0.6-0.1
	c0.4,0.4,0.8,0.5,1.1,0c0.1-0.2,0.3,0,0.5,0.1c0.1,0.1,0.3,0.3,0.4,0.3c1-0.4,2,0.1,2.9-0.3c0.2-0.1,0.3-0.1,0.5,0
	c1,0.8,2.1,0.8,3.1,0c0.2-0.1,0.3-0.1,0.5,0c1.2,0.9,2.4,0.7,3.6,0.1c0.2-0.1,0.4-0.2,0.6-0.1c1.3,0.8,2.7,0.7,4-0.1
	c0.2-0.1,0.3-0.1,0.5,0.1c0.4,0.4,0.8,0.4,1.2,0.3c0.9,0,1.9,0.4,2.7-0.5c0.3-0.3,0.6,0.2,0.8,0.3c0.1,0.1,0.2,0.1,0.3,0.1
	c0.1,0,0.3,0,0.4,0c1,0.1,1.9,0.1,2.8-0.6c0.5-0.4,0.8,0.4,1.2,0.3c0.5,0,1.1,0.1,1.6-0.5c0,0,0.1-0.1,0.1-0.1
	c0.9,1,1.8-0.5,2.6,0.1c0.3,0.2,0.8,0.1,1.1-0.2c0.3-0.3,0.5-0.5,0.8-0.1c0.6,0.5,1-0.2,1.5-0.5l0,0c0.2,0.3,0.5,0.4,0.8,0.2
	c0.5-0.2,1.1-0.3,1.6-0.4c0.2,0,0.4,0,0.6-0.3c0.5,0.1,0.9,0.4,1.3-0.3c0.2-0.3,0.4,0,0.5,0.1c0.2,0.1,0.5,0.3,0.7,0l0,0
	c0.9-0.6,1.3-1.3,1.3-3c0-0.4,0-0.9,0-1.3C100,26,100,23.7,100,21.3z M3.6,29.3c0,0-0.1,0.1-0.2,0c0-0.2,0.1-0.4,0.2-0.5
	C3.6,29,3.6,29.2,3.6,29.3z M20.9,22.6C20.9,22.6,20.9,22.6,20.9,22.6c0.3,0,0.5,0,0.8,0C21.4,22.6,21.2,22.6,20.9,22.6z M67.1,20
	c-3.4,0.1-6.7,0.4-10.1,0.4c-0.6,0-1.3,0-1.9,0.7c0,0.1,0,0.2-0.1,0.3c-1.2-0.2-2.4-0.2-3.6-0.2c-1.1-0.2-2.2-0.3-3.4-0.1
	c-1.1,0.2-2.2-0.6-3.3-0.4c-0.9,0.2-1.7,0.1-2.6,0.3c-0.3,0.1-0.5,0-0.7-0.1c0.1,0,0.2-0.1,0.3-0.1c0.1,0.1,0.2,0.2,0.3,0.2
	c0.2,0,0.4,0,0.7-0.2c0.1-0.2,0.1-0.3,0.2-0.5c0.6-0.2,1.1-0.4,1.7-0.6c1.3,0,2.5-0.3,3.8-0.9c2-0.7,3.9-2,5.8-3.4
	c1.4-0.9,2.8-2.1,4.2-3.3c0.2,0,0.4-0.2,0.5-0.4c0.5-0.4,0.9-0.8,1.4-1.3c0,0,0.1-0.1,0.1-0.1c0.5-0.3,1.1-0.8,1.6-1.3
	c2-1.5,4-3.1,6.1-4c1.2-0.4,2.4-0.7,3.6-1.1l0,0c1,0,2.1,0,3.1,0c0.5,0.1,1,0.4,1.4,1.1c0,0,0,0.1,0,0.1c-0.1,0.6,0.1,0.9,0.3,1.3
	c1.1,3.1,2.2,6.2,2.9,9.6c0.2,1,0.4,2.1,0.5,3.1c-0.6,0.2-1.3,0.2-1.9,0.3C74.4,19.7,70.8,19.9,67.1,20z M81.2,26.3
	C81.2,26.3,81.2,26.3,81.2,26.3C81.2,26.3,81.2,26.3,81.2,26.3C81.2,26.3,81.2,26.3,81.2,26.3z"/>
</svg>
