<?xml version="1.0" encoding="utf-8"?>
<!-- Generator: Adobe Illustrator 23.0.1, SVG Export Plug-In . SVG Version: 6.00 Build 0)  -->
<svg version="1.1" id="Layer_1" xmlns="http://www.w3.org/2000/svg" xmlns:xlink="http://www.w3.org/1999/xlink" x="0px" y="0px"
	 viewBox="0 0 100 74.3" style="enable-background:new 0 0 100 74.3;" xml:space="preserve">
<g>
	<path d="M0.4,21.2c0.5-1.9,0.9-3.8,1.4-5.6c0.8-3.1,1.4-6.2,2-9.4c0.4-1.6,0.8-3.1,1-4.7C5-0.2,6.9-0.3,7.5,0.5
		C9,2,10.5,3.8,12,5.3c1,1.1,2,2.1,3,3.1c1.5,1.5,3,3.1,4.4,4.6c3,3.1,5.9,6.3,8.9,9.5c1.5,1.6,3,3.4,4.6,5c3,3.2,6,6.4,9,9.6
		c1.8,1.9,3.5,3.7,5.3,5.6c1.8,1.9,3.5,3.9,5.4,5.8c1.3,1.3,2.9,1.8,4.6,2.1c2.6,0.6,5-0.5,7.5-1.1c1.5-0.4,3-0.9,4.5-1.4
		c1.4-0.5,2.6,0,4,0.5c5.6,2.2,11.1,4.4,16.8,6.5c4.3,1.6,7.3,4.5,9,8.6c0.8,1.6,1.1,3.4,1.1,5.2c0,1.3,0,2.4,0,3.6
		c0,0.9-0.6,1.5-1.5,1.5c-15.6,0-31.1,0-46.8,0c-2.4,0-4.6-1.1-6.5-2.6c-1.6-1.3-3.1-2.7-4.6-4.1c-2.6-2.6-5.4-5.2-8-7.7
		c-3.1-3-6.1-5.9-9.2-8.9c-1.5-1.4-2.9-2.8-4.4-4.1c-0.4-0.4-0.8-0.6-1.3-1c-1,1.4-1.5,2.8-1.5,4.4c0,7.4,0,14.8,0,22.3
		c0,1.5-0.5,2-2,2c-2.1,0-4.2-0.1-6.4,0c-1.1,0.1-1.9-1-2-1.9c-0.1-2.3-0.2-4.5-0.4-6.8C5.3,62.2,5,58.5,4.8,55
		c-0.2-2.5-0.4-5.1-0.6-7.6c-0.2-2.9-0.5-5.8-0.8-8.8c-0.1-2.1-0.2-4.3-0.4-6.5c0-0.3,0-0.8-0.2-0.9c-1.4-1.8-2.1-3.8-2.7-5.9
		C0.4,23.9,0.4,22.5,0.4,21.2z"/>
</g>
</svg>
