<?xml version="1.0" encoding="utf-8"?>
<!-- Generator: Adobe Illustrator 23.0.1, SVG Export Plug-In . SVG Version: 6.00 Build 0)  -->
<svg version="1.1" id="Moccasins" xmlns="http://www.w3.org/2000/svg" xmlns:xlink="http://www.w3.org/1999/xlink" x="0px" y="0px"
	 viewBox="0 0 100 42.8" style="enable-background:new 0 0 100 42.8;" xml:space="preserve">
<g>
	<path d="M99.4,29c-0.1-0.2-0.2-0.3-0.4-0.2c-0.2,0.1-0.4,0.3-0.7,0.4c-0.2,0.1-0.4,0.1-0.4-0.2c-0.1-0.3,0-0.4,0.2-0.5
		c0.2-0.1,0.4-0.2,0.6-0.4c-0.2-0.3-0.4-0.3-0.7-0.2c-2.5,1.3-5,1.9-7.7,1.9c-2.5,0-4.9-0.6-7.3-1.1c-4.3-1-8.7-1.8-13-2.1
		c-2.6-0.2-5.3-0.7-7.8-1.7c-1.8-0.8-3.7-1.4-5.6-2c-1.4-0.4-2.8-0.8-4.2-1.4c-1.1-0.5-1.9-1.3-2.5-2.7c0-0.1,0-0.3-0.2-0.3
		c-0.1,0.2-0.3,0.4-0.2,0.7c0.1,0.6-0.1,0.7-0.5,0.7c0.1,0.4,0.3,0.8,0.5,1.1c0.2-0.6,0.3-0.6,0.7-0.2c0.2,0.2,0.4,0.4,0.7,0.6
		c0.4,0.2,0.4,0.4,0.1,0.8c-0.4,0-0.7-0.3-1.1-0.6c0,0.7-0.2,0.9-0.7,0.8c-6-1-12-2.4-18-4c-1.6-0.4-3.2-0.9-4.8-1.3
		c-0.1,0-0.1-0.1-0.2-0.1c-3.1-0.9-6.3-1.8-9.4-2.8c-3.8-1.1-7.6-2.3-11.4-3.5C5.1,10.5,5,10.6,5,11c-0.3,2.6-0.6,5.1-0.9,7.7
		C4,19.6,4,19.6,3.3,19.7c-0.4,0-0.9,0.1-1.2,0.5c-0.3,0.4-0.7,0.8-0.9,1.3c-0.7,1.3-0.8,2.9-0.5,4.4c0.1,0.9,0.3,1.8,0.7,2.6
		c0.3,1.2,0.9,2.3,1.6,3.2c0.2,0.3,0.5,0.7,0.8,0.9l0,0l0,0c0.9,1.3,2.1,1.8,3.4,2.3c2.2,0.9,4.5,1.1,6.8,1.2
		c1.8,0.1,3.5,0.1,5.3,0.1l0,0c0.6,0.2,1.2,0,1.8,0.1c2,0.2,3.9,0.3,5.9,0.6c2.7,0.3,5.4,0.7,8.1,1.1c1.6,0.2,3.2,0.4,4.8,0.5
		c0.4,0,0.7,0.2,1.1,0.1l0,0l0,0c0.7,0,1.4,0.1,2.1,0.1c2.2,0.1,4.5,0.3,6.7,0.5c4.4,0.4,8.9,0.7,13.3,0.8c2.2,0,4.5,0,6.7,0.1
		c0.1,0,0.2,0,0.2,0c0.5,0,1.1,0,1.6,0c1.1,0,2.2,0,3.3,0c1.4,0,2.7,0,4.1,0c2.1,0,4.3,0.1,6.4,0c3.9-0.1,7.8-0.7,11.6-2.1
		c1.1-0.4,1.8-1.1,2.2-2.4c0.4-1,0.7-2,0.9-3.1c0-0.5,0-1.1,0-1.6C99.9,30.2,99.7,29.5,99.4,29z M1,24c-0.1-0.2,0-0.5,0-0.9
		c0-0.2,0-0.5,0.1-0.8C1,22,1.2,21.9,1.3,22c0.2,0,0.3,0.2,0.3,0.4c0,0.5,0,1.1-0.1,1.6c0,0.2-0.1,0.3-0.2,0.3C1.1,24.3,1,24.2,1,24
		z M1.9,27.4c-0.2,0.1-0.3,0-0.4-0.2c-0.2-0.5-0.3-1-0.3-1.5c0-0.3,0-0.5,0.2-0.5c0.3,0,0.4,0.1,0.4,0.3c0.1,0.4,0.2,0.9,0.3,1.3
		C2.1,27.1,2.1,27.3,1.9,27.4z M3.2,30.2c-0.1,0.1-0.2,0-0.3-0.1c-0.3-0.4-0.5-0.9-0.7-1.5c0-0.1,0-0.3,0.1-0.4
		c0.1-0.1,0.2-0.2,0.3-0.1c0.4,0.4,0.6,1.1,0.9,1.6C3.3,30,3.3,30.2,3.2,30.2z M4.8,32.7c-0.1,0.1-0.2,0.1-0.3,0
		c-0.3-0.4-0.6-0.8-0.9-1.3c-0.1-0.3,0-0.6,0.2-0.6c0,0,0.1,0,0.1,0c0.4,0.4,0.7,0.9,1,1.4C5,32.4,4.9,32.6,4.8,32.7z M53.5,22.9
		c0,0.2-0.2,0.3-0.4,0.3c-0.3-0.1-0.7-0.3-1.1-0.5c-0.2-0.1-0.2-0.3-0.2-0.5c0.1-0.2,0.2-0.3,0.4-0.3c0.4,0.2,0.8,0.3,1.1,0.5
		C53.5,22.5,53.6,22.6,53.5,22.9z M55.9,23.7c0,0.2-0.2,0.3-0.3,0.3c-0.4-0.1-0.8-0.2-1.2-0.4c-0.2-0.1-0.3-0.3-0.2-0.5
		c0-0.2,0.2-0.3,0.4-0.3c0.4,0.1,0.8,0.2,1.2,0.4C55.9,23.2,56,23.4,55.9,23.7z M58.3,24.4c0,0.2-0.1,0.3-0.3,0.3
		c-0.4-0.1-0.8-0.2-1.2-0.4c-0.2-0.1-0.2-0.2-0.2-0.5c0-0.2,0.2-0.3,0.3-0.3c0.4,0.1,0.8,0.2,1.2,0.4C58.3,24,58.4,24.1,58.3,24.4z
		 M60.7,25.3c0,0.2-0.2,0.3-0.4,0.2c-0.3-0.1-0.8-0.3-1.2-0.4C59,25,58.9,24.8,59,24.6c0-0.2,0.2-0.4,0.3-0.3
		c0.4,0.1,0.8,0.3,1.2,0.5C60.7,24.8,60.8,25,60.7,25.3z M63.1,26.2c0,0.2-0.1,0.3-0.4,0.3c-0.3-0.1-0.8-0.3-1.2-0.5
		c-0.1-0.1-0.2-0.2-0.2-0.5c0-0.2,0.2-0.3,0.3-0.3c0.4,0.1,0.9,0.3,1.3,0.5C63.1,25.8,63.1,26,63.1,26.2z M65.5,26.9
		c0,0.2-0.2,0.3-0.3,0.3c-0.4-0.1-0.8-0.2-1.2-0.4c-0.2-0.1-0.3-0.2-0.2-0.5c0-0.3,0.2-0.4,0.4-0.3c0.4,0.1,0.8,0.2,1.2,0.3
		C65.4,26.5,65.5,26.7,65.5,26.9z M67.9,27.4c0,0.3-0.2,0.4-0.4,0.3c-0.4,0-0.7-0.1-1.1-0.2c-0.2,0-0.3-0.2-0.3-0.5
		c0-0.3,0.2-0.4,0.4-0.3c0.4,0.1,0.7,0.1,1.1,0.2C67.8,26.9,68,27.1,67.9,27.4z M69.9,28c-0.1,0-0.1,0-0.2,0v0
		c-0.3,0-0.5-0.1-0.8-0.1c-0.2,0-0.3-0.1-0.3-0.4c0-0.3,0.2-0.4,0.4-0.4c0.3,0,0.7,0.1,1,0.1c0.2,0,0.4,0.1,0.4,0.4
		C70.4,28,70.1,28,69.9,28z M72.5,28.2c-0.2,0-0.4,0-0.5,0v0c-0.2,0-0.4,0-0.7-0.1c-0.2,0-0.3-0.2-0.3-0.4c0-0.3,0.1-0.4,0.3-0.4
		c0.4,0,0.8,0,1.2,0.1c0.2,0,0.3,0.1,0.3,0.4C72.8,28.1,72.7,28.2,72.5,28.2z M75,28.5c-0.4,0-0.7-0.1-1.1-0.1
		c-0.2,0-0.4-0.1-0.4-0.4c0-0.3,0.2-0.4,0.4-0.4c0.1,0,0.2,0,0.3,0c0.3,0,0.5,0.1,0.8,0.1c0.2,0,0.3,0.2,0.3,0.4
		C75.3,28.3,75.2,28.5,75,28.5z M77.8,28.5c0,0.3-0.2,0.4-0.4,0.4c-0.4,0-0.8-0.1-1.1-0.2c-0.2,0-0.4-0.2-0.3-0.5
		c0-0.3,0.2-0.4,0.4-0.3c0.4,0.1,0.7,0.1,1.1,0.2C77.7,28.1,77.8,28.2,77.8,28.5z M80.2,29c0,0.3-0.2,0.3-0.4,0.3
		c-0.3-0.1-0.7-0.1-1-0.2c-0.2,0-0.3-0.2-0.3-0.5c0-0.3,0.2-0.4,0.4-0.3c0.4,0.1,0.7,0.2,1.1,0.2C80.1,28.6,80.2,28.7,80.2,29z
		 M82.3,29.9c-0.4-0.1-0.8-0.2-1.2-0.3c-0.2,0-0.3-0.2-0.3-0.5c0-0.3,0.2-0.3,0.4-0.3c0.4,0.1,0.8,0.2,1.2,0.3
		c0.2,0,0.3,0.2,0.2,0.4C82.6,29.8,82.5,29.9,82.3,29.9z M85.1,30.1c0,0.3-0.2,0.4-0.4,0.3c-0.4-0.1-0.8-0.2-1.1-0.3
		c-0.2,0-0.3-0.2-0.3-0.4c0-0.3,0.2-0.4,0.4-0.3c0.4,0.1,0.8,0.2,1.1,0.3C85,29.7,85.1,29.9,85.1,30.1z M87.5,30.6
		c0,0.4-0.3,0.4-0.5,0.3c-0.3,0-0.6-0.1-1-0.2c-0.2,0-0.3-0.2-0.3-0.5c0-0.3,0.2-0.4,0.4-0.3c0.3,0.1,0.7,0.1,1,0.2
		C87.3,30.1,87.5,30.2,87.5,30.6z M89.6,31.2c-0.2,0-0.4,0-0.5,0c0,0,0,0,0,0c-0.2,0-0.4,0-0.6,0c-0.2,0-0.3-0.2-0.3-0.4
		c0-0.3,0.1-0.4,0.3-0.4c0.4,0,0.8,0,1.2,0.1c0.2,0,0.3,0.1,0.3,0.4C89.9,31.1,89.8,31.2,89.6,31.2z M92.1,31.1
		c-0.4,0-0.8,0.1-1.2,0.1c-0.2,0-0.3-0.1-0.3-0.4s0.1-0.4,0.3-0.4c0.2,0,0.4,0,0.6,0c0,0,0,0,0,0c0.2,0,0.4,0,0.5,0
		c0.2,0,0.3,0.1,0.3,0.4C92.4,31,92.3,31.1,92.1,31.1z M94.6,30.7c-0.4,0.1-0.8,0.2-1.2,0.3c-0.2,0-0.3-0.1-0.4-0.4
		c0-0.3,0.1-0.4,0.3-0.4c0.4-0.1,0.8-0.2,1.1-0.2c0.2,0,0.3,0,0.4,0.3C94.9,30.5,94.8,30.6,94.6,30.7z M97.1,29.7
		c-0.4,0.2-0.8,0.4-1.2,0.5c-0.2,0-0.3-0.1-0.4-0.3c0-0.2,0-0.4,0.2-0.5c0.4-0.2,0.8-0.3,1.2-0.5c0.2-0.1,0.3,0,0.4,0.2
		C97.3,29.5,97.2,29.7,97.1,29.7z"/>
	<path d="M49.7,14.9c0.2,1.2,0.3,2.4,0.8,3.5c0.4,0.9,0.9,1.7,1.7,2.1c0.5,0.2,1,0.4,1.5,0.6c0.2,0.1,0.3,0.1,0.5,0.2
		c0.1,0,0.3,0.1,0.4,0.1c0.2,0.1,0.4,0.1,0.6,0.2c1.8,0.5,3.6,1,5.4,1.8c3.5,1.5,7.1,2.3,10.9,2.5c2.3,0.1,4.7,0.5,7,0.9
		c3.1,0.6,6.2,1.4,9.3,1.9c2.7,0.4,5.3,0.3,8-0.7c0.6-0.2,1.2-0.4,1.8-0.8c-0.2-0.1-0.3-0.2-0.4-0.2c-0.7-0.3-1.4-0.5-2.1-0.6
		c-4.6-0.8-9.1-1.5-13.6-2.6c-5-1.2-9.8-2.9-14.2-6.4c-2.4-1.9-4.8-3.9-7-6.4c-2.2-2.5-4.2-5.4-6.2-8.1c-0.7-1-1.3-2-2.1-2.8
		c-0.1,0-0.3,0-0.5,0c-0.2,0.2-0.4,0.4-0.6,0.6c-1.5,2-2.2,4.3-1.9,7.1C49,10.2,49.4,12.5,49.7,14.9z"/>
	<path d="M85.3,41c-2.4,0-4.9,0-7.3,0c0,0,0,0-0.1,0c0,0-0.1,0-0.1,0c-0.5-0.1-0.9,0-1.4,0c-4.9,0-9.7,0.1-14.6-0.1
		c-2.7-0.1-5.4-0.2-8.1-0.4c-0.8-0.1-0.8-0.1-0.8,1c0,0.6,0.1,1,0.6,1.2c0,0,0,0.1,0,0.1c5.1,0,10.1,0,15.2,0c0,0,0-0.1,0-0.1
		c0.1-0.2,0.1-0.4,0.1-0.6c0-0.3,0-0.4,0.3-0.4c0.2,0,0.4,0,0.4,0.4c0,0.2,0,0.5,0.1,0.7c0.7,0,1.5,0,2.2,0c0-0.1,0.1-0.2,0.1-0.4
		c0-0.1,0-0.3,0-0.4c0-0.4,0.2-0.4,0.4-0.4c0.2,0,0.3,0.1,0.3,0.4c0,0.2-0.1,0.5,0.1,0.7c1.4,0,2.7,0,4.1,0c1.4,0,2.7-0.1,4.1,0
		c0.7,0,1.4,0,2,0c1.6,0,3.2,0,4.8,0c0.8,0,1.7-0.1,2.5-0.3c0.4-0.1,0.6-0.3,0.6-0.9c-0.1-0.5,0.2-0.5,0.5-0.5
		c0.3,0,0.2,0.3,0.2,0.5c0,0.5,0.1,0.6,0.5,0.5c0.2-0.1,0.5-0.1,0.7-0.2c0.7-0.2,0.7-0.2,0.8-1.2c0-0.5,0.3-0.4,0.5-0.4
		c0.2,0,0.1,0.2,0.1,0.4c0,0.5,0.1,0.6,0.5,0.4c0.8-0.4,1.5-0.8,2.1-1.4c0.3-0.2,0.5-0.4,0.8-0.8c-0.1,0-0.1,0-0.2,0
		C93.2,40.3,89.3,40.9,85.3,41z"/>
	<path d="M5.6,9.8c5,1.5,9.9,3,14.9,4.5c1.6,0.5,3.3,1,5,1.4c0.1,0,0.2,0.1,0.3,0.1c3.6,1,7.2,2,10.8,2.9c4.1,1,8.1,1.9,12.3,2.6
		c0.1,0,0.2,0.1,0.4,0c-0.2-0.5-0.5-0.9-0.6-1.5c-0.1-0.4-0.2-0.5-0.5-0.5c-1.8-0.3-3.7-0.7-5.5-1.1c-3.7-0.8-7.4-1.7-11.1-2.7
		c-2.6-0.7-5.1-1.4-7.7-2.1c-0.1,0-0.2-0.1-0.3-0.1c-3.9-1.2-7.7-2.3-11.6-3.5c-1.7-0.5-3.5-1.1-5.2-1.6C6,8,5.5,8.3,5.3,9
		C5.1,9.5,5.1,9.7,5.6,9.8z"/>
	<path d="M28.2,37.9c-2.6-0.3-5.2-0.6-7.8-0.7l0,0c-0.3,0-0.6-0.1-1-0.1c-2.2-0.1-4.5-0.1-6.7-0.2c-1.5-0.1-3-0.3-4.4-0.7
		c-1-0.3-2-0.7-2.9-1.2l0,0c-0.4-0.3-0.7-0.5-1.1-0.8C3,33.1,2,31.7,1.2,30c-0.6-1.3-1-2.7-1.2-4.2c0,0.6,0,1.2,0,1.8
		c0.1,0.7,0.1,1.4,0.2,2.1c0.2,1.1,0.6,2.1,0.9,3.1c0.7,1.9,1.5,3.8,2.1,5.7c0.2,0.6,0.3,1.3,0.7,1.8c0.6,0.8,1.3,1.4,2.1,1.8
		c0.8,0.4,1.7,0.4,2.5,0.6c1,0,2.1,0,3.1,0c0.1,0,0.3,0,0.5,0c4,0,8,0,11.9,0c1.3,0,2.6,0,3.8,0c0,0,0,0,0-0.1
		c0.4-0.2,0.6-0.6,0.6-1.1c0-1.1,0-2.2,0-3.2C28.5,38,28.4,37.9,28.2,37.9z"/>
	<path d="M49.1,40.3c0-0.2-0.1-0.3-0.3-0.3c-1.9-0.2-3.8-0.3-5.7-0.4c-2.4-0.1-4.7-0.3-7.1-0.6c-1.7-0.2-3.4-0.5-5.1-0.7
		c-0.4,0-0.5,0-0.5,0.6c0,0.8,0,1.6,0,2.4c0,0.7,0.1,1.2,0.7,1.5c0.1,0,0.3,0,0.4,0c2.7,0,5.5,0,8.2,0c2.9,0,5.8,0,8.7,0
		c0,0,0,0,0-0.1c0.4-0.1,0.6-0.5,0.6-1C49.2,41.3,49.1,40.8,49.1,40.3z"/>
</g>
</svg>
