<?xml version="1.0" encoding="utf-8"?>
<!-- Generator: Adobe Illustrator 23.0.1, SVG Export Plug-In . SVG Version: 6.00 Build 0)  -->
<svg version="1.1" id="Sandals" xmlns="http://www.w3.org/2000/svg" xmlns:xlink="http://www.w3.org/1999/xlink" x="0px" y="0px"
	 viewBox="0 0 100 40.5" style="enable-background:new 0 0 100 40.5;" xml:space="preserve">
<g>
	<path d="M18,30.6c-0.1-2-0.1-3.8-0.4-5.5c-0.2-0.9-0.8-1.9-1.5-2.6c-3.1-3.4-6.3-6.6-9.5-9.9c-1.2-1.2-1.2-2.1-0.3-3.4
		c1.8-2.5,3.6-4.9,5.5-7.4c1-1.4,1.7-1.4,3.1-0.4c4.3,3.4,8.6,6.7,12.9,10.1c1.7,1.3,2.4,1.3,4.1,0.1C37.2,8,42.3,4.4,47.5,0.8
		c1.6-1.1,2.3-1.1,3.9,0.1c0.6,0.5,1.3,1,1.9,1.5c1.5,1.2,1.6,1.8,0.5,3.3c-3.4,4.5-6.8,9-10.3,13.4c-1.2,1.5-1.5,3-1,4.9
		c0.6,1.9,1,3.8,1.4,5.7c0.2,0.8,0.5,1,1.3,1c1.9-0.1,3.8-0.1,5.8,0c0.9,0,1.5-0.3,2.1-1c4.1-5.1,8.3-10.2,12.4-15.3
		c1.5-1.9,2-2,4.3-1.1c1.2,0.5,2.4,1,3.5,1.5c1.3,0.5,2,1.5,2.1,2.8c0.4,4,0.9,8,1.3,12c0.1,0.9,0.4,1.1,1.3,1.1
		c5.6,0,11.3,0,16.9,0c2.8,0,4.9,1.7,5.2,4.3c0.4,3.2-1.8,5.6-5.2,5.6c-7.5,0-14.9,0-22.4,0c-22.2,0-44.4,0-66.6,0
		c-3.1,0-4.9-1.2-5.6-3.7c-0.8-2.7,0.9-5.5,3.7-6c1-0.2,2-0.2,3.1-0.2C10.5,30.6,14.1,30.6,18,30.6z"/>
</g>
</svg>
