<?xml version="1.0" encoding="utf-8"?>
<!-- Generator: Adobe Illustrator 23.0.1, SVG Export Plug-In . SVG Version: 6.00 Build 0)  -->
<svg version="1.1" id="Layer_1" xmlns="http://www.w3.org/2000/svg" xmlns:xlink="http://www.w3.org/1999/xlink" x="0px" y="0px"
	 viewBox="0 0 100 45.8" style="enable-background:new 0 0 100 45.8;" xml:space="preserve">
<g>
	<path d="M77.8,18.2c5.5,1.7,10.7,3.4,16,5.1c3.9,1.4,6.4,5.6,6.2,9.7c0,1.4-0.5,1.7-1.7,1.7c-3.1,0-6.2,0-9.4,0
		c-28.8,0-57.6,0-86.5,0c-1.1,0-2.2,0.4-2.4-1.6c0-8.9,0.1-17.7,1.4-26.4C1.5,5.9,1,4.5,2.5,4.3C3.7,4,3.9,5.3,4.4,6
		c6,9,20.8,9.2,27.2,0.6c1.2-1.6,2.1-3.5,2.2-5.5c0.1-1.4,0.6-1.4,1.5-0.7c3.6,2.4,7.6,4.2,11.6,6c1,0.5,1.4,1,1.2,2
		c-0.1,1.7-0.1,3.5,0,5.2c0,1.4,0.6,2.4,2,2.4c1.5,0.1,2.2-0.9,2.5-2.4c0-0.4,0-0.6,0-1c0.1-3.9,0.1-3.9,3.6-2.5
		c1.5,0.6,3.5,0.7,4.2,1.9c0.7,0.9,0,2.9,0,4.4c0,1-0.1,2,0.1,3c0.2,1.2,1,2.1,2.5,2c1.2-0.1,2-0.9,2-2.1c0-0.2,0-0.5,0-0.7
		c0.1-4.9,0.1-4.7,4.7-3.4c2.4,0.7,4.6,1.1,3.4,4.6c-0.5,1.4-0.1,3.1,0,4.7c0.1,1.5,1,2.4,2.4,2.4c1.2,0,2.1-1,2.1-2.4
		C77.8,22.7,77.8,20.6,77.8,18.2z"/>
	<path d="M50.2,38.4c15.7,0,31.4,0,47.1,0c1.9,0,2.6,0.4,2.5,2.5c-0.1,4.7,0,4.7-4.9,4.7c-30.4,0-60.8,0-91.1,0.1
		c-2.4,0-3-0.7-3.2-2.9c-0.5-4.5-0.6-4.5,3.7-4.5C19.7,38.4,35,38.4,50.2,38.4z"/>
</g>
</svg>
