<?xml version="1.0" encoding="utf-8"?>
<!-- Generator: Adobe Illustrator 24.1.3, SVG Export Plug-In . SVG Version: 6.00 Build 0)  -->
<svg version="1.1" id="Capa_1" xmlns="http://www.w3.org/2000/svg" xmlns:xlink="http://www.w3.org/1999/xlink" x="0px" y="0px"
	 viewBox="0 0 512 512" style="enable-background:new 0 0 512 512;" xml:space="preserve">
<g id="XMLID_1399_">
	<g id="XMLID_883_">
		<path id="XMLID_1179_" d="M266.33,88.25V10c0-5.52-4.48-10-10-10c-5.52,0-10,4.48-10,10v78.25c-106.76,5.23-192,93.72-192,201.75
			c0,111.38,90.62,202,202,202s202-90.62,202-202C458.33,181.97,373.09,93.48,266.33,88.25z M404.19,184h-57.27
			c-3.9-12.23-8.5-23.71-13.76-34.24c-6.53-13.06-13.86-24.18-21.79-33.25C349.11,128.51,381.55,152.51,404.19,184z M416.69,376
			H352.5c5.72-23.6,9.04-49.33,9.71-76h75.85C436.57,327.37,429,353.14,416.69,376z M172.91,333.81c-0.66-5.48-5.63-9.4-11.12-8.74
			c-5.48,0.66-9.4,5.64-8.74,11.12c1.65,13.75,4.07,27.1,7.16,39.81H95.97c-12.31-22.86-19.87-48.63-21.36-76h40.72
			c5.52,0,10-4.48,10-10s-4.48-10-10-10H74.61c1.49-27.37,9.05-53.14,21.36-76h64.24c-3.1,12.74-5.51,26.11-7.17,39.89
			c-0.66,5.48,3.26,10.46,8.74,11.12c5.49,0.66,10.46-3.26,11.12-8.74c1.79-14.93,4.46-29.1,7.88-42.27h65.55v76h-41
			c-5.52,0-10,4.48-10,10s4.48,10,10,10h41v76h-65.54C177.38,362.85,174.7,348.71,172.91,333.81L172.91,333.81z M266.33,184v-74.7
			c24.09,6.22,45.48,34.5,59.38,74.7H266.33z M331.76,204c5.99,22.98,9.7,48.81,10.44,76h-75.86v-76L331.76,204z M246.33,109.3V184
			h-59.52C200.85,143.37,222.49,115.48,246.33,109.3z M246.33,396v74.7c-23.83-6.18-45.48-34.07-59.52-74.7L246.33,396z
			 M266.33,470.7V396h59.38C311.81,436.2,290.42,464.48,266.33,470.7z M266.33,376v-76h75.86c-0.74,27.19-4.45,53.02-10.44,76
			H266.33z M362.21,280c-0.66-26.67-3.99-52.4-9.71-76h64.19c12.31,22.86,19.87,48.63,21.36,76H362.21z M201.4,116.48
			c-4.71,5.34-9.2,11.39-13.41,18.11c-8.76,13.99-16.25,30.77-22.19,49.4h-57.33C131.14,152.48,163.61,128.47,201.4,116.48
			L201.4,116.48z M108.48,396h57.33c5.94,18.65,13.43,35.43,22.2,49.43c4.21,6.72,8.69,12.76,13.39,18.09
			C163.61,451.53,131.14,427.52,108.48,396z M311.36,463.49c7.94-9.07,15.26-20.19,21.79-33.25c5.26-10.52,9.86-22.01,13.76-34.24
			h57.27C381.55,427.5,349.11,451.49,311.36,463.49L311.36,463.49z"/>
		<path id="XMLID_1206_" d="M50.33,412c-5.52,0-10,4.48-10,10v13.33c0,5.52,4.48,10,10,10s10-4.48,10-10V422
			C60.33,416.48,55.86,412,50.33,412z"/>
		<path id="XMLID_1219_" d="M50.33,478.67c-5.52,0-10,4.48-10,10V502c0,5.52,4.48,10,10,10s10-4.48,10-10v-13.33
			C60.33,483.14,55.86,478.67,50.33,478.67z"/>
		<path id="XMLID_1221_" d="M90.33,452H77c-5.52,0-10,4.48-10,10s4.48,10,10,10h13.33c5.52,0,10-4.48,10-10S95.86,452,90.33,452z"/>
		<path id="XMLID_1222_" d="M23.67,452H10.33c-5.52,0-10,4.48-10,10s4.48,10,10,10h13.33c5.52,0,10-4.48,10-10S29.19,452,23.67,452z
			"/>
		<path id="XMLID_1223_" d="M461.67,54c-5.52,0-10,4.48-10,10v13.33c0,5.52,4.48,10,10,10s10-4.48,10-10V64
			C471.67,58.48,467.19,54,461.67,54z"/>
		<path id="XMLID_1224_" d="M461.67,120.67c-5.52,0-10,4.48-10,10V144c0,5.52,4.48,10,10,10s10-4.48,10-10v-13.33
			C471.67,125.14,467.19,120.67,461.67,120.67z"/>
		<path id="XMLID_1234_" d="M501.67,94h-13.33c-5.52,0-10,4.48-10,10s4.48,10,10,10h13.33c5.52,0,10-4.48,10-10S507.19,94,501.67,94
			z"/>
		<path id="XMLID_1235_" d="M421.67,114H435c5.52,0,10-4.48,10-10s-4.48-10-10-10h-13.33c-5.52,0-10,4.48-10,10
			S416.14,114,421.67,114z"/>
		<path id="XMLID_1238_" d="M160.33,280c-2.63,0-5.21,1.07-7.07,2.93c-1.86,1.86-2.93,4.44-2.93,7.07s1.07,5.21,2.93,7.07
			c1.87,1.86,4.44,2.93,7.07,2.93s5.21-1.07,7.07-2.93c1.87-1.86,2.93-4.44,2.93-7.07s-1.06-5.21-2.93-7.07
			C165.54,281.07,162.97,280,160.33,280z"/>
	</g>
</g>
</svg>
