<?xml version="1.0" encoding="utf-8"?>
<!-- Generator: Adobe Illustrator 24.1.3, SVG Export Plug-In . SVG Version: 6.00 Build 0)  -->
<svg version="1.1" id="Capa_1" xmlns="http://www.w3.org/2000/svg" xmlns:xlink="http://www.w3.org/1999/xlink" x="0px" y="0px"
	 viewBox="0 0 512 512" style="enable-background:new 0 0 512 512;" xml:space="preserve">
<g id="XMLID_1322_">
	<g id="XMLID_881_">
		<path id="XMLID_1146_" d="M504.11,0.34c-5.34-1.43-10.82,1.74-12.25,7.07l-60.6,226.16l-28.68-7.68l57.15-213.3
			c1.43-5.34-1.74-10.82-7.07-12.25c-5.33-1.43-10.82,1.74-12.25,7.07L382.68,222.9c-12.9,1.47-24.23,10.63-27.78,23.91
			l-10.31,38.48c-2.1,7.85-7.52,14.36-14.87,17.84c-7.35,3.48-15.81,3.57-23.22,0.23l-174.6-78.64c-20.94-9.43-44.87-9.25-65.66,0.5
			c-20.79,9.75-36.24,28.02-42.38,50.15l-19.7,70.96c-8.36,30.11-2.31,61.65,16.6,86.53S68.45,472,99.7,472h2.74
			c18.66,24.3,48,40,80.93,40s62.27-15.7,80.93-40h76.11c40.82,0,76.7-27.54,87.27-66.96l34.68-129.43c2.25-8.4,1.1-17.17-3.25-24.7
			c-2.33-4.03-5.43-7.44-9.09-10.09l61.15-228.23C512.61,7.26,509.44,1.77,504.11,0.34L504.11,0.34z M389.58,243.12l44.6,11.95
			c3.24,0.87,5.94,2.94,7.62,5.85c1.68,2.9,2.12,6.28,1.25,9.52l-7.71,28.76l-68.84-18.45l7.71-28.76
			C376,245.3,382.9,241.32,389.58,243.12L389.58,243.12z M408.37,399.86c-8.23,30.7-36.17,52.14-67.95,52.14h-64.1
			c5.81-12.82,9.05-27.04,9.05-42c0-37.54-20.54-71.96-53.6-89.81c-4.86-2.62-10.93-0.81-13.55,4.05s-0.81,10.93,4.05,13.55
			c26.59,14.36,43.1,42.02,43.1,72.21c0,45.21-36.79,82-82,82s-82-36.79-82-82c0-30.1,16.45-57.73,42.92-72.11
			c4.85-2.64,6.65-8.71,4.01-13.56s-8.71-6.65-13.56-4.01C101.82,338.2,81.37,372.57,81.37,410c0,14.75,3.15,28.77,8.81,41.44
			c-21.21-2.51-40.34-13.38-53.49-30.69c-15.1-19.86-19.93-45.04-13.26-69.08l19.7-70.96c4.58-16.5,16.1-30.12,31.6-37.39
			s33.34-7.4,48.95-0.37l174.6,78.64c12.77,5.75,27.35,5.61,40.01-0.39c9.61-4.56,17.29-12.11,22.03-21.4l69.85,18.72L408.37,399.86
			z"/>
		<path id="XMLID_1151_" d="M183.37,308c-2.63,0-5.21,1.07-7.07,2.93s-2.93,4.44-2.93,7.07s1.07,5.21,2.93,7.07s4.44,2.93,7.07,2.93
			c2.64,0,5.21-1.07,7.07-2.93s2.93-4.44,2.93-7.07s-1.07-5.21-2.93-7.07S186.01,308,183.37,308z"/>
	</g>
</g>
</svg>
