<?xml version="1.0" encoding="utf-8"?>
<!-- Generator: Adobe Illustrator 24.1.3, SVG Export Plug-In . SVG Version: 6.00 Build 0)  -->
<svg version="1.1" id="Capa_1" xmlns="http://www.w3.org/2000/svg" xmlns:xlink="http://www.w3.org/1999/xlink" x="0px" y="0px"
	 viewBox="0 0 512 512" style="enable-background:new 0 0 512 512;" xml:space="preserve">
<g>
	<path d="M494.53,151.04h-69.65c-9.64,0-17.47,7.84-17.47,17.47v33.36h-38.67V77.8c0-9.64-7.84-17.47-17.47-17.47H159.24
		c-9.63,0-17.47,7.84-17.47,17.47v124.07H101.6v-33.36c0-9.63-7.84-17.47-17.47-17.47H17.47C7.84,151.04,0,158.88,0,168.51V434.2
		c0,9.64,7.84,17.47,17.47,17.47h348.73c4.14,0,7.49-3.35,7.49-7.49c0-3.25-2.07-6.02-4.96-7.05V216.85h38.67V436.7h-4.31
		c-4.14,0-7.49,3.35-7.49,7.49s3.35,7.49,7.49,7.49h91.43c9.64,0,17.47-7.84,17.47-17.47V168.51
		C512,158.88,504.16,151.04,494.53,151.04L494.53,151.04z M156.74,302.31h31.73v27.15h-31.73V302.31z M14.98,245.53h39.65v27.15
		H14.98V245.53z M14.98,313.55h39.65v27.15H14.98V313.55z M14.98,434.2v-78.53h43.15c6.33,0,11.48-5.15,11.48-11.48v-34.14
		c0-6.33-5.15-11.48-11.48-11.48H14.98v-10.92h43.15c6.33,0,11.48-5.15,11.48-11.48v-34.14c0-6.33-5.15-11.48-11.48-11.48H14.98
		v-62.03c0-1.38,1.12-2.5,2.5-2.5h66.65c1.38,0,2.5,1.12,2.5,2.5v200.3c0,4.14,3.35,7.49,7.49,7.49s7.49-3.35,7.49-7.49V216.85
		h40.16V436.7H101.6v-32.88c0-4.14-3.35-7.49-7.49-7.49s-7.49,3.35-7.49,7.49v32.88H17.47C16.1,436.7,14.98,435.58,14.98,434.2
		L14.98,434.2z M228.12,436.7v-58.24c0-1.93,1.57-3.5,3.5-3.5h49.25c1.93,0,3.5,1.57,3.5,3.5v58.24H228.12z M299.35,436.7v-58.24
		c0-10.19-8.29-18.48-18.48-18.48h-49.25c-10.19,0-18.48,8.29-18.48,18.48v58.24h-56.4v-92.26h35.22c6.33,0,11.48-5.15,11.48-11.48
		v-34.14c0-6.33-5.15-11.48-11.48-11.48h-35.22V77.8c0-1.38,1.12-2.5,2.5-2.5h192.02c1.38,0,2.5,1.12,2.5,2.5v209.53h-35.22
		c-6.33,0-11.48,5.15-11.48,11.48v34.14c0,6.33,5.15,11.48,11.48,11.48h35.22v92.26L299.35,436.7L299.35,436.7z M353.75,329.46
		h-31.73v-27.15h31.73V329.46z M497.02,272.67h-39.65v-27.15h39.65V272.67z M494.53,436.7h-72.15V168.51c0-1.38,1.12-2.5,2.5-2.5
		h69.65c1.38,0,2.5,1.12,2.5,2.5v62.03h-43.15c-6.33,0-11.48,5.15-11.48,11.48v34.14c0,6.33,5.15,11.48,11.48,11.48h43.15v10.92
		h-43.15c-6.33,0-11.48,5.15-11.48,11.48v34.14c0,6.33,5.15,11.48,11.48,11.48h43.15v78.53C497.02,435.58,495.9,436.7,494.53,436.7z
		 M497.02,340.7h-39.65v-27.15h39.65V340.7z"/>
	<path d="M339.23,188.8c0-16.97-5.09-33.29-14.72-47.19c-2.35-3.4-7.02-4.25-10.42-1.89c-3.4,2.35-4.25,7.02-1.89,10.42
		c7.89,11.39,12.05,24.76,12.05,38.67c0,37.5-30.51,68-68.01,68s-68.01-30.51-68.01-68.01c0-37.5,30.51-68.01,68.01-68.01
		c11.61,0,23.07,2.97,33.13,8.6c3.61,2.02,8.17,0.73,10.19-2.88c2.02-3.61,0.73-8.17-2.88-10.19
		c-12.29-6.87-26.28-10.51-40.44-10.51c-45.76,0-82.98,37.23-82.98,82.98s37.23,82.98,82.98,82.98S339.23,234.56,339.23,188.8
		L339.23,188.8z"/>
	<path d="M279.29,165.77v-14.92c0-5.67-4.61-10.29-10.29-10.29h-25.5c-5.67,0-10.29,4.61-10.29,10.29v14.92h-14.92
		c-5.67,0-10.29,4.61-10.29,10.29v25.5c0,5.67,4.61,10.29,10.29,10.29h14.92v14.91c0,5.67,4.61,10.29,10.29,10.29H269
		c5.67,0,10.29-4.61,10.29-10.29v-14.91h14.92c5.67,0,10.29-4.61,10.29-10.29v-25.5c0-5.67-4.61-10.29-10.29-10.29H279.29z
		 M289.51,196.86h-16.78c-4.64,0-8.42,3.78-8.42,8.42v16.78h-16.12v-16.78c0-4.64-3.78-8.42-8.42-8.42h-16.78v-16.12h16.78
		c4.64,0,8.42-3.78,8.42-8.42v-16.78h16.12v16.78c0,4.64,3.78,8.42,8.42,8.42h16.78V196.86z"/>
	<path d="M287.87,287.33h-63.24c-6.33,0-11.48,5.15-11.48,11.48v34.14c0,6.33,5.15,11.48,11.48,11.48h63.24
		c6.33,0,11.48-5.15,11.48-11.48v-34.14C299.35,292.48,294.2,287.33,287.87,287.33z M284.37,329.46h-56.25v-27.15h56.25V329.46z"/>
</g>
</svg>
