<?xml version="1.0" encoding="utf-8"?>
<!-- Generator: Adobe Illustrator 24.1.3, SVG Export Plug-In . SVG Version: 6.00 Build 0)  -->
<svg version="1.1" id="Layer_3" xmlns="http://www.w3.org/2000/svg" xmlns:xlink="http://www.w3.org/1999/xlink" x="0px" y="0px"
	 viewBox="0 0 512 512" style="enable-background:new 0 0 512 512;" xml:space="preserve">
<g>
	<path d="M115.18,8.66C60.98,14.3,16.36,57.62,9.1,111.7c-1.64,12.28-1.43,24.58,0.64,36.58C19.2,203.1,24,257.74,24,310.7V392
		c0,61.76,50.24,112,112,112s112-50.24,112-112V128c0-33.93-14.46-66.42-39.68-89.16C182.77,15.8,149.7,5.13,115.18,8.66z M232,392
		c0,52.94-43.06,96-96,96s-96-43.06-96-96v-81.3c0-53.86-4.87-109.43-14.5-165.14c-1.79-10.39-1.98-21.06-0.54-31.74
		c6.29-46.82,44.93-84.35,91.88-89.23c29.95-3.15,58.62,6.18,80.77,26.14C219.46,70.43,232,98.59,232,128V392z"/>
	<path d="M502.9,111.7c-7.26-54.07-51.88-97.4-106.09-103.03c-34.48-3.61-67.58,7.14-93.14,30.18C278.46,61.58,264,94.07,264,128
		v264c0,61.76,50.24,112,112,112s112-50.24,112-112v-81.3c0-52.95,4.8-107.6,14.26-162.42C504.34,136.28,504.54,123.98,502.9,111.7
		L502.9,111.7z M486.5,145.55C476.87,201.26,472,256.83,472,310.7V392c0,52.94-43.06,96-96,96s-96-43.06-96-96V128
		c0-29.41,12.54-57.57,34.39-77.27c19.35-17.44,43.69-26.74,69.48-26.74c3.74,0,7.5,0.19,11.29,0.59
		c46.95,4.87,85.59,42.41,91.89,89.23C488.48,124.5,488.29,135.17,486.5,145.55z"/>
	<path d="M183.3,446.28l10.53,12.05c4.42-3.85,8.46-8.16,12.01-12.8l-12.69-9.74C190.24,439.58,186.93,443.12,183.3,446.28
		L183.3,446.28z"/>
	<path d="M200.73,423.58l14.38,7.02c2.58-5.26,4.62-10.82,6.1-16.48l-15.49-4.02C204.5,414.73,202.83,419.26,200.73,423.58z"/>
	<path d="M208,392c0,1.3-0.03,2.61-0.1,3.89l15.97,0.87c0.09-1.58,0.14-3.16,0.14-4.76v-11.67h-16V392z"/>
	<path d="M95.14,469.95c5.19,2.74,10.68,4.94,16.31,6.58l4.46-15.38c-4.59-1.33-9.08-3.14-13.31-5.36L95.14,469.95z"/>
	<path d="M208,348.33h16v16h-16V348.33z"/>
	<path d="M130.05,463.75l-1.31,15.95c2.4,0.19,4.82,0.3,7.26,0.3c3.42,0,6.88-0.2,10.29-0.6l-1.86-15.89
		C139.62,464.07,134.75,464.15,130.05,463.75L130.05,463.75z"/>
	<path d="M158.46,460.43l5,15.2c5.55-1.83,10.95-4.22,16.06-7.14l-7.92-13.9C167.42,456.98,162.99,458.94,158.46,460.43
		L158.46,460.43z"/>
	<path d="M208,284.33h16v16h-16V284.33z"/>
	<path d="M208,188.33h16v16h-16V188.33z"/>
	<path d="M208,156.33h16v16h-16V156.33z"/>
	<path d="M206.02,110.26l15.61-3.53c-1.27-5.64-3.1-11.22-5.39-16.58l-14.7,6.31C203.46,100.92,204.96,105.57,206.02,110.26
		L206.02,110.26z"/>
	<path d="M208,220.33h16v16h-16V220.33z"/>
	<path d="M80.39,437.74L68.05,447.9c3.71,4.5,7.9,8.67,12.44,12.38l10.11-12.41C86.86,444.84,83.44,441.43,80.39,437.74
		L80.39,437.74z"/>
	<path d="M208,316.33h16v16h-16V316.33z"/>
	<path d="M208,252.33h16v16h-16V252.33z"/>
	<path d="M118.72,48.52l0.71-0.08l-1.59-15.92l-1.04,0.12c-5.78,0.66-11.52,1.86-17.1,3.58l4.74,15.28
		C109.06,50.08,113.82,49.08,118.72,48.52z"/>
	<path d="M52.14,158.38l-15.78,2.62c0.86,5.2,1.66,10.42,2.41,15.62l15.84-2.25C53.85,169.05,53.02,163.71,52.14,158.38
		L52.14,158.38z"/>
	<path d="M68.18,74.87L56.24,64.22c-3.86,4.33-7.35,9.03-10.38,13.98l13.66,8.34C62.05,82.41,64.96,78.49,68.18,74.87z"/>
	<path d="M48,128.02H32c0,5.86,0.53,11.7,1.58,17.38l15.74-2.92C48.45,137.77,48,132.9,48,128.02z"/>
	<path d="M91.02,57.05l-7.44-14.17c-5.11,2.68-10.04,5.86-14.62,9.44l9.84,12.61C82.63,61.94,86.74,59.29,91.02,57.05z"/>
	<path d="M53.14,99.55l-14.95-5.69c-2.08,5.47-3.64,11.14-4.65,16.84l15.75,2.78C50.12,108.78,51.42,104.09,53.14,99.55z"/>
	<path d="M183.82,49.87c-4.73-3.38-9.78-6.35-15.03-8.82l-6.82,14.49c4.38,2.06,8.58,4.52,12.53,7.35L183.82,49.87z"/>
	<path d="M152.39,35.14c-5.61-1.48-11.39-2.44-17.19-2.86l-1.17,15.95c4.82,0.36,9.63,1.16,14.3,2.38L152.39,35.14z"/>
	<path d="M66.96,412.5l-15.34,4.54c1.67,5.62,3.91,11.1,6.68,16.27l14.11-7.53C70.16,421.56,68.32,417.09,66.96,412.5z"/>
	<path d="M185.5,72.38c3.37,3.49,6.44,7.29,9.12,11.31l13.31-8.87c-3.21-4.82-6.89-9.38-10.93-13.56L185.5,72.38z"/>
	<path d="M48,335.1h16v-2.5c0.01-4.51-0.01-9.03-0.04-13.54l-16,0.11c0.03,4.46,0.05,8.93,0.04,13.41V335.1z"/>
	<path d="M48,351.1h16v16H48V351.1z"/>
	<path d="M64,392v-8.9H48v8.9c0,2.62,0.11,5.2,0.34,7.78l15.94-1.39C64.1,396.28,64,394.15,64,392z"/>
	<path d="M63.45,286.89l-16,0.42c0.14,5.3,0.25,10.6,0.33,15.9l16-0.23C63.7,297.62,63.58,292.25,63.45,286.89z"/>
	<path d="M56.74,190.41l-15.89,1.92c0.64,5.24,1.22,10.5,1.76,15.75l15.92-1.61C57.98,201.1,57.38,195.76,56.74,190.41z"/>
	<path d="M60.01,222.52l-15.94,1.34c0.44,5.26,0.83,10.54,1.18,15.82l15.97-1.06C60.86,233.25,60.46,227.88,60.01,222.52
		L60.01,222.52z"/>
	<path d="M62.18,254.7l-15.98,0.84c0.28,5.28,0.52,10.57,0.72,15.86l15.98-0.59C62.71,265.45,62.47,260.08,62.18,254.7L62.18,254.7z
		"/>
	<path d="M208,128v12.33h16V128c0-1.34-0.02-2.68-0.09-4.03l-15.98,0.72C207.98,125.79,208,126.89,208,128L208,128z"/>
	<path d="M136,416c0,13.23,10.77,24,24,24s24-10.77,24-24s-10.77-24-24-24S136,402.77,136,416z M168,416c0,4.42-3.58,8-8,8
		s-8-3.58-8-8s3.58-8,8-8S168,411.58,168,416z"/>
	<path d="M104,304c-13.23,0-24,10.77-24,24s10.77,24,24,24s24-10.77,24-24S117.23,304,104,304z M104,336c-4.42,0-8-3.58-8-8
		s3.58-8,8-8s8,3.58,8,8S108.42,336,104,336z"/>
	<path d="M192,264c0-13.23-10.77-24-24-24s-24,10.77-24,24s10.77,24,24,24S192,277.23,192,264z M168,272c-4.42,0-8-3.58-8-8
		s3.58-8,8-8s8,3.58,8,8S172.42,272,168,272z"/>
	<path d="M152,136c17.65,0,32-14.35,32-32s-14.35-32-32-32s-32,14.35-32,32S134.35,136,152,136z M152,88c8.82,0,16,7.18,16,16
		s-7.18,16-16,16s-16-7.18-16-16S143.18,88,152,88z"/>
	<path d="M457.39,174.38l15.84,2.25c0.74-5.21,1.54-10.42,2.41-15.62l-15.78-2.62C458.98,163.71,458.15,169.05,457.39,174.38
		L457.39,174.38z"/>
	<path d="M288,220.33h16v16h-16V220.33z"/>
	<path d="M306.29,410.1l-15.49,4.02c1.47,5.66,3.51,11.21,6.1,16.48l14.38-7.02C309.17,419.26,307.5,414.73,306.29,410.1z"/>
	<path d="M318.84,435.8l-12.69,9.74c3.55,4.64,7.59,8.94,12.01,12.8l10.53-12.05C325.07,443.12,321.76,439.58,318.84,435.8
		L318.84,435.8z"/>
	<path d="M288,348.33h16v16h-16V348.33z"/>
	<path d="M288,252.33h16v16h-16V252.33z"/>
	<path d="M288,284.33h16v16h-16V284.33z"/>
	<path d="M288,316.33h16v16h-16V316.33z"/>
	<path d="M332.49,468.5c5.11,2.9,10.5,5.3,16.06,7.14l5-15.2c-4.54-1.5-8.96-3.46-13.14-5.83L332.49,468.5z"/>
	<path d="M448,351.1h16v16h-16V351.1z"/>
	<path d="M448,392c0,2.15-0.1,4.28-0.27,6.38l15.94,1.39c0.22-2.58,0.34-5.16,0.34-7.78v-8.9h-16V392z"/>
	<path d="M439.59,425.79l14.11,7.53c2.77-5.18,5.01-10.66,6.68-16.27l-15.34-4.54C443.68,417.09,441.84,421.56,439.59,425.79z"/>
	<path d="M367.57,463.5l-1.86,15.89c3.41,0.41,6.86,0.61,10.29,0.61c2.45,0,4.86-0.1,7.26-0.3l-1.31-15.95
		C377.26,464.14,372.38,464.07,367.57,463.5L367.57,463.5z"/>
	<path d="M448.22,302.98l16,0.23c0.08-5.3,0.18-10.6,0.33-15.9l-16-0.42C448.42,292.25,448.3,297.62,448.22,302.98z"/>
	<path d="M421.41,447.87l10.11,12.41c4.54-3.7,8.73-7.86,12.44-12.38l-12.34-10.17C428.56,441.43,425.14,444.84,421.41,447.87
		L421.41,447.87z"/>
	<path d="M396.1,461.16l4.46,15.38c5.63-1.63,11.12-3.84,16.31-6.58l-7.46-14.16C405.17,458.02,400.69,459.83,396.1,461.16z"/>
	<path d="M304,392v-11.67h-16V392c0,1.6,0.05,3.18,0.14,4.77l15.97-0.87C304.03,394.61,304,393.3,304,392L304,392z"/>
	<path d="M350.03,55.54l-6.82-14.49c-5.25,2.47-10.3,5.44-15.03,8.82l9.31,13.02C341.45,60.06,345.66,57.59,350.03,55.54z"/>
	<path d="M288,188.33h16v16h-16V188.33z"/>
	<path d="M453.48,206.47l15.92,1.61c0.53-5.26,1.12-10.5,1.76-15.75l-15.89-1.92C454.62,195.76,454.02,201.1,453.48,206.47
		L453.48,206.47z"/>
	<path d="M448,332.57v2.52h16v-2.54c-0.01-4.47,0.01-8.94,0.04-13.41l-16-0.11C448.01,323.55,447.99,328.07,448,332.57z"/>
	<path d="M412.3,36.22c-5.57-1.73-11.32-2.93-16.98-3.58l-1.15-0.13l-0.78,16.01c4.79,0.54,9.55,1.54,14.17,2.98L412.3,36.22z"/>
	<path d="M443.05,52.32c-4.58-3.58-9.5-6.76-14.62-9.45l-7.44,14.17c4.27,2.24,8.38,4.89,12.22,7.88L443.05,52.32z"/>
	<path d="M450.78,238.62l15.97,1.06c0.34-5.27,0.74-10.54,1.18-15.82l-15.94-1.34C451.54,227.88,451.14,233.25,450.78,238.62
		L450.78,238.62z"/>
	<path d="M466.14,78.2c-3.02-4.95-6.51-9.66-10.38-13.98l-11.94,10.66c3.22,3.61,6.14,7.53,8.66,11.67L466.14,78.2z"/>
	<path d="M377.98,48.22l-1.17-15.95c-5.81,0.43-11.58,1.39-17.19,2.86l4.06,15.47C368.34,49.38,373.16,48.58,377.98,48.22z"/>
	<path d="M304,128c0-1.11,0.02-2.21,0.07-3.31l-15.98-0.72c-0.06,1.35-0.09,2.69-0.09,4.03v12.33h16L304,128z"/>
	<path d="M310.46,96.46l-14.7-6.31c-2.3,5.36-4.12,10.94-5.39,16.58l15.61,3.53C307.04,105.57,308.54,100.92,310.46,96.46z"/>
	<path d="M288,156.33h16v16h-16V156.33z"/>
	<path d="M462.68,142.48l15.74,2.92c1.06-5.67,1.58-11.52,1.58-17.38h-16C464,132.9,463.55,137.77,462.68,142.48L462.68,142.48z"/>
	<path d="M462.72,113.5l15.75-2.78c-1.01-5.7-2.57-11.38-4.65-16.84l-14.95,5.69C460.58,104.09,461.88,108.78,462.72,113.5z"/>
	<path d="M326.5,72.38l-11.5-11.13c-4.04,4.18-7.72,8.74-10.93,13.56l13.31,8.87C320.06,79.67,323.13,75.86,326.5,72.38z"/>
	<path d="M449.1,270.82l15.98,0.59c0.19-5.29,0.44-10.58,0.72-15.86l-15.98-0.84C449.53,260.08,449.29,265.45,449.1,270.82z"/>
	<path d="M328,416c0,13.23,10.77,24,24,24s24-10.77,24-24s-10.77-24-24-24S328,402.77,328,416z M360,416c0,4.42-3.58,8-8,8
		s-8-3.58-8-8s3.58-8,8-8S360,411.58,360,416z"/>
	<path d="M432,328c0-13.23-10.77-24-24-24s-24,10.77-24,24s10.77,24,24,24S432,341.23,432,328z M400,328c0-4.42,3.58-8,8-8
		s8,3.58,8,8s-3.58,8-8,8S400,332.42,400,328z"/>
	<path d="M344,288c13.23,0,24-10.77,24-24s-10.77-24-24-24s-24,10.77-24,24S330.77,288,344,288z M344,256c4.42,0,8,3.58,8,8
		s-3.58,8-8,8s-8-3.58-8-8S339.58,256,344,256z"/>
	<path d="M360,136c17.65,0,32-14.35,32-32s-14.35-32-32-32s-32,14.35-32,32S342.35,136,360,136z M360,88c8.82,0,16,7.18,16,16
		s-7.18,16-16,16s-16-7.18-16-16S351.18,88,360,88z"/>
</g>
</svg>
