<?xml version="1.0" encoding="utf-8"?>
<!-- Generator: Adobe Illustrator 24.1.3, SVG Export Plug-In . SVG Version: 6.00 Build 0)  -->
<svg version="1.1" xmlns="http://www.w3.org/2000/svg" xmlns:xlink="http://www.w3.org/1999/xlink" viewBox="0 0 512 512">
<path d="M484.73,202.94c-4.24,0-8.1-2.77-9.46-6.79c-1.32-3.89-0.07-8.34,3.12-10.94c3.29-2.68,8.02-2.98,11.63-0.76
	c3.5,2.16,5.34,6.42,4.53,10.44C493.61,199.52,489.44,202.94,484.73,202.94L484.73,202.94z"/>
<path d="M501.72,237.16c-0.19-5.52-4.8-9.83-10.35-9.64c-5.52,0.2-9.84,4.83-9.64,10.35c0.07,2.1,0.11,4.24,0.11,6.35v71.51
	h-12.57c-0.1,0-0.2,0-0.3,0h-48.2c4.95-67.33-5.24-126.43-30.34-175.8c-17-33.46-38.03-56.67-55.58-71.9
	c51.16,9.41,96.77,41.54,123.11,87.13c1.85,3.21,5.21,5,8.67,5c1.7,0,3.42-0.43,4.99-1.34c4.78-2.76,6.42-8.88,3.66-13.66
	c-14.98-25.93-35.99-48.57-60.76-65.48c-22.24-15.18-47.59-25.76-73.88-30.91c0.79-3.1,1.21-6.34,1.21-9.67
	c0-21.56-17.54-39.1-39.1-39.1s-39.1,17.54-39.1,39.1c0,3.33,0.42,6.57,1.21,9.66c-90.77,17.59-158.26,96.36-161.11,189.33h-83.6
	c-5.52,0-10,4.48-10,10c0,48.33,39.32,87.64,87.64,87.64h155.53v65.22c0,23.83,16.95,43.77,39.42,48.4V502c0,5.52,4.48,10,10,10
	s10-4.48,10-10v-52.65c19.9-4.11,35.47-20.21,38.77-40.39l120.41-73.23h19.91c5.52,0,10-4.48,10-10v-81.51
	C501.84,241.87,501.8,239.5,501.72,237.16L501.72,237.16z M103.66,315.73H97.8c-33.9,0-62.06-25.07-66.9-57.64h72.76V315.73z
	 M302.75,20c10.53,0,19.1,8.57,19.1,19.1s-8.57,19.1-19.1,19.1s-19.1-8.57-19.1-19.1C283.65,28.57,292.22,20,302.75,20z
	 M123.66,315.73v-71.51c0-86.69,62.55-160.82,147-176.2c-17.55,15.22-38.58,38.45-55.59,71.91
	c-25.1,49.38-35.29,108.47-30.34,175.8H123.66z M332.17,400.95c0,16.22-13.2,29.42-29.42,29.42s-29.42-13.2-29.42-29.42v-65.22
	h58.84L332.17,400.95z M204.79,315.73C194.02,175.98,252.99,106.61,291.7,76.6c3.51,1.04,7.21,1.59,11.05,1.59
	s7.55-0.56,11.05-1.59c38.71,30.01,97.67,99.38,86.91,239.13H204.79z M352.17,385.15v-49.43h81.27L352.17,385.15z"/>
</svg>
