<?xml version="1.0" encoding="utf-8"?>
<!-- Generator: Adobe Illustrator 24.1.3, SVG Export Plug-In . SVG Version: 6.00 Build 0)  -->
<svg version="1.1" id="Capa_1" xmlns="http://www.w3.org/2000/svg" xmlns:xlink="http://www.w3.org/1999/xlink" x="0px" y="0px"
	 viewBox="0 0 512 512" style="enable-background:new 0 0 512 512;" xml:space="preserve">
<g>
	<g>
		<path d="M256,40.01c-5.54,0-9.99,4.46-9.99,9.99c0,5.15,3.87,9.43,8.99,9.94c5.92,0.59,10.99-4.03,10.99-9.94
			C265.99,44.46,261.53,40.01,256,40.01z"/>
	</g>
</g>
<g>
	<g>
		<path d="M456,60c-27.57,0-50-22.43-50-50c0-5.52-4.48-10-10-10H116c-5.52,0-10,4.48-10,10c0,27.57-22.43,50-50,50
			c-5.52,0-10,4.48-10,10v163.19c0,127.18,82.89,241.14,207.13,278.39c0.94,0.28,1.9,0.42,2.87,0.42s1.94-0.14,2.87-0.42
			C380.42,475.12,466,363.15,466,233.19V70C466,64.48,461.52,60,456,60z M446,233.19c0,119.45-76.22,222.89-190,258.35
			C143.13,456.36,66,351.98,66,233.19V79.29c30.61-4.4,54.89-28.68,59.29-59.29h261.42c4.4,30.61,28.68,54.89,59.29,59.29V233.19z"
			/>
	</g>
</g>
<g>
	<g>
		<path d="M420.01,92.49c-20.85-9.13-37.37-25.65-46.5-46.5c-1.59-3.64-5.19-5.99-9.16-5.99h-68.37c-5.52,0-10,4.48-10,10
			s4.48,10,10,10h62.05c10.57,20.68,27.29,37.41,47.97,47.97v125.22c0,97.86-58.75,182.3-150,216.1
			c-91.25-33.8-150-118.24-150-216.1V107.97c20.68-10.57,37.41-27.29,47.97-47.97h62.05c5.52,0,10-4.48,10-10s-4.48-10-10-10h-68.37
			c-3.97,0-7.57,2.35-9.16,5.99c-9.13,20.85-25.65,37.37-46.5,46.5c-3.64,1.59-5.99,5.19-5.99,9.16v131.54
			c0,107.21,66.31,200.65,166.66,236.17c1.08,0.38,2.21,0.57,3.34,0.57s2.26-0.19,3.34-0.57C359.61,433.87,426,340.49,426,233.19
			V101.65C426,97.68,423.65,94.08,420.01,92.49z"/>
	</g>
</g>
<g>
	<g>
		<path d="M256,146c-49.63,0-90,40.37-90,90s40.37,90,90,90s90-40.37,90-90S305.63,146,256,146z M256,306c-38.6,0-70-31.4-70-70
			s31.4-70,70-70s70,31.4,70,70S294.6,306,256,306z"/>
	</g>
</g>
<g>
	<g>
		<path d="M303.07,208.93c-3.91-3.9-10.24-3.9-14.14,0L246,251.86l-12.93-12.93c-3.91-3.9-10.24-3.9-14.14,0
			c-3.9,3.9-3.9,10.24,0,14.14l20,20c1.95,1.95,4.51,2.93,7.07,2.93s5.12-0.98,7.07-2.93l50-50
			C306.98,219.17,306.98,212.83,303.07,208.93z"/>
	</g>
</g>
</svg>
