<?xml version="1.0" encoding="utf-8"?>
<!-- Generator: Adobe Illustrator 24.1.3, SVG Export Plug-In . SVG Version: 6.00 Build 0)  -->
<svg version="1.1" id="Layer_1" xmlns="http://www.w3.org/2000/svg" xmlns:xlink="http://www.w3.org/1999/xlink" x="0px" y="0px"
	 viewBox="0 0 512 512" style="enable-background:new 0 0 512 512;" xml:space="preserve">
<g>
	<path d="M113.51,362.96h-0.27c-5.52,0-10,4.48-10,10s4.48,10,10,10h0.27c5.52,0,10-4.48,10-10S119.03,362.96,113.51,362.96z"/>
	<path d="M470.92,386.12l-58.23-29.33c46.04-26.48,78.45-71.2,89.64-122.52c0.12-0.42,0.21-0.85,0.28-1.29
		c2.64-12.54,4.02-25.47,4.02-38.62c0-13.27-1.4-26.22-4.03-38.72c-0.06-0.41-0.15-0.82-0.27-1.21
		c-8.35-38.34-28.46-72.33-56.36-97.98c-0.64-0.77-1.38-1.45-2.22-2.01c-18.93-16.87-41.3-29.95-65.91-38.07
		c-0.57-0.25-1.17-0.44-1.78-0.58C358.16,10.09,339.11,7,319.35,7c-19.57,0-38.76,3.03-57.01,8.85c-0.41,0.1-0.81,0.24-1.2,0.39
		c-25.64,8.37-49.36,22.27-69.53,41.07c-18.59,17.36-33.23,37.9-43.51,61.06c-10.64,23.98-16.04,49.54-16.04,75.98
		c0,13.02,1.37,25.92,4.01,38.5c0.07,0.52,0.18,1.03,0.33,1.53c5.67,25.92,16.8,50.46,32.76,71.89
		c-16.74,7.38-32.44,11.01-47.6,11.01c-19.95,0-39.56-6.11-59.95-18.67c-5.7-3.51-11.47-5.29-17.13-5.29
		c-10.42,0-24.96,5.86-35,33.77C3.45,343.8,0,366.42,0,389.12c0,21.46,3.05,41.31,8.58,55.88c9.36,24.64,23.63,29.81,33.95,29.81
		h13.3V495c0,5.52,4.48,10,10,10h38.23c5.52,0,10-4.48,10-10v-20.19h18.24V495c0,5.52,4.48,10,10,10h38.23c5.52,0,10-4.48,10-10
		v-20.19h42.52c0.01,0,0.02,0,0.03,0c0.01,0,0.02,0,0.03,0h42.35c0.02,0,0.03,0,0.05,0h41.88V495c0,5.52,4.48,10,10,10h38.23
		c5.52,0,10-4.48,10-10v-20.19h18.23V495c0,5.52,4.48,10,10,10h38.2c5.52,0,10-4.48,10-10v-20.19h37.07
		c10.78,0,19.16-7.08,21.86-18.48C516.13,434.74,501.24,401.37,470.92,386.12z M428.23,321.41c-11.21,9.62-23.79,17.83-37.52,24.32
		l-21.38-10.77c-0.32-0.18-0.64-0.34-0.97-0.49l-39.02-19.66v-46.03l49.44-28.53l49.44,28.53L428.23,321.41L428.23,321.41z
		 M249.39,277.56c-4.1-1.89-8.52-2.85-13.15-2.85c-8.9,0-17.46,3.46-25.78,8.06v-14.01l49.44-28.53l49.44,28.53v36.36L249.39,277.56
		z M269.91,222.92v-57.13l49.44-28.56l49.44,28.56v57.13l-49.44,28.53L269.91,222.92z M448.23,301.03v-32.26l27.92-16.12
		C469.6,270.25,460.15,286.61,448.23,301.03z M448.23,87.79c11.82,14.29,21.32,30.56,27.91,48.24l-27.91-16.12V87.79z
		 M483.77,163.53c1.87,9.99,2.86,20.29,2.86,30.82c0,10.45-0.98,20.75-2.85,30.79l-45.55,26.31l-49.44-28.53v-57.13l49.44-28.56
		L483.77,163.53z M428.23,67.41v52.5l-49.44,28.56l-49.44-28.56V62.78l45.54-26.28C394.62,43.46,412.67,54.03,428.23,67.41z
		 M319.35,27c9.51,0,18.83,0.81,27.92,2.34l-27.92,16.11l-27.93-16.12C300.57,27.79,309.91,27,319.35,27z M210.46,67.3
		c15.87-13.62,33.94-24.01,53.31-30.83l45.57,26.31v57.13l-49.44,28.56l-49.44-28.56V67.3z M190.47,87.68v32.23l-27.84,16.08
		C169.14,118.52,178.52,102.15,190.47,87.68z M152.07,194.36c0-10.41,0.99-20.73,2.9-30.85l45.5-26.28l49.44,28.56v57.13
		l-49.44,28.53l-45.53-26.3C153.04,215.06,152.07,204.75,152.07,194.36z M162.55,252.65l27.92,16.12v26.35
		c-1.07,0.66-2.14,1.3-3.19,1.92C176.77,283.52,168.45,268.53,162.55,252.65z M94.07,485H75.83v-10.19h18.23V485z M152.3,485v-10.19
		h18.23V485H152.3z M204.07,454.81l41.99-76.56l17.77,9.77l-36.65,66.8L204.07,454.81L204.07,454.81z M315.55,454.81h-23.1
		l22.49-40.98l17.74,9.74L315.55,454.81z M355.64,485h-18.24v-10.19h18.24V485z M432.08,485h-18.2v-10.19h18.2V485z M491.55,451.71
		c-0.73,3.1-1.66,3.1-2.4,3.1H338.36l16.66-30.39c2.65-4.84,0.88-10.92-3.96-13.57l-35.27-19.36c-2.33-1.28-5.06-1.58-7.61-0.83
		c-2.55,0.74-4.69,2.46-5.97,4.79l-32.59,59.37h-19.64l36.18-65.94c2.65-4.84,0.89-10.92-3.95-13.58l-35.3-19.4
		c-2.32-1.28-5.06-1.58-7.61-0.84s-4.7,2.47-5.97,4.79l-52.08,94.96h-16.35c0.78-4.39,1.15-8.78,1.15-13.41
		c0-16.47-4.94-32.58-14.3-46.57c-3.07-4.59-9.28-5.83-13.87-2.76c-4.59,3.07-5.83,9.28-2.76,13.87
		c7.15,10.69,10.93,22.96,10.93,35.46c0,4.62-0.52,8.94-1.61,13.41H42.54c-7.3,0-12.33-9.2-15.26-16.91
		C22.58,425.54,20,408.22,20,389.12c0-2.02,0.04-4.01,0.09-5.98c14.94-9.07,33.72-13.2,52.31-11.36c5.49,0.55,10.39-3.47,10.94-8.96
		c0.54-5.5-3.47-10.39-8.96-10.94c-18.01-1.79-36.24,1.05-52.28,7.86c4.12-27.84,13.64-46.42,22.38-46.42
		c1.91,0,4.14,0.78,6.64,2.32c23.64,14.57,46.68,21.65,70.44,21.65c21.51,0,43.53-5.97,67.1-18.2c0.47-0.2,14.78-8.46,19.03-11.18
		c10.12-6.48,20.6-13.18,28.56-13.18c1.74,0,3.3,0.33,4.79,1.02l24.39,11.22l-11.55,19.24c-2.84,4.73-1.31,10.88,3.43,13.72
		c1.61,0.97,3.39,1.43,5.14,1.43c3.4,0,6.71-1.73,8.58-4.85l12.69-21.13l26.26,12.08l0.29,0.14l-12.13,20.16
		c-2.85,4.73-1.32,10.88,3.41,13.73c1.61,0.97,3.39,1.43,5.15,1.43c3.39,0,6.7-1.73,8.58-4.85l12.91-21.45l22.07,11.12l-12.5,20.76
		c-2.85,4.73-1.32,10.88,3.41,13.73c1.61,0.97,3.39,1.43,5.15,1.43c3.39,0,6.7-1.73,8.58-4.84l13.28-22.05l93.8,47.25
		C486.28,416.24,494.05,441.19,491.55,451.71z"/>
</g>
</svg>
