<?xml version="1.0" encoding="utf-8"?>
<!-- Generator: Adobe Illustrator 24.1.3, SVG Export Plug-In . SVG Version: 6.00 Build 0)  -->
<svg version="1.1" xmlns="http://www.w3.org/2000/svg" xmlns:xlink="http://www.w3.org/1999/xlink" viewBox="0 0 512 512">
	<path d="M134.48,0h-33.74C86.76,0,75.43,11.33,75.43,25.31v33.74c0,18.63,15.11,33.74,33.74,33.74s33.74-15.11,33.74-33.74V8.44
		C142.91,3.78,139.14,0,134.48,0z M126.04,33.74h-25.31v16.87h25.31v8.44c0,9.32-7.55,16.87-16.87,16.87S92.3,68.37,92.3,59.05
		V25.31c0-4.66,3.78-8.44,8.44-8.44h25.31V33.74z"/>
	<path d="M415.33,280.89l-27.77,27.74l-36.21-36.21c-1.69-1.46-3.81-2.33-6.04-2.47c-2.27,0.02-4.43,0.96-6,2.59l-27.67,28.73
		V59.05h8.44V42.18h-8.44V0h-16.87v42.18h-8.44c-1.88,0-3.7,0.63-5.18,1.78l-73.63,57.27H92.3c-3.24,0.01-6.44,0.64-9.43,1.87
		c-3.71-15.89-17.85-27.14-34.16-27.17h-5.62c-19.34-0.05-35.07,15.6-35.11,34.95c-0.02,8.96,3.38,17.59,9.52,24.11
		c-6.02,4.76-9.54,12.01-9.55,19.68v64.68c0.03,23.28,18.9,42.15,42.18,42.18h16.87v99.94l-41.8,133.73
		c-1.4,4.44,1.08,9.18,5.51,10.58c0.82,0.25,1.68,0.39,2.54,0.39h50.61v-16.87H71.02l46-114.97c0.25-0.62,0.42-1.27,0.52-1.93
		l9.92-69.46l48.46,30.3l-16.03,104.17c-0.71,4.61,2.46,8.91,7.06,9.62c0.42,0.06,0.84,0.09,1.27,0.09h2.97l-51.23,53.21
		L132.11,512l62.5-64.9h24.22v-16.87h-7.97l83.89-87.12v28.07h-8.44v16.87h8.44v8.44h16.87v-8.44h8.44v-16.87h-8.44v-45.55
		l33.86-35.16l36.09,36.09c3.29,3.29,8.64,3.29,11.93,0l33.74-33.74L415.33,280.89z M176.66,118.1h33.74c1.88,0,3.7-0.63,5.18-1.78
		l57.1-44.4l-49.62,55.15l-46.4,6.62V118.1z M42.31,92.79c0.26,0,0.53,0,0.78,0h5.62c10.09-0.22,18.45,7.79,18.66,17.88
		s-7.79,18.45-17.88,18.66c-0.26,0-0.53,0-0.78,0h-5.62c-10.09,0.22-18.45-7.79-18.66-17.88C24.21,101.37,32.21,93.02,42.31,92.79z
		 M50.12,244.64c-13.98,0-25.31-11.33-25.31-25.31v-64.68c0-4.66,3.78-8.44,8.44-8.44h25.31c4.66,0,8.44,3.78,8.44,8.44v89.99
		H50.12z M100.97,368.98L52.84,489.28h-8.12l38.8-124.01c0.24-0.82,0.36-1.68,0.34-2.53V261.51h32.46L100.97,368.98z
		 M126.72,244.64H83.86v-118.1c0-4.66,3.78-8.44,8.44-8.44h67.49v17.86l-60.09,7.52l2.09,16.73l32.31-4.03L126.72,244.64z
		 M187.05,430.23h-8.99l15.37-99.94c0.52-3.33-1-6.64-3.86-8.44l-59.51-37.19l3.2-22.35l84.28,53.63L187.05,430.23z M294.76,318.78
		l-83.71,86.98l24.38-91.42c0.95-3.55-0.52-7.31-3.62-9.28l-88.49-56.31l7.89-94.66l18.07-2.26l0.15-0.04l59.05-8.44
		c1.95-0.28,3.74-1.24,5.06-2.71l61.23-68.06v246.19H294.76z"/>
	<rect x="466.66" y="215.13" transform="matrix(0.7071 -0.7071 0.7071 0.7071 -16.1597 408.1126)" width="35.79" height="16.87"/>
	<rect x="434.68" y="253.03" transform="matrix(0.7071 -0.7071 0.7071 0.7071 -54.0739 392.3806)" width="23.85" height="16.87"/>
	<path d="M461.72,124.79l-23.56,23.56l-38.69-38.68l17.6-17.6l15.12,15.12c3.29,3.29,8.64,3.29,11.93,0l59.05-59.05l-11.93-11.93
		l-53.08,53.08l-15.12-15.12c-3.29-3.29-8.64-3.29-11.93,0l-88.58,88.58l11.93,11.93l53.08-53.08l44.65,44.65
		c3.29,3.29,8.64,3.29,11.93,0l23.56-23.56l19.34,19.34l11.93-11.93l-25.31-25.31C470.36,121.5,465.02,121.5,461.72,124.79z"/>
</svg>
