<?xml version="1.0" encoding="utf-8"?>
<!-- Generator: Adobe Illustrator 24.1.3, SVG Export Plug-In . SVG Version: 6.00 Build 0)  -->
<svg version="1.1" id="icons" xmlns="http://www.w3.org/2000/svg" xmlns:xlink="http://www.w3.org/1999/xlink" x="0px" y="0px"
	 viewBox="0 0 512 512" style="enable-background:new 0 0 512 512;" xml:space="preserve">
<g>
	<g>
		<path d="M504,468.02H8c-4.42,0-8-3.58-8-8s3.58-8,8-8h488v-32H8c-4.42,0-8-3.58-8-8s3.58-8,8-8h496c4.42,0,8,3.58,8,8v48
			C512,464.44,508.42,468.02,504,468.02z"/>
	</g>
	<g>
		<path d="M488,308.02c-4.42,0-8-3.58-8-8c0-30.87-25.13-56-56-56c-4.42,0-8-3.58-8-8s3.58-8,8-8c39.7,0,72,32.3,72,72
			C496,304.44,492.42,308.02,488,308.02z"/>
	</g>
	<g>
		<path d="M488,420.02c-4.42,0-8-3.58-8-8v-112c0-4.42,3.58-8,8-8s8,3.58,8,8v112C496,416.44,492.42,420.02,488,420.02z"/>
	</g>
	<g>
		<path d="M231.99,244.14c-1.6,0-3.21-0.48-4.62-1.48l-192-136.13c-3.61-2.55-4.46-7.54-1.9-11.15c2.54-3.61,7.54-4.47,11.15-1.9
			l192,136.13c3.61,2.55,4.46,7.54,1.9,11.15C236.97,242.97,234.5,244.14,231.99,244.14L231.99,244.14z"/>
	</g>
	<g>
		<path d="M87.1,186.49c-1.61,0-3.24-0.49-4.66-1.5c-3.58-2.57-4.42-7.57-1.83-11.17l21.42-29.89c2.57-3.58,7.55-4.42,11.17-1.83
			c3.58,2.57,4.42,7.57,1.83,11.17L93.6,183.15C92.04,185.32,89.58,186.49,87.1,186.49z"/>
	</g>
	<g>
		<path d="M126.93,215.05c-1.61,0-3.24-0.49-4.66-1.5c-3.58-2.57-4.42-7.57-1.83-11.17l21.57-30.1c2.57-3.58,7.56-4.43,11.17-1.83
			c3.58,2.57,4.42,7.57,1.83,11.17l-21.57,30.1C131.87,213.89,129.42,215.05,126.93,215.05z"/>
	</g>
	<g>
		<path d="M166.76,243.64c-1.61,0-3.24-0.49-4.66-1.5c-3.58-2.57-4.42-7.57-1.83-11.17l21.75-30.34c2.57-3.58,7.55-4.43,11.17-1.83
			c3.58,2.57,4.42,7.57,1.83,11.17l-21.75,30.34C171.7,242.49,169.25,243.64,166.76,243.64z"/>
	</g>
	<g>
		<path d="M206.59,272.25c-1.61,0-3.24-0.49-4.66-1.5c-3.58-2.57-4.42-7.57-1.83-11.17l21.9-30.54c2.57-3.58,7.56-4.42,11.17-1.83
			c3.58,2.57,4.42,7.57,1.83,11.17l-21.9,30.54C211.54,271.1,209.09,272.25,206.59,272.25L206.59,272.25z"/>
	</g>
	<g>
		<path d="M424,244.02H232c-4.42,0-8-3.58-8-8s3.58-8,8-8h192c4.42,0,8,3.58,8,8S428.42,244.02,424,244.02z"/>
	</g>
	<g>
		<path d="M8,140.02c-4.42,0-8-3.58-8-8s3.58-8,8-8c13.23,0,24-10.77,24-24c0-4.42,3.58-8,8-8s8,3.58,8,8
			C48,122.07,30.06,140.02,8,140.02z"/>
	</g>
	<g>
		<path d="M311.81,243.83c-2.05,0-4.1-0.78-5.66-2.34L186.34,121.67c-3.13-3.13-3.13-8.18,0-11.31s8.18-3.13,11.31,0l119.82,119.82
			c3.13,3.13,3.13,8.18,0,11.31C315.9,243.05,313.85,243.83,311.81,243.83L311.81,243.83z"/>
	</g>
	<g>
		<path d="M311.81,243.83c-2.05,0-4.1-0.78-5.66-2.34c-3.13-3.13-3.13-8.18,0-11.31l120-120c3.13-3.13,8.18-3.13,11.31,0
			s3.13,8.18,0,11.31l-120,120C315.9,243.05,313.85,243.83,311.81,243.83z"/>
	</g>
	<g>
		<path d="M375.86,243.83c-2.05,0-4.1-0.78-5.66-2.34L250.4,121.67c-3.13-3.13-3.13-8.18,0-11.31s8.18-3.13,11.31,0l119.81,119.81
			c3.13,3.13,3.13,8.18,0,11.31C379.96,243.05,377.91,243.83,375.86,243.83z"/>
	</g>
	<g>
		<path d="M375.86,243.83c-2.05,0-4.1-0.78-5.66-2.34c-3.13-3.13-3.13-8.18,0-11.31l120-120c3.13-3.13,8.18-3.13,11.31,0
			s3.13,8.18,0,11.31l-120,120C379.96,243.05,377.91,243.83,375.86,243.83z"/>
	</g>
	<g>
		<path d="M344.02,124.03c-17.65,0-32-14.35-32-32c0-15.54,21.7-40.5,26.05-45.36c3.03-3.38,8.87-3.38,11.9,0
			c4.35,4.85,26.05,29.82,26.05,45.36C376.02,109.68,361.66,124.03,344.02,124.03z M344.02,64.41c-8.49,10.61-16,22.52-16,27.62
			c0,8.82,7.18,16,16,16s16-7.18,16-16C360.02,87.07,352.51,75.07,344.02,64.41z"/>
	</g>
	<g>
		<path d="M280.22,59.98c-4.42,0-8.04-3.58-8.04-8s3.54-8,7.95-8h0.09c4.42,0,8,3.58,8,8S284.64,59.98,280.22,59.98z"/>
	</g>
	<g>
		<path d="M216.05,84.05c-4.42,0-8.04-3.58-8.04-8s3.54-8,7.95-8h0.09c4.42,0,8,3.58,8,8S220.46,84.05,216.05,84.05z"/>
	</g>
	<g>
		<path d="M408.18,59.98c-4.42,0-8.04-3.58-8.04-8s3.54-8,7.95-8h0.09c4.42,0,8,3.58,8,8S412.6,59.98,408.18,59.98z"/>
	</g>
	<g>
		<path d="M472.37,84.05c-4.42,0-8.04-3.58-8.04-8s3.54-8,7.95-8h0.09c4.42,0,8,3.58,8,8S476.78,84.05,472.37,84.05z"/>
	</g>
</g>
</svg>
