<?xml version="1.0" encoding="utf-8"?>
<!-- Generator: Adobe Illustrator 23.0.1, SVG Export Plug-In . SVG Version: 6.00 Build 0)  -->
<svg version="1.1" id="Layer_1" xmlns="http://www.w3.org/2000/svg" xmlns:xlink="http://www.w3.org/1999/xlink" x="0px" y="0px"
	 viewBox="0 0 330 330" style="enable-background:new 0 0 330 330;" xml:space="preserve">
<path d="M285.5,188.2c1.5-7.7,2.2-15.4,2.2-23.2c0-67.8-55-122.8-122.8-122.8c-7.9,0-15.7,0.8-23.2,2.2
	c-27.1-23.6-68.2-22.6-94.1,3.3c-25.8,25.8-26.9,67-3.3,94.1c-1.5,7.7-2.2,15.4-2.2,23.2c0,67.8,55,122.8,122.8,122.8
	c7.9,0,15.7-0.8,23.2-2.2c27.1,23.6,68.2,22.6,94.1-3.3C308.1,256.5,309.2,215.3,285.5,188.2z M167.3,240.6
	c-36.4,0-66.7-16.3-66.7-36.1c0-8.8,5-16.8,16.2-16.8c17.4,0,19,24.8,48.8,24.8c14.3,0,23.4-6.3,23.4-14.6
	c0-10.2-8.8-11.8-23.1-15.4l-23.7-5.8c-23.4-5.8-41.6-15.4-41.6-42.4c0-32.8,32.5-44.9,60.3-44.9c30.6,0,61.4,12.1,61.4,30.6
	c0,9.4-6.3,17.6-16.8,17.6c-15.7,0-16.3-18.5-41.6-18.5c-14,0-23.1,3.9-23.1,12.4c0,9.4,9.1,11.6,21.5,14.3l16.8,3.9
	c22.9,5.2,50.1,14.9,50.1,43C229.3,225.4,197.6,240.6,167.3,240.6L167.3,240.6z"/>
</svg>
