<?xml version="1.0" encoding="utf-8"?>
<!-- Generator: Adobe Illustrator 23.0.1, SVG Export Plug-In . SVG Version: 6.00 Build 0)  -->
<svg version="1.1" id="Layer_1" xmlns="http://www.w3.org/2000/svg" xmlns:xlink="http://www.w3.org/1999/xlink" x="0px" y="0px"
	 viewBox="0 0 56.7 56.7" style="enable-background:new 0 0 56.7 56.7;" xml:space="preserve">
<path d="M37.9,20.9c-4.4,0.2-8.2,1.6-11.3,4.6c-3.1,3-4.6,6.8-4.2,11.4c-1.7-0.2-3.3-0.4-4.8-0.6c-0.5,0-1.2,0-1.6,0.3
	c-1.5,0.9-3,1.8-4.7,2.9c0.3-1.4,0.5-2.7,0.9-3.9c0.3-0.9,0.1-1.4-0.7-2c-5.3-3.7-7.5-9.3-5.8-15c1.5-5.3,5.3-8.5,10.4-10.2
	c7-2.3,14.9,0,19.1,5.6C36.7,16,37.7,18.2,37.9,20.9z M17.7,19.1c0-1-0.9-2-1.9-2c-1.1,0-2,0.8-2,1.9c0,1.1,0.8,2,1.9,2
	C16.8,21,17.7,20.2,17.7,19.1L17.7,19.1z M28.3,17.1c-1.1,0-2,0.9-2,2c0,1.1,0.9,1.9,2,1.9c1.1,0,2-0.9,2-2
	C30.2,17.9,29.4,17.1,28.3,17.1C28.3,17.1,28.3,17.1,28.3,17.1L28.3,17.1z"/>
<path d="M47.8,48.2c-1.4-0.6-2.7-1.5-4-1.7c-1.4-0.1-2.8,0.6-4.2,0.8c-4.3,0.4-8.2-0.8-11.3-3.7C22.2,38,23,29.4,30,24.8
	c6.2-4.1,15.3-2.7,19.7,2.9c3.8,4.9,3.4,11.5-1.3,15.6c-1.4,1.2-1.8,2.2-1,3.8C47.6,47.5,47.7,47.8,47.8,48.2L47.8,48.2z M31.9,32.9
	c0.9,0,1.6-0.7,1.6-1.6c0-0.9-0.7-1.7-1.6-1.7c0,0,0,0,0,0c-0.9,0-1.7,0.8-1.7,1.7C30.3,32.2,31.1,32.9,31.9,32.9z M42.1,29.6
	c-0.9,0-1.6,0.7-1.6,1.6c0,0.9,0.6,1.6,1.5,1.7c0,0,0,0,0.1,0c0.9,0,1.6-0.7,1.6-1.6C43.8,30.4,43.1,29.6,42.1,29.6z"/>
</svg>
