<?xml version="1.0" encoding="utf-8"?>
<!-- Generator: Adobe Illustrator 23.0.1, SVG Export Plug-In . SVG Version: 6.00 Build 0)  -->
<svg version="1.1" id="Layer_1" xmlns="http://www.w3.org/2000/svg" xmlns:xlink="http://www.w3.org/1999/xlink" x="0px" y="0px"
	 viewBox="0 0 512 512" style="enable-background:new 0 0 512 512;" xml:space="preserve">
<path d="M41.4,477c6-18.1,11.7-35.1,17.4-52.1c5.7-16.8,10.8-33.9,17.3-50.5c3.3-8.4,2.3-14.7-1.9-22.6
	c-23-42.6-29.8-88.3-21.8-135.8c6.7-40.2,23.8-75.8,51.4-106c45.5-49.7,102.3-73.5,169.4-70.7c49.2,2,92.6,20,129.7,52.5
	c34.5,30.2,57.1,67.8,67.5,112.5c8.4,36,7.4,71.9-2.9,107.4c-13.1,45-38.3,82-75.7,110.3c-52,39.3-110.3,51.4-173.8,39.1
	c-19.1-3.7-37.3-10.5-54.5-19.8c-2.8-1.5-5.2-1.8-8.2-0.8c-32.6,10.5-65.3,20.9-97.9,31.4C52.5,473.3,47.5,475,41.4,477L41.4,477z
	 M96.9,422.1c1.8-0.4,2.5-0.6,3.3-0.9c20.4-6.5,40.8-13.1,61.4-19.4c1.9-0.6,4.6-0.1,6.4,0.8c8.9,4.4,17.4,9.6,26.5,13.5
	c37.5,15.9,76.2,18.4,115.3,7.5c46.6-13.1,82.4-40.8,106.8-82.8c20.9-35.9,28.1-74.8,21.6-115.6c-8.2-52-34.9-92.8-79-121.8
	C321,78.3,279,69.8,234.1,76.9c-38.7,6.1-71.7,23.8-98.9,52c-23.4,24.2-39.1,52.8-45.9,85.6c-9.7,47.1-2.5,91.6,23.6,132.2
	c5.3,8.2,5.1,14.4,1.9,22.7C108.3,386.5,103,403.9,96.9,422.1L96.9,422.1z"/>
<path d="M373.2,313.9c-0.3,16.9-8.2,29.8-24.4,37.9c-15.9,7.9-32,9.9-48.6,3.4c-14.9-5.9-30-11.6-44.3-18.7
	c-18.9-9.4-34.4-23.4-48.6-38.9c-15.7-17.2-29-36.3-40-56.7c-7.8-14.5-12.5-29.8-10.9-46.6c1.8-17.9,10.1-32.2,24.1-42.9
	c2.8-2.1,7-3.1,10.6-3.4c4.6-0.4,9.3,0.4,13.9,0.7c3.9,0.4,6,3.1,7.3,6.2c3.4,8.4,6.5,16.8,9.7,25.3c2.2,5.7,3.9,11.7,6.5,17.2
	c3.2,6.8,1.2,12.5-3,17.8c-3.6,4.5-7.4,8.8-11.5,12.6c-3.4,3.2-4,6.6-1.8,10.5c10.1,18,22.3,34.1,38.6,47.2
	c10.7,8.6,22.5,15,34.8,20.9c3.6,1.8,7.1,1.5,9.9-1.8c6-6.9,12.2-13.8,18.1-20.8c3.9-4.5,5.8-5.3,11-2.7c15,7.5,29.8,15.3,44.7,23.1
	C372.9,306.2,373.8,309.4,373.2,313.9z"/>
</svg>
