<svg xmlns="http://www.w3.org/2000/svg" viewBox="0 0 102.851 122">
  <g id="Group_71" data-name="Group 71" transform="translate(-151.675 -108.658)">
    <path id="Path_108" data-name="Path 108" d="M165.412,389.171V349.565h93.464v39.606ZM198.6,373.535h27.028v-8.321H198.6Z" transform="translate(-9.039 -158.513)"/>
    <path id="Path_109" data-name="Path 109" d="M263.166,108.658c4.938,3.021,7.041,8.285,5.818,14.674-.888,4.641-2.349,9.21-2.816,13.886-.963,9.631-1.453,19.31-2.087,28.973-.125,1.909-.018,3.833-.018,5.835h-5.728c-.483-9.923-.96-19.735-1.437-29.548l-.561-.15c-.5.57-1.01,1.128-1.49,1.712-5.217,6.341-8.963,13.581-12.735,20.809-.578,1.108-1.2,2.2-1.887,3.244-2.111,3.214-5.412,3.967-8.91,4-5.956.062-11.915-.052-17.872-.066-2.048,0-4.114.251-6.141.055a28.427,28.427,0,0,1-6.271-1.294,3.345,3.345,0,0,1-1.765-5.266,27.725,27.725,0,0,1,5.669-5.8,95.537,95.537,0,0,1,10.049-5.791,2.734,2.734,0,0,1,1.959.194c1.943.778,3.767,2.009,5.772,2.449,5.035,1.106,8.6-1.4,11.167-5.452,2.285-3.607,4.335-7.364,6.521-11.034,3.731-6.263,7.351-12.6,11.276-18.736A54.874,54.874,0,0,1,263.166,108.658Z" transform="translate(-30.848 0)"/>
    <path id="Path_110" data-name="Path 110" d="M151.675,316.5v-11.43H254.526V316.5Z" transform="translate(0 -129.238)"/>
  </g>
</svg>
