<?xml version="1.0" encoding="iso-8859-1"?>
<!-- Generator: Adobe Illustrator 19.0.0, SVG Export Plug-In . SVG Version: 6.00 Build 0)  -->
<svg version="1.1" id="Layer_1" xmlns="http://www.w3.org/2000/svg" xmlns:xlink="http://www.w3.org/1999/xlink" x="0px" y="0px"
	 viewBox="0 0 511.999 511.999" style="enable-background:new 0 0 511.999 511.999;" xml:space="preserve">
<g>
	<g>
		<path d="M453.775,352.885c-34.5-19.959-55.933-57.083-55.933-96.885s21.432-76.926,55.932-96.885l7.489-4.332V53.114H408.21
			c-36.149,0-70.234-17.507-91.177-46.832L312.547,0H199.453l-4.487,6.282c-20.942,29.325-55.027,46.832-91.177,46.832H50.736
			v101.669l7.489,4.332c34.5,19.958,55.933,57.082,55.933,96.885s-21.433,76.927-55.933,96.885l-7.489,4.332v101.668h76.512
			c36.148,0,70.233,17.507,91.178,46.832l4.486,6.282h66.176l4.486-6.282c20.944-29.325,55.029-46.832,91.178-46.832h76.512V357.217
			L453.775,352.885z M190.545,175.464c8.472,19.811,13.743,40.759,15.667,62.261l-29.881,2.674
			c-1.643-18.355-6.141-36.233-13.37-53.139L190.545,175.464z M138.583,112.479c7.254-1.475,17.551-4.881,30.604-10.124
			l11.18,27.839c-4.58,1.839-8.855,3.474-12.849,4.91c2.816,3.842,5.498,7.779,8.03,11.794l-25.373,16.006
			c-5.716-9.06-12.314-17.652-19.612-25.537L138.583,112.479z M174.624,402.57c-10.332-2.912-20.983-4.877-31.658-5.844
			l-9.872-24.89c7.13-8.04,13.54-16.77,19.055-25.946l25.713,15.454c-1.948,3.241-3.991,6.435-6.124,9.573
			c3.702,0.824,7.38,1.751,11.023,2.777L174.624,402.57z M192.219,332.502l-27.83-11.203c6.867-17.061,10.983-35.032,12.233-53.413
			l29.932,2.036C205.089,291.456,200.266,312.51,192.219,332.502z M266.156,442.309h-20.312
			c-7.886-7.256-16.498-13.824-25.598-19.523l15.924-25.425c6.871,4.303,13.507,9.031,19.83,14.125
			c6.322-5.093,12.958-9.821,19.83-14.125l15.924,25.425C282.653,428.487,274.041,435.055,266.156,442.309z M280.627,107.177
			c-10.29-5.028-18.968-9.452-24.627-12.379c-5.659,2.928-14.337,7.352-24.627,12.379l-13.17-26.954
			c17.545-8.573,30.617-15.524,30.747-15.593h14.1c0.13,0.069,13.202,7.021,30.747,15.593L280.627,107.177z M321.472,175.425
			l27.582,11.802c-7.233,16.904-11.735,34.782-13.381,53.136l-29.881-2.68C307.72,216.181,312.996,195.234,321.472,175.425z
			 M305.443,269.88l29.931-2.03c1.247,18.383,5.359,36.354,12.224,53.416l-27.832,11.197
			C311.723,312.471,306.904,291.415,305.443,269.88z M369.034,396.727c-10.675,0.966-21.326,2.932-31.658,5.844l-8.137-28.876
			c3.643-1.026,7.321-1.953,11.023-2.777c-2.133-3.139-4.176-6.333-6.124-9.574l25.713-15.454
			c5.516,9.176,11.926,17.906,19.055,25.947L369.034,396.727z M361.826,162.904l-25.373-16.006c2.532-4.015,5.214-7.952,8.03-11.794
			c-3.994-1.436-8.269-3.071-12.849-4.91l11.18-27.839c13.054,5.243,23.351,8.649,30.604,10.124l8.02,24.888
			C374.139,145.252,367.541,153.844,361.826,162.904z"/>
	</g>
</g>
<g>
</g>
<g>
</g>
<g>
</g>
<g>
</g>
<g>
</g>
<g>
</g>
<g>
</g>
<g>
</g>
<g>
</g>
<g>
</g>
<g>
</g>
<g>
</g>
<g>
</g>
<g>
</g>
<g>
</g>
</svg>
