<?xml version="1.0" encoding="utf-8"?>
<!-- Generator: Adobe Illustrator 24.2.3, SVG Export Plug-In . SVG Version: 6.00 Build 0)  -->
<svg version="1.1" xmlns="http://www.w3.org/2000/svg" xmlns:xlink="http://www.w3.org/1999/xlink" x="0px" y="0px"
	 viewBox="0 0 512 512" style="enable-background:new 0 0 512 512;" xml:space="preserve">
<path d="M365.71,91.43H54.86C24.56,91.43,0,115.99,0,146.29v310.86C0,487.44,24.56,512,54.86,512h310.86
	c30.3,0,54.86-24.56,54.86-54.86V146.29C420.57,115.99,396.01,91.43,365.71,91.43z"/>
<path d="M457.14,0H128C97.87,0,73.37,24.3,73.14,54.44c0,0.15,0,0.27,0,0.42h292.57c50.47,0.06,91.37,40.96,91.43,91.43v292.57
	c0.15,0,0.27,0,0.42,0C487.7,438.63,512,414.13,512,384V54.86C512,24.56,487.44,0,457.14,0z"/>
</svg>
