<?xml version="1.0" encoding="utf-8"?>
<!-- Generator: Adobe Illustrator 24.2.3, SVG Export Plug-In . SVG Version: 6.00 Build 0)  -->
<svg version="1.1" xmlns="http://www.w3.org/2000/svg" xmlns:xlink="http://www.w3.org/1999/xlink" x="0px" y="0px"
	 viewBox="0 0 512 512" style="enable-background:new 0 0 512 512;" xml:space="preserve">
<path d="M492,72h-96V20c0-11.05-8.95-20-20-20s-20,8.95-20,20v52H156V20c0-11.05-8.95-20-20-20s-20,8.95-20,20v52H20
	C8.95,72,0,80.95,0,92v400c0,11.05,8.95,20,20,20h472c11.05,0,20-8.95,20-20V92C512,80.95,503.05,72,492,72z M472,472H40V202h432
	V472z M472,162H40v-50h432V162z"/>
<path d="M358.98,358.38h-81.88v86.94h-42.42v-86.94h-81.45v-38.62h81.45v-86.52h42.42v86.52h81.88V358.38z"/>
</svg>
