<?xml version="1.0" encoding="utf-8"?>
<!-- Generator: Adobe Illustrator 23.0.1, SVG Export Plug-In . SVG Version: 6.00 Build 0)  -->
<svg version="1.1" id="Icon_ionic-ios-people" xmlns="http://www.w3.org/2000/svg" xmlns:xlink="http://www.w3.org/1999/xlink" viewBox="0 0 189.2 189.2" xml:space="preserve">
<path id="Path_126" fill="#35495e" d="M130.2,124.3c-4.3-1.5-11.3-1.6-14.4-2.8c-2.1-0.8-5.6-1.7-6.7-3.1s-1.1-10.8-1.1-10.8
	c1.6-1.5,2.9-3.3,3.8-5.3c1.1-2.8,1.8-10.4,1.8-10.4s2.5,1.1,3.5-3.9c0.8-4.3,2.4-6.6,2-9.7c-0.5-3.2-2.2-2.4-2.2-2.4
	s2.2-3.2,2.2-14.1c0-11.3-8.6-22.3-24.7-22.3c-16.1,0-24.8,11.1-24.8,22.3c0,10.9,2.2,14.1,2.2,14.1s-1.8-0.8-2.2,2.4
	c-0.5,3.2,1.1,5.4,2,9.7c1,5,3.5,3.9,3.5,3.9s0.7,7.6,1.8,10.4c0.9,2,2.2,3.8,3.8,5.3c0,0,0,9.4-1.1,10.8s-4.5,2.2-6.7,3
	c-3.1,1.2-10.1,1.3-14.4,2.8c-4.3,1.5-17.5,8.4-17.5,25.4h106.5C147.8,132.7,134.5,125.8,130.2,124.3z"/>
<path id="Path_127" fill="#35495e" d="M49.9,106c0,0,8.8-0.3,12.3-3.6c-5.7-9-2.6-19.4-3.8-29.2c-1.2-9.7-6.5-15.6-17.2-15.6H41
	c-10.3,0-15.9,5.8-17.1,15.6c-1.2,9.7,2.1,21.4-3.8,29.2c3.5,3.3,12.4,3.2,12.4,3.2l0,0c0,0,0.4,5.5-0.4,6.4s-2.9,1.8-4.4,2.1
	c-3.2,0.7-6.4,1.6-9.6,2.8c-2.9,1-8.3,6.6-8.3,14.2h29.6c0.8-3.1,6.4-8.5,11.8-11.4c3.3-1.8,6.6-1.6,9.1-2c0,0,1.4-2.3-3.2-3.2
	c0,0-6.3-1.6-7.1-2.6C49.4,111.2,49.9,106,49.9,106z"/>
<path id="Path_128" fill="#35495e" d="M139.3,106c0,0-8.8-0.3-12.3-3.6c5.7-9,2.6-19.4,3.8-29.2c1.2-9.7,6.5-15.6,17.2-15.6h0.1
	c10.3,0,15.9,5.8,17.1,15.6c1.2,9.7-2.1,21.4,3.8,29.2c-3.5,3.3-12.4,3.2-12.4,3.2l0,0c0,0-0.4,5.5,0.4,6.4c0.7,0.9,2.9,1.8,4.4,2.1
	c3.2,0.7,6.4,1.6,9.6,2.8c2.9,1,8.3,6.6,8.3,14.2h-29.6c-0.8-3.1-6.4-8.5-11.8-11.4c-3.3-1.8-6.6-1.6-9.1-2c0,0-1.4-2.3,3.2-3.2
	c0,0,6.3-1.6,7.1-2.6C139.8,111.2,139.3,106,139.3,106z"/>
</svg>
