<?xml version="1.0" encoding="utf-8"?>
<!-- Generator: Adobe Illustrator 24.2.3, SVG Export Plug-In . SVG Version: 6.00 Build 0)  -->
<svg version="1.1" xmlns="http://www.w3.org/2000/svg" xmlns:xlink="http://www.w3.org/1999/xlink" x="0px" y="0px"
	 viewBox="0 0 512 512" style="enable-background:new 0 0 512 512;" xml:space="preserve">
<path d="M507.08,223.34l-24.89-14.32c-1.77-8.51-4.02-16.91-6.73-25.16l14.38-24.79c1.38-2.38,1.52-5.27,0.4-7.77
	c-7.16-15.94-15.93-31.11-26.18-45.27c-1.6-2.22-4.17-3.53-6.91-3.53h-0.02l-28.68,0.08c-5.77-6.47-11.91-12.6-18.38-18.38
	l0.08-28.68c0.01-2.74-1.3-5.32-3.53-6.94c-14.16-10.25-29.33-19.02-45.27-26.18c-2.5-1.13-5.4-0.98-7.77,0.4l-24.78,14.38
	c-8.23-2.71-16.6-4.95-25.08-6.71L289.38,4.42C287.88,1.7,285.02,0,281.9,0h-50.53c-3.11,0-5.98,1.69-7.48,4.42l-14.33,26.05
	c-8.48,1.76-16.84,4-25.07,6.71l-24.78-14.37c-2.38-1.38-5.27-1.53-7.77-0.4c-15.95,7.16-31.12,15.93-45.28,26.18
	c-2.22,1.61-3.53,4.19-3.53,6.94l0.08,28.67c-6.46,5.78-12.6,11.91-18.37,18.37l-28.68-0.08c-2.79-0.2-5.46,1.16-6.93,3.53
	c-10.25,14.16-19.03,29.32-26.18,45.27c-1.12,2.51-0.98,5.4,0.4,7.77l14.38,24.79c-2.71,8.22-4.95,16.59-6.71,25.07L5.05,223.26
	c-2.73,1.5-4.42,4.36-4.42,7.48v50.53c0,3.11,1.69,5.98,4.42,7.48l26.06,14.34c1.76,8.47,4,16.84,6.71,25.07l-14.38,24.79
	c-1.38,2.38-1.52,5.27-0.4,7.77c7.16,15.94,15.93,31.11,26.18,45.27c1.6,2.22,4.17,3.53,6.91,3.53h0.02l28.68-0.08
	c5.77,6.47,11.91,12.6,18.38,18.38l-0.08,28.68c-0.01,2.74,1.3,5.32,3.53,6.94c14.16,10.25,29.33,19.02,45.27,26.18
	c2.51,1.12,5.4,0.97,7.77-0.4l24.78-14.38c8.23,2.71,16.6,4.95,25.08,6.71l14.33,26.05c1.5,2.73,4.36,4.42,7.48,4.42h50.53
	c3.11,0,5.98-1.69,7.48-4.42l14.33-26.05c8.48-1.76,16.84-4,25.07-6.71l24.78,14.38c2.38,1.37,5.27,1.52,7.77,0.4
	c15.95-7.16,31.12-15.93,45.28-26.18c2.22-1.61,3.53-4.19,3.53-6.94l-0.08-28.67c6.47-5.77,12.6-11.91,18.37-18.37l28.68,0.08h0.02
	c2.74,0,5.31-1.31,6.91-3.53c10.25-14.16,19.03-29.32,26.18-45.27c1.12-2.51,0.98-5.4-0.4-7.77l-14.38-24.79
	c2.71-8.25,4.96-16.65,6.73-25.16l24.89-14.32c2.65-1.52,4.28-4.34,4.28-7.4v-50.53C511.36,227.68,509.73,224.86,507.08,223.34z
	 M494.29,276.33l-23.97,13.79c-2.16,1.24-3.67,3.36-4.13,5.81c-1.95,10.3-4.67,20.44-8.12,30.33c-0.82,2.35-0.57,4.94,0.68,7.09
	l14.1,24.31c-5.72,12.13-12.44,23.76-20.1,34.76l-28.13-0.08h-0.02c-2.48,0-4.84,1.08-6.46,2.96c-6.85,7.92-14.26,15.34-22.18,22.19
	c-1.89,1.63-2.97,3.99-2.96,6.48l0.08,28.12c-11.01,7.66-22.64,14.39-34.77,20.1L334,458.11c-2.15-1.24-4.74-1.49-7.09-0.68
	c-9.9,3.45-20.04,6.16-30.34,8.11c-2.5,0.47-4.66,2.04-5.88,4.27l-13.82,25.12h-40.45l-13.82-25.12c-1.22-2.23-3.38-3.8-5.88-4.27
	c-10.3-1.95-20.44-4.66-30.33-8.11c-2.35-0.82-4.94-0.58-7.1,0.67l-24.31,14.1c-12.13-5.72-23.76-12.44-34.77-20.1l0.08-28.13
	c0.01-2.49-1.07-4.86-2.96-6.48c-7.92-6.85-15.34-14.26-22.18-22.19c-1.62-1.88-3.98-2.96-6.46-2.96h-0.02l-28.12,0.08
	c-7.67-11-14.39-22.63-20.11-34.76l14.1-24.31c1.25-2.15,1.49-4.74,0.68-7.09c-3.45-9.9-6.16-20.04-8.12-30.33
	c-0.47-2.5-2.04-4.66-4.27-5.89L17.7,276.22v-40.44l25.12-13.82c2.23-1.23,3.79-3.39,4.27-5.89c1.95-10.3,4.67-20.44,8.12-30.33
	c0.82-2.35,0.57-4.94-0.68-7.09l-14.1-24.31c5.72-12.13,12.44-23.76,20.1-34.76l28.13,0.08h0.02c2.48,0,4.84-1.08,6.46-2.96
	c6.85-7.92,14.26-15.34,22.18-22.19c1.88-1.63,2.96-3.99,2.96-6.48L120.2,59.9c11.01-7.66,22.64-14.39,34.77-20.1l24.31,14.1
	c2.15,1.25,4.74,1.5,7.09,0.68c9.9-3.45,20.04-6.16,30.34-8.11c2.5-0.47,4.66-2.04,5.88-4.27l13.82-25.12h40.45l13.82,25.12
	c1.22,2.23,3.39,3.8,5.89,4.27c10.3,1.95,20.44,4.66,30.33,8.11c2.35,0.82,4.94,0.57,7.09-0.68l24.31-14.1
	c12.13,5.72,23.76,12.44,34.77,20.1l-0.08,28.13c-0.01,2.49,1.07,4.86,2.96,6.48c7.92,6.85,15.34,14.26,22.18,22.19
	c1.62,1.88,3.98,2.96,6.46,2.96h0.02l28.12-0.08c7.67,11,14.39,22.63,20.11,34.76l-14.1,24.31c-1.25,2.15-1.49,4.74-0.68,7.09
	c3.45,9.9,6.16,20.04,8.12,30.33c0.47,2.45,1.97,4.57,4.13,5.81l23.98,13.79V276.33z"/>
<path d="M256.64,68.27C152.96,68.27,68.9,152.32,68.9,256c0.12,103.63,84.1,187.62,187.73,187.73
	c103.68,0,187.73-84.05,187.73-187.73S360.32,68.27,256.64,68.27z M256.64,426.66c-94.26,0-170.67-76.41-170.67-170.67
	c0.11-94.21,76.45-170.56,170.67-170.67c94.26,0,170.67,76.41,170.67,170.67S350.89,426.66,256.64,426.66z"/>
<path d="M359.04,213.33c-1.9,0-3.74,0.63-5.24,1.8l-63.02,49.02v-42.29c0-4.71-3.82-8.54-8.53-8.54c-1.9,0-3.74,0.63-5.24,1.8
	l-63.02,49.02V162.13c0-4.71-3.82-8.53-8.53-8.53c0,0,0,0,0,0h-51.2c-4.71,0-8.53,3.82-8.53,8.53c0,0,0,0,0,0v187.73
	c0,4.71,3.82,8.53,8.53,8.53c0,0,0,0,0,0h204.8c4.71,0,8.53-3.82,8.53-8.53c0,0,0,0,0,0v-128
	C367.57,217.15,363.75,213.33,359.04,213.33z M350.5,341.33H162.77V170.67h34.13V281.6c0,4.71,3.82,8.54,8.53,8.54
	c1.9,0,3.74-0.63,5.24-1.8l63.02-49.02v42.29c0,4.71,3.82,8.54,8.53,8.54c1.9,0,3.74-0.63,5.24-1.8l63.02-49.02V341.33z"/>
<path d="M251.79,122.23c-3.76,4.1-5.43,5.77-9.34,5.77c-3.92,0-5.6-1.67-9.36-5.77c-8.65-12.12-25.49-14.93-37.61-6.28
	c-2.43,1.73-4.55,3.86-6.28,6.28c-3.76,4.1-5.44,5.77-9.36,5.77v17.07c8.67-0.16,16.77-4.33,21.94-11.3
	c3.76-4.1,5.44-5.77,9.37-5.77c3.92,0,5.6,1.67,9.36,5.77c8.63,12.11,25.45,14.93,37.56,6.3c2.44-1.74,4.57-3.87,6.3-6.3
	c3.76-4.1,5.43-5.76,9.33-5.76v-17.07C265.04,111.09,256.94,115.27,251.79,122.23z"/>
</svg>
