<?xml version="1.0" encoding="iso-8859-1"?>
<!-- Generator: Adobe Illustrator 18.0.0, SVG Export Plug-In . SVG Version: 6.00 Build 0)  -->
<!DOCTYPE svg PUBLIC "-//W3C//DTD SVG 1.1//EN" "http://www.w3.org/Graphics/SVG/1.1/DTD/svg11.dtd">
<svg version="1.1" id="Capa_1" xmlns="http://www.w3.org/2000/svg" xmlns:xlink="http://www.w3.org/1999/xlink" x="0px" y="0px"
	 viewBox="0 0 290.56 290.56" style="enable-background:new 0 0 290.56 290.56;" xml:space="preserve">
<path d="M290.335,188.266c-1.446-4.753-2.893-9.506-4.339-14.259c-0.828-2.72-3.689-4.268-6.419-3.475
	c-2.274,0.661-0.635,0.255-2.918,0.875l-0.316-1.139c-5.231-18.866-21.602-32.544-41.097-34.348
	c-14.479-1.339-33.876-5.251-57.929-14.696c-2.933-1.152-6.294-2.861-9.898-4.941l-8.946,14.063
	c-1.43,2.247-3.856,3.476-6.335,3.476c-1.378,0-2.77-0.379-4.019-1.173c-3.495-2.224-4.526-6.858-2.303-10.354l8.949-14.067
	c-4.161-2.845-8.364-5.876-12.391-8.877l-18.01,24.613c-1.469,2.008-3.748,3.072-6.059,3.072c-1.537,0-3.088-0.472-4.423-1.448
	c-3.343-2.446-4.07-7.139-1.624-10.481l18.215-24.893c-3.408-2.688-6.41-5.113-8.771-7.044c-3.028-2.477-7.447-2.167-10.106,0.702
	c-10.388,11.209-38.802,36.244-86.165,37.351c-4.583,0.107-9.086-0.101-13.487-0.447c-1.394-0.11-2.77,0.368-3.797,1.318
	c-1.026,0.95-1.608,2.285-1.608,3.683v57.987H4.583c-2.531,0-4.583,2.052-4.583,4.583v16.125c0,2.531,2.052,4.583,4.583,4.583
	c0,0,121.524-0.402,122.913-0.402c64.026,0,106.369,1.517,159.319-13.89c1.334-0.388,2.457-1.293,3.118-2.515
	C290.595,191.031,290.739,189.595,290.335,188.266z"/>
<g>
</g>
<g>
</g>
<g>
</g>
<g>
</g>
<g>
</g>
<g>
</g>
<g>
</g>
<g>
</g>
<g>
</g>
<g>
</g>
<g>
</g>
<g>
</g>
<g>
</g>
<g>
</g>
<g>
</g>
</svg>
