<?xml version="1.0" encoding="utf-8"?>
<!-- Generator: Adobe Illustrator 23.0.1, SVG Export Plug-In . SVG Version: 6.00 Build 0)  -->
<svg version="1.1" id="Layer_1" xmlns="http://www.w3.org/2000/svg" xmlns:xlink="http://www.w3.org/1999/xlink" x="0px" y="0px"
	 viewBox="0 0 512 512" style="enable-background:new 0 0 512 512;" xml:space="preserve">
<g>
	<path d="M367.5,124.3V428H428V124.3H367.5z M387.7,305.7v-20.2h20.2v20.2H387.7z M407.8,325.9V346h-20.2v-20.2H407.8z M387.7,265.4
		v-20.2h20.2v20.2H387.7z M387.7,225.1v-20.2h20.2v20.2H387.7z M387.7,184.8v-20.2h20.2v20.2H387.7z"/>
	<path d="M144.5,124.3H84V428h60.5V124.3z M124.3,204.9v20.2h-20.2v-20.2H124.3z M104.2,184.8v-20.2h20.2v20.2H104.2z M124.3,245.3
		v20.2h-20.2v-20.2H124.3z M124.3,285.6v20.2h-20.2v-20.2H124.3z M124.3,325.9V346h-20.2v-20.2H124.3z"/>
	<rect x="225.1" y="144.5" width="61.8" height="19.5"/>
	<rect x="225.1" y="305" width="61.8" height="20.2"/>
	<rect x="225.1" y="225.1" width="61.8" height="19.5"/>
	<rect x="266.1" y="345.4" width="20.8" height="82.6"/>
	<rect x="225.1" y="345.4" width="20.8" height="82.6"/>
	<path d="M347.4,84H164.6v344h40.3V284.9h102.1V428h40.3V84z M204.9,124.3h102.1v59.8H204.9V124.3z M204.9,264.7v-59.8h102.1v59.8
		H204.9z"/>
</g>
</svg>
