<?xml version="1.0" encoding="utf-8"?>
<!-- Generator: Adobe Illustrator 24.2.0, SVG Export Plug-In . SVG Version: 6.00 Build 0)  -->
<svg version="1.1" id="bended" xmlns="http://www.w3.org/2000/svg" xmlns:xlink="http://www.w3.org/1999/xlink" x="0px" y="0px"
	 viewBox="0 0 512 512" style="enable-background:new 0 0 512 512;" xml:space="preserve">
<g>
	<g>
		<path style="fill:#36495E;" d="M17.99,395.06c8.11-12.44,16.44-24.82,25-37.13C31.41,348.39,19.63,339,7.64,329.74
			c32.1-5.08,64.31-9.18,96.6-12.28c1.22,22.03,2.48,44.05,3.78,66.08C77.93,386.48,47.91,390.32,17.99,395.06z"/>
		<path style="fill:#1A2C3D;" d="M68.3,339.5c11.82-7.48,23.8-14.83,35.94-22.04c-0.13,7.99-0.24,15.98-0.34,23.97
			c-11.65,1.14-23.28,2.41-34.91,3.81C68.76,343.33,68.53,341.41,68.3,339.5z"/>
		<path style="fill:#36495E;" d="M494.01,395.05c-8.11-12.44-16.44-24.82-25-37.13c11.58-9.53,23.36-18.92,35.34-28.18
			c-31.79-5.03-63.69-9.1-95.66-12.19c-1.55,22-3.12,43.99-4.72,65.99C434.07,386.47,464.09,390.31,494.01,395.05z"/>
		<path style="fill:#1A2C3D;" d="M443.69,339.49c-11.51-7.45-23.18-14.76-35-21.95c-0.19,7.96-0.39,15.92-0.6,23.88
			c11.65,1.14,23.28,2.41,34.91,3.81C443.23,343.32,443.46,341.4,443.69,339.49z"/>
	</g>
</g>
<path style="fill:#EDEDED;" d="M220.11,436.77c-3.21,0-6.35-1.54-8.28-4.38l-20.25-29.81l-35.7,4.9c-0.46,0.06-0.92,0.09-1.37,0.09
	c-4.77,0-8.96-3.41-9.83-8.23l-6.37-35.47l-34.61-10.05c-5.15-1.49-8.2-6.78-6.92-11.99l8.6-35l-27.53-23.25
	c-4.1-3.46-4.73-9.53-1.45-13.77l22.09-28.47L82.8,208.89c-2.33-4.83-0.45-10.64,4.28-13.17l31.77-17.02l-1.14-36.02
	c-0.17-5.36,3.92-9.9,9.27-10.29l35.94-2.63l13.61-33.37c1.58-3.86,5.31-6.23,9.26-6.23c1.13,0,2.27,0.19,3.39,0.59l33.91,12.22
	l26.01-24.95c1.93-1.86,4.43-2.78,6.92-2.78s4.99,0.93,6.92,2.78l26.01,24.95l33.91-12.22c1.12-0.4,2.26-0.59,3.39-0.59
	c3.96,0,7.68,2.36,9.26,6.23l13.61,33.37l35.94,2.63c5.35,0.39,9.43,4.93,9.26,10.29l-1.14,36.02l31.77,17.02
	c4.73,2.53,6.61,8.34,4.28,13.17l-15.69,32.44l22.09,28.47c3.29,4.24,2.65,10.31-1.45,13.77l-27.53,23.25l8.6,35
	c1.28,5.21-1.77,10.5-6.92,11.99l-34.61,10.05l-6.37,35.47c-0.87,4.82-5.06,8.23-9.83,8.23c-0.45,0-0.91-0.03-1.37-0.09l-35.71-4.9
	l-20.25,29.81c-1.93,2.84-5.07,4.38-8.28,4.38c-1.8,0-3.62-0.49-5.26-1.5l-30.62-19l-30.62,19
	C223.74,436.28,221.91,436.77,220.11,436.77z"/>
<g>
	<path style="fill:#3A95D2;" d="M190.42,202.39v32.81h57.46v23.06h-57.46v45.22h-28.73V179.33h93.82v23.06H190.42z"/>
	<path style="fill:#36495E;" d="M264.9,291.24l9.75-21.64c10.46,7.63,26.07,12.95,40.97,12.95c17.03,0,23.94-5.67,23.94-13.3
		c0-23.23-72.18-7.27-72.18-53.38c0-21.1,17.03-38.66,52.32-38.66c15.61,0,31.57,3.72,43.1,11l-8.87,21.81
		c-11.53-6.56-23.41-9.75-34.41-9.75c-17.03,0-23.59,6.38-23.59,14.19c0,22.88,72.18,7.09,72.18,52.67
		c0,20.75-17.2,38.49-52.67,38.49C295.76,305.61,275.9,299.76,264.9,291.24z"/>
</g>
<g>
	<path style="fill:#36495E;" d="M74.29,405.98c-3.47-21.94-6.95-43.87-10.42-65.81c127.29-20.16,256.97-20.16,384.26,0
		c-3.47,21.94-6.95,43.87-10.42,65.81C317.32,386.92,194.68,386.92,74.29,405.98z"/>
	<g>
		<path style="fill:#FFFFFF;" d="M161.39,349.34c-2.97,8.91-5.87,17.83-8.68,26.76c-1.29,0.11-2.58,0.23-3.87,0.35
			c-4.35-8.29-8.78-16.56-13.29-24.8c1.17-0.12,2.33-0.23,3.5-0.35c0.39-0.04,0.71,0.02,0.96,0.19c0.25,0.16,0.46,0.37,0.61,0.64
			c2.85,5.39,5.68,10.8,8.47,16.21c0.45,0.91,0.89,1.97,1.31,3.18c0.08-0.62,0.17-1.22,0.28-1.78c0.1-0.56,0.23-1.09,0.37-1.57
			c1.78-5.82,3.59-11.64,5.44-17.45c0.08-0.25,0.24-0.48,0.47-0.71c0.23-0.23,0.54-0.35,0.91-0.38
			C159.04,349.52,160.21,349.43,161.39,349.34z"/>
		<path style="fill:#FFFFFF;" d="M193.85,369.8c0.05,1.13,0.11,2.27,0.16,3.4c-5.5,0.29-11,0.62-16.49,0.98
			c-0.57-8.63-1.15-17.26-1.72-25.89c5.62-0.37,11.23-0.71,16.85-1c0.06,1.13,0.12,2.27,0.18,3.4c-4.14,0.22-8.27,0.46-12.41,0.72
			c0.16,2.6,0.33,5.2,0.49,7.81c3.28-0.21,6.57-0.4,9.86-0.58c0.06,1.1,0.12,2.2,0.18,3.29c-3.28,0.18-6.55,0.37-9.83,0.58
			c0.17,2.67,0.34,5.34,0.5,8C185.69,370.25,189.77,370.01,193.85,369.8z"/>
		<path style="fill:#FFFFFF;" d="M229.85,371.86c-1.28,0.03-2.56,0.06-3.84,0.09c-0.76,0.02-1.32-0.25-1.68-0.82
			c-2.14-2.86-4.29-5.71-6.46-8.55c-0.22-0.29-0.46-0.5-0.71-0.63c-0.25-0.12-0.63-0.18-1.12-0.16c-0.8,0.03-1.61,0.05-2.41,0.08
			c0.12,3.48,0.25,6.96,0.37,10.45c-1.43,0.05-2.87,0.1-4.3,0.16c-0.34-8.64-0.68-17.29-1.02-25.93c2.65-0.1,5.31-0.2,7.97-0.29
			c1.78-0.06,3.31,0.07,4.61,0.38c1.29,0.31,2.36,0.78,3.2,1.4c0.84,0.62,1.47,1.38,1.89,2.27c0.42,0.89,0.64,1.89,0.66,2.99
			c0.02,0.9-0.1,1.75-0.36,2.53c-0.26,0.79-0.65,1.51-1.16,2.16c-0.51,0.65-1.14,1.22-1.9,1.71c-0.76,0.49-1.62,0.88-2.59,1.17
			c0.54,0.3,1.01,0.72,1.41,1.28C224.92,365.38,227.39,368.62,229.85,371.86z M216.94,358.7c0.99-0.03,1.86-0.18,2.59-0.43
			c0.74-0.26,1.35-0.6,1.83-1.04c0.48-0.44,0.84-0.95,1.08-1.54c0.23-0.59,0.34-1.24,0.32-1.95c-0.04-1.42-0.56-2.48-1.55-3.2
			c-0.99-0.72-2.48-1.04-4.45-0.98c-1.19,0.04-2.37,0.08-3.56,0.12c0.11,3.04,0.22,6.09,0.32,9.13
			C214.66,358.77,215.8,358.73,216.94,358.7z"/>
		<path style="fill:#FFFFFF;" d="M248.4,371.6c-1.44,0.01-2.88,0.02-4.32,0.04c-0.09-8.65-0.17-17.3-0.26-25.95
			c1.47-0.01,2.94-0.03,4.42-0.04C248.29,354.3,248.35,362.95,248.4,371.6z"/>
		<path style="fill:#FFFFFF;" d="M270.32,349.12c-0.03,2.77-0.07,5.54-0.1,8.31c3.49,0.04,6.98,0.1,10.48,0.17
			c-0.02,1.14-0.05,2.27-0.07,3.41c-3.48-0.07-6.96-0.13-10.45-0.17c-0.04,3.61-0.09,7.22-0.13,10.83
			c-1.44-0.02-2.88-0.03-4.32-0.04c0.07-8.65,0.14-17.3,0.21-25.95c5.63,0.05,11.25,0.13,16.88,0.26c-0.03,1.14-0.05,2.27-0.08,3.41
			C278.6,349.24,274.46,349.16,270.32,349.12z"/>
		<path style="fill:#FFFFFF;" d="M301.87,372.47c-1.44-0.06-2.88-0.11-4.32-0.16c0.3-8.65,0.61-17.29,0.91-25.94
			c1.47,0.05,2.94,0.11,4.41,0.16C302.54,355.18,302.21,363.82,301.87,372.47z"/>
		<path style="fill:#FFFFFF;" d="M335.92,370.87c-0.08,1.13-0.17,2.26-0.25,3.4c-5.5-0.37-10.99-0.7-16.49-1
			c0.46-8.64,0.93-17.28,1.39-25.91c5.62,0.3,11.24,0.64,16.85,1.02c-0.08,1.13-0.15,2.27-0.23,3.4c-4.14-0.28-8.27-0.54-12.41-0.77
			c-0.15,2.6-0.3,5.21-0.45,7.81c3.29,0.19,6.57,0.39,9.85,0.6c-0.07,1.1-0.14,2.19-0.22,3.29c-3.28-0.21-6.55-0.42-9.83-0.6
			c-0.15,2.67-0.31,5.34-0.46,8.01C327.77,370.34,331.85,370.59,335.92,370.87z"/>
		<path style="fill:#FFFFFF;" d="M375.82,364.62c-0.19,1.91-0.69,3.63-1.49,5.15c-0.8,1.52-1.83,2.79-3.1,3.81
			c-1.27,1.02-2.74,1.77-4.42,2.25c-1.68,0.48-3.51,0.62-5.49,0.45c-3.32-0.3-6.65-0.58-9.98-0.85c0.7-8.62,1.4-17.24,2.09-25.87
			c3.4,0.28,6.8,0.56,10.2,0.87c2.02,0.18,3.83,0.67,5.43,1.45c1.59,0.78,2.92,1.8,3.99,3.05c1.06,1.25,1.84,2.7,2.33,4.35
			C375.87,360.93,376.02,362.71,375.82,364.62z M371.4,364.19c0.14-1.48,0.07-2.84-0.23-4.06c-0.3-1.22-0.8-2.28-1.5-3.17
			c-0.7-0.89-1.58-1.6-2.65-2.14c-1.07-0.54-2.29-0.87-3.68-0.99c-1.92-0.17-3.85-0.34-5.78-0.5c-0.54,6.36-1.08,12.71-1.61,19.07
			c1.89,0.16,3.79,0.33,5.68,0.49c1.36,0.12,2.61,0.02,3.74-0.31c1.13-0.33,2.12-0.87,2.96-1.61c0.84-0.75,1.53-1.69,2.06-2.83
			C370.91,367,371.25,365.68,371.4,364.19z"/>
	</g>
	<path style="fill:#FFFFFF;" d="M102.64,368.25c0.26,2-1.2,3.83-3.26,4.1c-2.06,0.27-3.94-1.12-4.22-3.11
		c-0.27-1.99,1.19-3.84,3.26-4.12C100.49,364.85,102.38,366.26,102.64,368.25z"/>
	<path style="fill:#FFFFFF;" d="M414.64,368.95c-0.27,2-2.15,3.39-4.21,3.12c-2.06-0.27-3.52-2.1-3.27-4.1
		c0.25-2,2.14-3.4,4.21-3.13C413.45,365.11,414.91,366.95,414.64,368.95z"/>
</g>
<g id="shine_1_">
	<path style="opacity:0.27;fill:#FFFFFF;" d="M349.09,129.75l-13.61-33.37c-1.58-3.86-5.31-6.23-9.26-6.23
		c-1.13,0-2.27,0.19-3.39,0.59l-33.91,12.22l-26.01-24.95c-1.93-1.86-4.43-2.78-6.92-2.78s-4.99,0.93-6.92,2.78l-26.01,24.95
		l-33.91-12.22c-1.12-0.4-2.26-0.59-3.39-0.59c-3.95,0-7.68,2.36-9.26,6.23l-13.61,33.37l-35.94,2.63
		c-5.35,0.39-9.43,4.93-9.27,10.29l1.14,36.02l-31.77,17.02c-4.73,2.53-6.61,8.34-4.28,13.17l15.69,32.44L76.39,269.8
		c-3.29,4.24-2.65,10.31,1.45,13.77l27.53,23.25l-2.65,10.78c-31.78,3.08-63.48,7.12-95.08,12.12
		c11.98,9.26,23.76,18.66,35.34,28.18c-8.56,12.31-16.89,24.69-25,37.13c17.76-2.81,35.56-5.3,53.39-7.48
		c0.97,6.14,1.94,12.27,2.92,18.41c23.25-3.68,46.59-6.65,69.98-8.91l0.41,2.26c0.87,4.82,5.06,8.23,9.83,8.23
		c0.45,0,0.91-0.03,1.37-0.09l1.9-0.26l194.75-277.21L349.09,129.75z"/>
</g>
</svg>
