<?xml version="1.0" encoding="utf-8"?>
<!-- Generator: Adobe Illustrator 24.2.3, SVG Export Plug-In . SVG Version: 6.00 Build 0)  -->
<svg version="1.1" xmlns="http://www.w3.org/2000/svg" xmlns:xlink="http://www.w3.org/1999/xlink" x="0px" y="0px"
	 viewBox="0 0 512 512" style="enable-background:new 0 0 512 512;" xml:space="preserve">
<path d="M505.19,182.59H7.81c-4.04,0-7.31-3.28-7.31-7.32c0-1.01,0.21-2,0.61-2.92L57.27,44c1.16-2.66,3.79-4.39,6.7-4.39h385.05
	c2.91,0,5.54,1.72,6.7,4.39l56.16,128.35c1.62,3.7-0.08,8.01-3.78,9.63C507.19,182.38,506.19,182.59,505.19,182.59L505.19,182.59z
	 M19,167.97h475L444.27,54.24H68.76L19,167.97z"/>
<path d="M469.66,262.09c-23.65-0.03-42.81-19.19-42.83-42.84v-43.97c0-4.04,3.27-7.31,7.31-7.31h71.04c4.04,0,7.31,3.27,7.31,7.31
	v43.99C512.46,242.91,493.3,262.06,469.66,262.09z M441.45,182.59v36.67c0,15.58,12.63,28.21,28.21,28.21
	c15.58,0,28.21-12.63,28.21-28.21l0,0v-36.67H441.45z"/>
<path d="M398.61,262.09c-23.65-0.03-42.81-19.19-42.84-42.84v-43.97c0-4.04,3.27-7.31,7.31-7.31h71.06c4.04,0,7.31,3.27,7.31,7.31
	v43.99C441.42,242.91,422.25,262.06,398.61,262.09z M370.39,182.59v36.67c0,15.58,12.63,28.21,28.21,28.21s28.21-12.63,28.21-28.21
	l0,0v-36.67H370.39z"/>
<path d="M327.55,262.09c-23.65-0.03-42.81-19.19-42.83-42.84v-43.97c0-4.04,3.27-7.31,7.31-7.31h71.05c4.04,0,7.31,3.27,7.31,7.31
	v43.99C370.36,242.91,351.19,262.06,327.55,262.09z M299.34,182.59v36.67c0,15.58,12.63,28.21,28.21,28.21
	c15.58,0,28.21-12.63,28.21-28.21l0,0v-36.67H299.34z"/>
<path d="M256.5,262.09c-23.65-0.03-42.81-19.19-42.84-42.84v-43.97c0-4.04,3.27-7.31,7.31-7.31h71.06c4.04,0,7.31,3.27,7.31,7.31
	v43.99C299.31,242.91,280.14,262.06,256.5,262.09z M228.29,182.59v36.67c0,15.58,12.63,28.21,28.21,28.21
	c15.58,0,28.21-12.63,28.21-28.21l0,0v-36.67H228.29z"/>
<path d="M185.45,262.09c-23.65-0.03-42.81-19.19-42.84-42.84v-43.97c0-4.04,3.27-7.31,7.31-7.31h71.05c4.04,0,7.31,3.27,7.31,7.31
	v43.99C228.25,242.91,209.09,262.06,185.45,262.09z M157.24,182.59v36.67c0,15.58,12.63,28.21,28.21,28.21s28.21-12.63,28.21-28.21
	l0,0v-36.67H157.24z"/>
<path d="M114.39,262.09c-23.65-0.03-42.81-19.19-42.84-42.84v-43.97c0-4.04,3.27-7.31,7.31-7.31h71.06c4.04,0,7.31,3.27,7.31,7.31
	v43.99C157.2,242.91,138.03,262.06,114.39,262.09z M86.18,182.59v36.67c0,15.58,12.63,28.21,28.21,28.21s28.21-12.63,28.21-28.21
	v-36.67H86.18z"/>
<path d="M43.34,262.09c-23.64-0.03-42.8-19.18-42.84-42.82v-43.99c0-4.04,3.27-7.31,7.31-7.31h71.05c4.04,0,7.31,3.27,7.31,7.31
	v43.99C86.14,242.91,66.98,262.06,43.34,262.09z M15.13,182.59v36.67c0,15.58,12.63,28.21,28.21,28.21s28.21-12.63,28.21-28.21l0,0
	v-36.67H15.13z"/>
<path d="M477.11,471.39H35.89c-4.04,0-7.31-3.27-7.31-7.31V253.99c0-4.04,3.27-7.31,7.31-7.31s7.31,3.27,7.31,7.31v202.77h426.58
	V253.99c0-4.04,3.27-7.31,7.31-7.31c4.04,0,7.31,3.27,7.31,7.31v210.09C484.42,468.12,481.15,471.39,477.11,471.39z"/>
<path d="M216.27,471.39H102.9c-4.04,0-7.31-3.27-7.31-7.31V321.33c0-4.04,3.27-7.31,7.31-7.31h113.37c4.04,0,7.31,3.27,7.31,7.31
	v142.75C223.59,468.12,220.31,471.39,216.27,471.39z M110.21,456.76h98.74V328.65h-98.74V456.76z"/>
<path d="M410.1,409.1H278.44c-4.04,0-7.31-3.27-7.31-7.31v-80.46c0-4.04,3.27-7.31,7.31-7.31H410.1c4.04,0,7.31,3.27,7.31,7.31
	v80.46C417.41,405.83,414.14,409.1,410.1,409.1z M285.76,394.48h117.03v-65.83H285.76V394.48z"/>
</svg>
