<svg width="27" height="17" viewBox="0 0 27 17" xmlns="http://www.w3.org/2000/svg">
  <path d="M22.317 3.735c-.887-.286-1.646-.43-2.277-.43-.6 0-1.078.11-1.43.33-.352.22-.528.544-.528.97 0 .542.253.956.76 1.242.505.286 1.286.583 2.342.89 1.056.31 1.925.617 2.607.925.683.308 1.266.77 1.75 1.386.484.616.726 1.43.726 2.442 0 .983-.26 1.83-.78 2.54-.522.712-1.237 1.25-2.146 1.618-.91.367-1.943.55-3.102.55-1.247 0-2.47-.22-3.674-.66-1.203-.44-2.244-1.04-3.124-1.804l1.386-2.838c.777.704 1.672 1.27 2.684 1.694 1.012.425 1.936.638 2.772.638.72 0 1.28-.132 1.683-.396s.605-.645.605-1.144c0-.396-.136-.722-.407-.98-.27-.256-.616-.465-1.034-.626-.42-.16-.995-.345-1.728-.55-1.056-.293-1.918-.587-2.585-.88-.667-.293-1.243-.74-1.727-1.342-.484-.6-.726-1.4-.726-2.398 0-.924.25-1.734.748-2.43.5-.698 1.195-1.233 2.09-1.607.895-.374 1.936-.56 3.124-.56 1.056 0 2.097.153 3.124.46 1.027.31 1.936.72 2.728 1.233L24.836 4.89c-.792-.484-1.632-.87-2.52-1.155z" fill="#34495E"/>
  <path fill="#3498DB" d="M.694.6H11.76l-.022 2.882H4.17v3.784h6.952v2.904H4.17V16H.694"/>
</svg>
