<?xml version="1.0" encoding="utf-8"?>
<!-- Generator: Adobe Illustrator 24.2.3, SVG Export Plug-In . SVG Version: 6.00 Build 0)  -->
<svg version="1.1" xmlns="http://www.w3.org/2000/svg" xmlns:xlink="http://www.w3.org/1999/xlink" x="0px" y="0px"
	 viewBox="0 0 512 512" style="enable-background:new 0 0 512 512;" xml:space="preserve">
<path d="M441.6,70.34C396.29,25.09,336.07,0.17,272.03,0.17c-2.15,0-4.15,0.35-5.85,1.78c-1.68,1.42-2.67,3.54-2.67,5.74V239.8
	c0,4.15,3.36,7.51,7.52,7.51h233.45c4.1,0,7.52-3.43,7.51-7.53C511.91,175.76,486.91,115.59,441.6,70.34z M278.55,232.29
	L278.55,232.29v-217c118.36,3.38,214.21,98.77,218.29,217H278.55z"/>
<path d="M472.42,264.02H246.48V39.42c0-4.09-3.44-7.56-7.55-7.51c-33.22,0.14-65.37,6.95-95.54,20.23
	c-29.15,12.83-55.12,31.08-77.19,54.23c-2.82,2.96-2.71,7.8,0.26,10.62c2.97,2.82,7.8,2.71,10.62-0.26
	c40.89-42.92,95.46-67.48,154.36-69.64v224.44c0,4.15,3.37,7.52,7.51,7.52h225.83c-3.8,120.73-103.2,217.76-224.83,217.76
	l-0.97-0.01C115.5,496.27,15.03,395.37,15.03,271.83l0-0.29c0.06-44.25,12.96-87.05,37.3-123.78c2.29-3.46,1.35-8.12-2.11-10.41
	c-3.46-2.29-8.12-1.35-10.42,2.11C13.83,178.65,0.07,224.31,0,271.55l0,0.32c0,63.92,24.84,124.05,69.95,169.34
	c45.09,45.27,105.11,70.35,168.99,70.62l0.36,0.01c0.22,0,0.45,0.01,0.67,0.01c64.1,0,124.36-24.96,169.68-70.29
	c45.33-45.32,70.29-105.58,70.29-169.68C479.9,267.65,476.8,264.02,472.42,264.02z"/>
<path d="M139.77,220.26h-8.02c-9.12,0-16.53-7.42-16.53-16.53s7.42-16.53,16.53-16.53h32.06c4.15,0,7.51-3.37,7.51-7.51
	s-3.37-7.51-7.51-7.51h-16.53v-8.52c0-4.15-3.37-7.51-7.51-7.51s-7.51,3.37-7.51,7.51v8.52h-0.5c-17.4,0-31.56,14.16-31.56,31.56
	s14.16,31.56,31.56,31.56h8.02c9.12,0,16.53,7.42,16.53,16.53c0,9.12-7.42,16.53-16.53,16.53h-32.06c-4.15,0-7.51,3.36-7.51,7.52
	s3.36,7.52,7.51,7.52h24.55v8.52c0,4.15,3.37,7.52,7.51,7.52s7.51-3.36,7.51-7.52v-9.43c13.79-3.38,24.05-15.84,24.05-30.65
	C171.33,234.42,157.18,220.26,139.77,220.26z"/>
<path d="M272.6,388.59h-8.02c-9.12,0-16.53-7.42-16.53-16.53s7.42-16.53,16.53-16.53h32.06c4.15,0,7.52-3.36,7.52-7.52
	c0-4.15-3.36-7.52-7.52-7.52h-16.53v-8.52c0-4.15-3.36-7.52-7.52-7.52s-7.52,3.36-7.52,7.52v8.52h-0.5
	c-17.4,0-31.56,14.16-31.56,31.56c0,17.4,14.16,31.56,31.56,31.56h8.02c9.12,0,16.53,7.42,16.53,16.53s-7.42,16.53-16.53,16.53
	h-32.06c-4.15,0-7.51,3.36-7.51,7.52c0,4.15,3.36,7.52,7.51,7.52h24.55v8.52c0,4.15,3.36,7.52,7.52,7.52s7.52-3.36,7.52-7.52v-9.43
	c13.79-3.38,24.05-15.84,24.05-30.65C304.16,402.75,290,388.59,272.6,388.59z"/>
</svg>
