<?xml version="1.0" encoding="utf-8"?>
<!-- Generator: Adobe Illustrator 23.0.1, SVG Export Plug-In . SVG Version: 6.00 Build 0)  -->
<svg version="1.1" id="Capa_1" xmlns="http://www.w3.org/2000/svg" xmlns:xlink="http://www.w3.org/1999/xlink" x="0px" y="0px"
	 viewBox="0 0 512 512" style="enable-background:new 0 0 512 512;" xml:space="preserve">
<g>
	<path d="M460.8,168.7c0-1.3-0.4-2.5-1.1-3.7c-1.5-2.4-4.4-4-7.6-4.5L260.6,91.7c-3.1-1.1-6.8-1.1-9.9,0L57.4,161.2
		c-3.8,1.3-6.2,4.1-6.4,7.2v0.1c0,0.1,0,0.1,0,0.3v174.4c0,3.2,2.4,6.1,6.4,7.5l193.3,69.5c0.1,0,0.1,0,0.2,0.1
		c0.3,0.1,0.6,0.1,0.8,0.3c0.1,0,0.2,0.1,0.4,0.1c0.3,0.1,0.6,0.1,0.8,0.2c0.1,0,0.2,0.1,0.3,0.1c0.3,0.1,0.7,0.1,0.9,0.1
		c0.1,0,0.2,0,0.3,0c0.4,0,0.8,0.1,1.2,0.1c0.4,0,0.8,0,1.2-0.1c0.1,0,0.2,0,0.3,0c0.3,0,0.7-0.1,0.9-0.1c0.1,0,0.2-0.1,0.3-0.1
		c0.3-0.1,0.6-0.1,0.8-0.2c0.1,0,0.2-0.1,0.4-0.1c0.3-0.1,0.6-0.1,0.8-0.3c0.1,0,0.1,0,0.2-0.1l193.9-69.7c3.9-1.4,6.4-4.3,6.4-7.5
		v-174C460.8,168.9,460.8,168.8,460.8,168.7z M255.6,108.5l167.7,60.3L361.6,191l-167.7-60.3L255.6,108.5z M255.6,229.1L87.9,168.8
		L168,140l167.7,60.3L255.6,229.1z M73.6,182.3l170.8,61.4v155.6L73.6,337.9V182.3z M266.9,399.3V243.7l80.2-28.9v40.7
		c0,4.6,5.1,8.4,11.3,8.4s11.3-3.8,11.3-8.4v-48.9l68.6-24.7v155.6L266.9,399.3z"/>
</g>
</svg>
