<?xml version="1.0" encoding="utf-8"?>
<!-- Generator: Adobe Illustrator 23.0.1, SVG Export Plug-In . SVG Version: 6.00 Build 0)  -->
<svg version="1.1" id="Outline" xmlns="http://www.w3.org/2000/svg" xmlns:xlink="http://www.w3.org/1999/xlink" x="0px" y="0px"
	 viewBox="0 0 512 512" style="enable-background:new 0 0 512 512;" xml:space="preserve">
<path d="M496.4,339.9l-8-24c-0.1-0.4-0.3-0.7-0.4-1h0l-6.8-13.6c-6.9-13.8-20.2-23.4-35.6-25.5c-17.1-2.3-49.7-6.9-75.4-11.7
	c-2.7-0.5-5.3-1-7.8-1.5c-5.6-1.1-13.3-3.6-22.6-7.5c-11-4.5-24.4-10.8-39.8-18.8c-8.8-4.5-18.4-9.7-28.7-15.4
	c-9.6-5.3-19.8-11.2-30.4-17.4c-8.2-4.8-14.5-8.6-17.6-10.5l-23.8-59.4c-5.7-14-20.4-22.2-35.3-19.6L47.8,134.5
	c-0.7,0.1-1.3,0.2-2,0.5c-4.5,1.7-5.4,5.1-8.7,17.8c-2.1,7.9-4.6,18.3-7.1,29.4c-1.5,6.7-3.1,14-4.7,21.5
	c-2.6,12.8-4.8,24.2-6.3,33.9c-1,6.1-1.7,11.5-2.2,16c-3.4,31.9-0.4,69,0,73.2v32.7c0,17.2,13.5,31.3,30.6,32
	c50.1,2.1,174.6,7,249.4,7c97.9,0,163.9-33,195.6-48.8C495.9,347.9,497.6,343.7,496.4,339.9L496.4,339.9z M466.8,308.5l3.1,6.1
	c-29.4,12.1-76.9,18.5-147.4,19.6l18.7-20.4c6.7,0.2,14.2,0.3,21.8,0.3c10.9,0,21.9-0.3,30.6-1.1c17.1-1.7,40.6-10.9,58.4-18.9
	C458.4,297.1,463.7,302.1,466.8,308.5L466.8,308.5z M188.5,149.3l3,7.5l-80.8,63.9c-23-3.9-50.5-13.5-68.3-20.4
	c0.7-3.4,1.5-6.8,2.2-10L188.5,149.3z M134.8,222.1l62.9-49.8l6.4,16.1C188.3,199.9,158.7,219.1,134.8,222.1L134.8,222.1z
	 M32.7,255.3c0.2-1.5,0.3-3,0.6-4.7l73.4,33.9l18.7,42c-42.7-3.1-78.7-6.1-93.1-7.4C31.5,306.7,30.2,279.1,32.7,255.3L32.7,255.3z
	 M143.4,327.8l-23.4-52.5c-0.8-1.8-2.2-3.2-4-4l-80.3-37.1c0.9-5.5,2.1-11.5,3.3-17.9c21.6,8.2,49.3,17.4,72.6,20.9l0.1,0
	c5.6,0.9,11.2,1.3,16.9,1.4c12.1,0,25.2-3.9,38-9.5c17.5,17.6,35.8,31.3,54.4,40.6c18.1,9,36.8,16.7,55.9,23.1
	c-5.9,10.6-16.8,24.8-31.2,40.6C217,332.3,182.5,330.4,143.4,327.8L143.4,327.8z M296.4,289c3.6-10.6,5.6-22.6,6.8-33.1
	c7,3.5,13.5,6.6,19.6,9.3l-7.6,7.6l11.3,11.3l12.2-12.2c5.5,2.1,10.4,3.8,14.7,5l-52.8,57.6c-1.3,0-2.5,0-3.8,0
	c-8.9,0-19-0.1-30.1-0.4C279.3,319.3,291.9,302.3,296.4,289z M371.6,280.7c16.4,3,34.9,5.8,51.3,8.2c-10.8,4-22.1,7.4-30.9,8.3
	c-10.2,1-24.1,1.1-36.4,1L371.6,280.7z M223.9,212.1l-12.7,12.7l11.3,11.3l15.7-15.7c5.5,3.2,10.9,6.3,16.1,9.3l-11.1,11.1
	l11.3,11.3l14.3-14.3c6.7,3.7,13.1,7.1,19.1,10.3c-0.8,10-2.4,20-4.9,29.7c-18.7-6.2-37-13.7-54.6-22.5
	c-15.5-7.8-31.4-19.4-46.4-33.8c9.9-5.4,19.4-11.5,28.6-18c0.6,0.7,1.3,1.3,2,1.8C212.6,205.3,216.9,207.9,223.9,212.1L223.9,212.1z
	 M167,129.7c5.4-0.9,10.8,0.9,14.5,4.9L48.7,172.5c2.6-10.9,4.7-18.7,5.9-22.9L167,129.7z M296.8,382.5c-74.5,0-198.7-4.9-248.7-7
	c-8.6-0.3-15.3-7.4-15.3-16v-24.3c17.2,1.5,58.1,5,104.8,8.2c42.9,2.9,80.4,5,111.5,6.1c18.2,0.6,34.2,1,47.7,1c2.5,0,5,0,7.4,0
	c83.9-0.4,137.7-6.9,171.8-21l3,9C446.4,354.5,384.9,382.5,296.8,382.5L296.8,382.5z"/>
</svg>
