<?xml version="1.0" encoding="utf-8"?>
<!-- Generator: Adobe Illustrator 24.2.3, SVG Export Plug-In . SVG Version: 6.00 Build 0)  -->
<svg version="1.1" xmlns="http://www.w3.org/2000/svg" xmlns:xlink="http://www.w3.org/1999/xlink" x="0px" y="0px"
	 viewBox="0 0 512 512" style="enable-background:new 0 0 512 512;" xml:space="preserve">
<path d="M511.42,126.27c-0.6-5.51-4.02-10.38-9.14-12.77l-240-112c-4.29-2-9.24-2-13.53,0l-240,112c-5.11,2.39-8.54,7.26-9.14,12.77
	c-0.01,0.11-0.1,1.65-0.1,1.73v272c0,6.54,3.98,12.43,10.06,14.86l240,96c1.91,0.76,3.93,1.14,5.94,1.14s4.04-0.38,5.94-1.14l240-96
	c6.08-2.43,10.06-8.31,10.06-14.86V128C511.52,127.92,511.43,126.38,511.42,126.27z M255.52,33.66l199.74,93.21l-76.91,30.77
	L174.85,71.3L255.52,33.66z M135.83,89.51l200.35,84.99l-80.66,32.26l-199.74-79.9L135.83,89.51z M31.52,151.63l208,83.2v237.54
	l-208-83.2V151.63z M271.52,472.37V234.83l208-83.2v237.54L271.52,472.37z"/>
</svg>
