<?xml version="1.0" encoding="utf-8"?>
<!-- Generator: Adobe Illustrator 24.2.3, SVG Export Plug-In . SVG Version: 6.00 Build 0)  -->
<svg version="1.1" xmlns="http://www.w3.org/2000/svg" xmlns:xlink="http://www.w3.org/1999/xlink" x="0px" y="0px"
	 viewBox="0 0 512 512" style="enable-background:new 0 0 512 512;" xml:space="preserve">
<path  d="M101.46,71.51c-53.7,31.11-98.67,57.28-99.67,58.18
	C0,131.23,0,138.17,0,247.67v116.35l2.85,1.97c11.94,8.27,195.11,112.77,198.28,113c3.17,0.23,9.79-3.13,54.92-29.2l51.27-29.55
	l0.52,25.6c0.59,29.32,1.22,31.77,10.01,39.51s4.98,7.39,93.69,7.16c89.36-0.32,82.82,0.29,91.67-8.56
	c8.84-8.84,8.23,2.2,8.54-125.8L512,244.79l-2.43-5.37c-6.68-14.52-14.32-18.26-37.45-18.26h-16.77l-1.34-3.69
	c-4.26-11.78-11.46-14.96-33.78-14.96h-17.11v-35.59c0-33.53-0.11-35.69-1.95-37.36C397.44,126.2,203.74,15,201.61,15
	c-1.18,0-46.2,25.45-100.06,56.56 M242.44,55.45c21.09,12.15,37.98,22.43,37.59,22.82c-0.39,0.39-169.28,98.16-175.17,101.3
	c-27.96-13.01-55.01-27.86-81-44.46c0-1.29,176.84-102.55,178.47-102.17c0.98,0.23,19.05,10.36,40.13,22.52 M338.55,110.95
	c22.41,12.92,40.74,23.79,40.74,24.13c0,0.63-173.22,100.92-176.44,102.16c-1.52,0.59-83.72-45.79-83.65-47.2
	c0-0.68,176.37-102.48,177.64-102.55c0.54,0,19.3,10.53,41.71,23.45 M105.68,200.95c48.17,27.75,87.93,50.78,88.36,51.19
	c0.43,0.41,0.66,46.97,0.52,103.46l-0.27,102.71l-89.64-51.64L15,355.01l-0.27-103.23c-0.25-98.16-0.18-103.19,1.56-102.26
	C17.29,150.06,57.46,173.2,105.68,200.95 M388.51,175.56v26.94h-3.15c-8.55,0.97-15.99,6.27-19.69,14.03l-2.24,4.62H347.1
	c-22.07,0-29.37,3.38-36.66,16.99c-2.27,4.26-2.29,4.28-2.79,84.13l-0.34,79.69l-48.71,28.21l-48.71,28.21l-0.29-102.8l-0.29-102.8
	l2.13-1.45c2.18-1.49,176.46-102.6,176.93-102.68c0.14,0,0.25,12.1,0.25,26.85 M432,217.61c5.65,1.06,9.38,6.51,8.32,12.16
	c-0.79,4.22-4.09,7.52-8.32,8.32c-1.79,0.36-11.74,0.64-22.14,0.64c-21.86,0-24.43-0.36-27.96-3.9c-3.85-4.42-3.39-11.13,1.04-14.98
	c1.15-1,2.5-1.74,3.96-2.17c3.58-0.72,41.6-0.77,45.11,0 M365.22,238.31c2.65,5.6,7.05,10.18,12.53,13.07
	c21.38,3,43.08,2.93,64.44-0.21c5.32-2.73,9.56-7.19,12.03-12.64l1.07-3.06l14.62,0.38c18.94,0.48,24.11,3.2,26.58,13.91
	c1.24,5.37,1.24,209,0,214.36c-3.26,14.03,0,13.5-83.99,13.85c-86.96,0.38-86.15,0.48-89.11-13.71
	c-2.33-11.19-0.89-215.02,1.54-219.15c4.51-7.66,8.95-9.18,27.08-9.33l12.53-0.11l0.66,2.61 M341.63,278.99
	c-2.67,14.92-2.61,30.2,0.18,45.09c5.85,2.35,12.39,2.35,18.24,0c2.39-2.34,3.02-5.94,1.58-8.95c-0.72-1.38,1.47,0.16,5.01,3.58
	c10.08,9.56,10.74,9.34,28.94-8.84c16.11-16.11,17.9-19.44,12.73-24.58c-4.49-4.49-7.63-3.04-20.14,9.31l-11.53,11.38l-3.58-3.58
	c-8.2-8.18-19.69-2.08-14.52,7.68c0.84,1.59,0.63,1.79-1.56,1.36c-2.49-0.48-2.54-0.7-2.54-10.2v-9.56h9.43
	c8.82,0,9.58,0.16,11.47,2.6c2.87,3.1,7.62,3.52,10.99,0.98c3.19-4.95,3.34-11.26,0.41-16.36c-14.92-2.67-30.2-2.61-45.09,0.18
	 M421.28,296.89c-1.15,1.48-1.81,3.29-1.88,5.17c0,7.16,0.77,7.25,30.43,7.25c29.66,0,30.05,0,30.05-7.43
	c0-6.95-0.55-7.16-30.23-7.16c-25.19,0-26.53,0.11-28.34,2.08 M341.61,345.38c-2.67,14.92-2.61,30.2,0.18,45.09
	c14.92,2.67,30.2,2.61,45.09-0.18c2.67-14.92,2.61-30.2-0.18-45.09C371.78,342.53,356.5,342.6,341.61,345.38 M374.1,367.85v9.85
	h-19.69v-19.78h19.69v9.85 M421.23,363.11c-1.15,1.48-1.81,3.29-1.88,5.17c0,7.16,0.77,7.25,30.43,7.25c29.66,0,30.05,0,30.05-7.43
	c0-6.95-0.55-7.16-30.23-7.16c-25.19,0-26.53,0.11-28.34,2.08 M341.61,411.62c-2.67,14.92-2.61,30.2,0.18,45.09
	c6.73,6.09,24.45-0.72,20.3-7.8c-0.43-0.75,2.06,1.32,5.53,4.6c9.33,8.79,9.08,8.95,27.37-9.29c14.07-13.94,15.36-15.56,15.34-18.92
	c0-9.63-7.75-10.74-16.65-2.45l-5.08,4.76v-7.16c0-10.88,0.48-10.74-24.54-10.74c-18.78,0-20.91,0.18-22.46,1.9 M373.81,426.02
	c0.91,3.31,4,5.54,7.43,5.37h3.67l-4.01,4.1l-4.01,4.1l-3.97-3.58c-7.34-6.62-16.4-3.81-15.14,4.69c0.36,2.49,0,3.11-1.43,3.11
	s-1.9-1-1.9-9.85v-9.85h9.36c7.98,0,9.45,0.27,10.01,1.79 M421.28,429.3c-1.15,1.48-1.81,3.29-1.88,5.17
	c0,7.16,0.77,7.25,30.43,7.25c29.66,0,30.05,0,30.05-7.43c0-6.95-0.55-7.16-30.23-7.16c-25.19,0-26.53,0.11-28.34,2.08"/>
</svg>
