<?xml version="1.0" encoding="utf-8"?>
<!-- Generator: Adobe Illustrator 24.2.3, SVG Export Plug-In . SVG Version: 6.00 Build 0)  -->
<svg version="1.1" xmlns="http://www.w3.org/2000/svg" xmlns:xlink="http://www.w3.org/1999/xlink" x="0px" y="0px"
	 viewBox="0 0 512 512" style="enable-background:new 0 0 512 512;" xml:space="preserve">
<path d="M262.69,176.29c-2.21-0.19-4.43-0.29-6.69-0.29c-44.11,0-80,35.89-80,80s35.89,80,80,80c2.26,0,4.48-0.09,6.61-0.28
	C303.8,332.34,336,297.32,336,256S303.8,179.67,262.69,176.29L262.69,176.29z"/>
<path d="M495.59,216.41C485.01,205.83,470.95,200,456,200h-16.3c-3.61-11.86-8.36-23.33-14.21-34.29l11.53-11.53
	c21.83-21.83,21.83-57.35,0-79.2c-10.57-10.57-24.64-16.4-39.6-16.4c-14.96,0-29.02,5.82-39.59,16.4l-11.53,11.53
	c-10.96-5.85-22.43-10.6-34.29-14.21V56c0-26.52-18.85-49.6-44.85-54.89C263.47,0.38,259.72,0,256,0
	c-14.95,0-29.01,5.83-39.59,16.41C205.83,26.99,200,41.05,200,56v16.3c-11.86,3.61-23.33,8.36-34.29,14.21l-11.53-11.53
	c-21.83-21.83-57.35-21.83-79.2,0c-10.57,10.57-16.4,24.64-16.4,39.6c0,14.96,5.82,29.02,16.4,39.59l11.53,11.53
	c-5.85,10.96-10.6,22.43-14.21,34.29H56c-30.88,0-56,25.12-56,56c0,14.95,5.83,29.01,16.41,39.59S41.05,312,56,312h16.3
	c3.61,11.86,8.36,23.33,14.21,34.29l-11.53,11.53c-21.83,21.83-21.83,57.35,0,79.2c10.57,10.57,24.64,16.4,39.6,16.4
	c14.96,0,29.02-5.82,39.59-16.4l11.53-11.53c10.96,5.85,22.43,10.61,34.29,14.21V456c0,30.88,25.12,56,56,56
	c3.72,0,7.47-0.38,11.15-1.11c0.01,0,0.02-0.01,0.04-0.01c10.77-2.19,20.6-7.47,28.41-15.29C306.17,485.01,312,470.95,312,456v-16.3
	c11.86-3.61,23.33-8.36,34.29-14.21l11.53,11.53c10.92,10.92,25.25,16.37,39.59,16.37c14.34,0,28.68-5.46,39.6-16.37
	c10.57-10.57,16.4-24.64,16.4-39.6c0-14.96-5.82-29.02-16.4-39.59l-11.53-11.53c5.85-10.96,10.61-22.43,14.21-34.29H456
	c30.88,0,56-25.12,56-56C512,241.05,506.17,226.99,495.59,216.41L495.59,216.41z M338.22,332.05
	c-19.09,20.63-44.99,33.26-72.91,35.55c-2.97,0.26-6.13,0.39-9.31,0.39c-61.76,0-112-50.24-112-112s50.24-112,112-112
	c3.18,0,6.34,0.13,9.39,0.4c27.85,2.29,53.74,14.91,72.83,35.55C357.43,200.7,368,227.71,368,256S357.43,311.3,338.22,332.05z"/>
</svg>
