<?xml version="1.0" encoding="utf-8"?>
<!-- Generator: Adobe Illustrator 24.2.3, SVG Export Plug-In . SVG Version: 6.00 Build 0)  -->
<svg version="1.1" xmlns="http://www.w3.org/2000/svg" xmlns:xlink="http://www.w3.org/1999/xlink" x="0px" y="0px"
	 viewBox="0 0 512 512" style="enable-background:new 0 0 512 512;" xml:space="preserve">
<path d="M340.65,238.74c-7.59,8.63-6.45,22.67,2.18,30.26l90.25,80.06H72.38c-11.85,0-21.63,9.77-21.63,21.63
	s9.77,21.63,21.63,21.63h360.7l-90.25,80.06c-8.63,8.63-9.77,21.63-2.18,30.26c8.63,8.63,21.63,9.77,30.26,2.18l131.95-117.91
	c10.92-8.84,9.25-24.43,0-31.4L370.9,236.56C362.38,228.97,348.24,230.01,340.65,238.74z"/>
<path d="M141.63,7.18L9.68,124.05c-10.5,10.4-11.13,23.4,0,32.44l131.95,118.95c8.63,7.59,22.67,6.45,30.26-2.18
	c10.61-13.31,3.33-26.72-2.18-30.26l-90.25-80.06h359.66c11.85,0,21.63-9.77,21.63-21.63s-8.63-21.63-20.59-21.63H79.56l90.25-80.06
	c8.63-8.63,9.77-21.63,2.18-30.26C163.26,0.73,150.26-0.41,141.63,7.18z"/>
</svg>
