<?xml version="1.0" encoding="utf-8"?>
<!-- Generator: Adobe Illustrator 24.2.3, SVG Export Plug-In . SVG Version: 6.00 Build 0)  -->
<svg version="1.1" xmlns="http://www.w3.org/2000/svg" xmlns:xlink="http://www.w3.org/1999/xlink" x="0px" y="0px"
	 viewBox="0 0 512 512" style="enable-background:new 0 0 512 512;" xml:space="preserve">
<path d="M419.18,93.92l-0.54-0.54c-3.9-3.91-10.23-3.92-14.14-0.02c-3.91,3.9-3.92,10.23-0.02,14.14l0.52,0.52
	c1.95,1.96,4.52,2.95,7.09,2.95c2.55,0,5.1-0.97,7.05-2.91C423.06,104.17,423.08,97.83,419.18,93.92z"/>
<path d="M256,110c-80.51,0-146,65.49-146,146s65.49,146,146,146s146-65.49,146-146S336.51,110,256,110z M246,381.6
	c-61.52-4.85-110.75-54.08-115.6-115.6H246V381.6z M246,246H130.4c4.85-61.52,54.09-110.75,115.6-115.6V246z M266,130.4
	c61.52,4.85,110.75,54.08,115.6,115.6H266V130.4z M266,381.6V266h115.6C376.75,327.52,327.52,376.75,266,381.6z"/>
<path d="M502,246h-16.26c-1.7-38.16-12.82-75.67-32.5-108.4c-2.85-4.73-8.99-6.26-13.72-3.42c-4.73,2.85-6.26,8.99-3.42,13.72
	c18.39,30.59,28.2,64.3,29.8,98.09H448c-5.52,0-10,4.48-10,10s4.48,10,10,10h17.9c-2.44,50.79-23.33,100.41-61.41,138.49
	c-37.3,37.3-86.15,58.83-138.49,61.27V448c0-5.52-4.48-10-10-10s-10,4.48-10,10v17.76c-52.34-2.44-101.2-23.97-138.49-61.27
	c-38.4-38.4-58.79-88.1-61.17-138.49H64c5.52,0,10-4.48,10-10s-4.48-10-10-10H46.34c2.38-50.4,22.77-100.09,61.17-138.49
	C145.2,69.82,195.09,49.09,246,46.57V64c0,5.52,4.48,10,10,10s10-4.48,10-10V46.52c35.56,1.58,70.91,12.08,102.26,31.94
	c4.66,2.96,10.84,1.57,13.8-3.09c2.96-4.67,1.57-10.84-3.1-13.8c-33.82-21.44-73-33.56-112.96-35.33V10c0-5.52-4.48-10-10-10
	s-10,4.48-10,10v16.23c-4.7,0.2-9.4,0.54-14.1,1.03C179.73,32.72,130.53,56.2,93.37,93.37C52.29,134.44,28.68,188.32,26.23,246H10
	c-5.52,0-10,4.48-10,10c0,5.52,4.48,10,10,10h16.23c2.45,57.68,26.06,111.56,67.14,152.63c41.08,41.08,94.95,64.69,152.64,67.14V502
	c0,5.52,4.48,10,10,10s10-4.48,10-10v-16.23c57.68-2.45,111.56-26.07,152.64-67.14c37.03-37.03,59.79-84.05,65.82-135.96
	c0.64-5.55,1.07-11.11,1.31-16.68H502c5.52,0,10-4.48,10-10S507.52,246,502,246z"/>
</svg>
